<svg width="65" height="64" viewBox="0 0 65 64" fill="none" xmlns="http://www.w3.org/2000/svg">
<rect x="0.105469" width="64" height="64" rx="32" fill="#818CF8"/>
<path d="M32.1055 28C37.076 28 41.1055 26.6569 41.1055 25C41.1055 23.3431 37.076 22 32.1055 22C27.1349 22 23.1055 23.3431 23.1055 25C23.1055 26.6569 27.1349 28 32.1055 28Z" stroke="white" stroke-width="2" stroke-linecap="round" stroke-linejoin="round"/>
<path d="M41.1055 32C41.1055 33.66 37.1055 35 32.1055 35C27.1055 35 23.1055 33.66 23.1055 32" stroke="white" stroke-width="2" stroke-linecap="round" stroke-linejoin="round"/>
<path d="M23.1055 25V39C23.1055 40.66 27.1055 42 32.1055 42C37.1055 42 41.1055 40.66 41.1055 39V25" stroke="white" stroke-width="2" stroke-linecap="round" stroke-linejoin="round"/>
</svg>
