<svg width="65" height="64" viewBox="0 0 65 64" fill="none" xmlns="http://www.w3.org/2000/svg">
<rect x="0.105469" width="64" height="64" rx="32" fill="#3B82F6"/>
<path d="M42.1055 39C42.1055 39.5304 41.8948 40.0391 41.5197 40.4142C41.1446 40.7893 40.6359 41 40.1055 41H24.1055C23.575 41 23.0663 40.7893 22.6913 40.4142C22.3162 40.0391 22.1055 39.5304 22.1055 39V25C22.1055 24.4696 22.3162 23.9609 22.6913 23.5858C23.0663 23.2107 23.575 23 24.1055 23H29.1055L31.1055 26H40.1055C40.6359 26 41.1446 26.2107 41.5197 26.5858C41.8948 26.9609 42.1055 27.4696 42.1055 28V39Z" stroke="white" stroke-width="2" stroke-linecap="round" stroke-linejoin="round"/>
</svg>
