<svg width="543" height="362" viewBox="0 0 543 362" fill="none" xmlns="http://www.w3.org/2000/svg">
<g filter="url(#filter0_d_1340_22661)">
<rect x="36" y="12" width="471" height="290" rx="16" fill="white"/>
<mask id="mask0_1340_22661" style="mask-type:alpha" maskUnits="userSpaceOnUse" x="75" y="42" width="393" height="230">
<rect x="75.7228" y="42.5" width="391.554" height="229" fill="#C4C4C4"/>
</mask>
<g mask="url(#mask0_1340_22661)">
<path d="M307.879 214.237L278.224 227.203V271.47H668.591L645.229 202.626C631.248 179.755 609.253 162.91 583.53 155.374L541.735 143.128C540.458 142.754 539.135 142.564 537.804 142.564C533.939 142.564 530.246 144.165 527.603 146.986L499.817 176.649C484.089 193.44 459.1 197.693 438.703 187.051L433.591 184.384C414.432 174.388 390.859 179.635 377.749 196.813L369.452 207.686C360.89 218.905 345.41 222.175 333.042 215.376C325.286 211.112 315.989 210.692 307.879 214.237Z" fill="#020AC7"/>
<path d="M271.338 144.602L271.338 144.242C271.338 143.889 271.279 143.629 271.161 143.461C271.044 143.293 270.859 143.209 270.607 143.209C270.357 143.209 270.179 143.295 270.074 143.468C269.968 143.638 269.915 143.904 269.915 144.264L269.915 144.602L271.338 144.602ZM272.246 144.602L274.266 144.602L274.266 145.719L269 145.719L269 144.185C269 143.469 269.131 142.94 269.393 142.596C269.652 142.253 270.047 142.081 270.578 142.081C270.888 142.081 271.164 142.167 271.406 142.337C271.646 142.508 271.835 142.749 271.972 143.061C273.156 142.269 273.92 141.752 274.266 141.512L274.266 142.751L272.246 144.008L272.246 144.602Z" fill="#A3A3A3"/>
<path d="M274.266 136.342L274.266 139.374L269 139.374L269 136.342L269.915 136.342L269.915 138.258L271.071 138.258L271.071 136.475L271.986 136.475L271.986 138.258L273.344 138.258L273.344 136.342L274.266 136.342Z" fill="#A3A3A3"/>
<path d="M272.804 130.656C273.279 130.656 273.654 130.828 273.928 131.171C274.201 131.512 274.338 131.988 274.338 132.597C274.338 133.159 274.232 133.656 274.021 134.088L272.984 134.088C273.142 133.733 273.254 133.433 273.319 133.188C273.384 132.941 273.416 132.715 273.416 132.511C273.416 132.266 273.369 132.079 273.276 131.949C273.182 131.817 273.043 131.751 272.858 131.751C272.755 131.751 272.663 131.78 272.584 131.837C272.502 131.895 272.424 131.98 272.35 132.093C272.276 132.204 272.157 132.431 271.993 132.774C271.842 133.096 271.697 133.337 271.558 133.498C271.418 133.659 271.256 133.787 271.071 133.883C270.887 133.979 270.67 134.027 270.423 134.027C269.957 134.027 269.591 133.87 269.325 133.555C269.058 133.238 268.925 132.801 268.925 132.244C268.925 131.971 268.957 131.71 269.022 131.463C269.087 131.213 269.178 130.953 269.296 130.681L270.164 131.041C270.049 131.322 269.968 131.555 269.922 131.74C269.877 131.923 269.854 132.103 269.854 132.28C269.854 132.492 269.903 132.654 270.002 132.767C270.1 132.88 270.229 132.936 270.387 132.936C270.486 132.936 270.572 132.913 270.646 132.868C270.718 132.822 270.789 132.75 270.859 132.651C270.926 132.551 271.049 132.314 271.226 131.942C271.462 131.45 271.698 131.112 271.936 130.93C272.171 130.747 272.46 130.656 272.804 130.656Z" fill="#A3A3A3"/>
<path d="M271.626 123.447C272.498 123.447 273.168 123.663 273.636 124.095C274.104 124.527 274.338 125.147 274.338 125.954C274.338 126.761 274.104 127.38 273.636 127.812C273.168 128.244 272.495 128.461 271.619 128.461C270.742 128.461 270.074 128.244 269.613 127.812C269.149 127.378 268.918 126.756 268.918 125.947C268.918 125.137 269.151 124.519 269.616 124.092C270.082 123.662 270.752 123.447 271.626 123.447ZM271.626 127.29C272.214 127.29 272.657 127.178 272.955 126.955C273.253 126.732 273.402 126.398 273.402 125.954C273.402 125.063 272.81 124.618 271.626 124.618C270.44 124.618 269.847 125.061 269.847 125.947C269.847 126.391 269.997 126.726 270.297 126.951C270.595 127.177 271.038 127.29 271.626 127.29Z" fill="#A3A3A3"/>
<path d="M269 116.594L272.408 116.594C272.797 116.594 273.138 116.682 273.43 116.857C273.723 117.03 273.948 117.281 274.104 117.61C274.26 117.939 274.338 118.328 274.338 118.777C274.338 119.454 274.165 119.98 273.819 120.355C273.471 120.729 272.996 120.916 272.393 120.916L269 120.916L269 119.804L272.224 119.804C272.63 119.804 272.927 119.722 273.117 119.559C273.307 119.395 273.402 119.125 273.402 118.748C273.402 118.383 273.307 118.119 273.117 117.956C272.925 117.79 272.625 117.707 272.217 117.707L269 117.707L269 116.594Z" fill="#A3A3A3"/>
<path d="M271.338 112.713L271.338 112.353C271.338 112 271.279 111.74 271.161 111.572C271.044 111.403 270.859 111.319 270.607 111.319C270.357 111.319 270.179 111.406 270.074 111.579C269.968 111.749 269.915 112.015 269.915 112.375L269.915 112.713L271.338 112.713ZM272.246 112.713L274.266 112.713L274.266 113.83L269 113.83L269 112.295C269 111.58 269.131 111.051 269.393 110.707C269.652 110.364 270.047 110.192 270.578 110.192C270.888 110.192 271.164 110.277 271.406 110.448C271.646 110.618 271.835 110.86 271.972 111.172C273.156 110.379 273.92 109.863 274.266 109.623L274.266 110.862L272.246 112.119L272.246 112.713Z" fill="#A3A3A3"/>
<path d="M269.854 105.248C269.854 105.669 270.013 105.994 270.329 106.225C270.644 106.455 271.083 106.57 271.648 106.57C272.822 106.57 273.409 106.13 273.409 105.248C273.409 104.879 273.316 104.431 273.132 103.905L274.068 103.905C274.248 104.337 274.338 104.82 274.338 105.353C274.338 106.119 274.106 106.705 273.643 107.111C273.177 107.516 272.51 107.719 271.64 107.719C271.093 107.719 270.614 107.62 270.203 107.42C269.79 107.221 269.475 106.935 269.256 106.563C269.035 106.188 268.925 105.75 268.925 105.248C268.925 104.737 269.048 104.223 269.296 103.707L270.203 104.067C270.11 104.264 270.028 104.462 269.958 104.661C269.889 104.861 269.854 105.056 269.854 105.248Z" fill="#A3A3A3"/>
<path d="M274.266 98.2735L274.266 101.306L269 101.306L269 98.2735L269.915 98.2735L269.915 100.19L271.071 100.19L271.071 98.4067L271.986 98.4067L271.986 100.19L273.344 100.19L273.344 98.2735L274.266 98.2735Z" fill="#A3A3A3"/>
<path d="M272.804 92.5879C273.279 92.5879 273.654 92.7596 273.928 93.1029C274.201 93.4439 274.338 93.9193 274.338 94.5292C274.338 95.091 274.232 95.5881 274.021 96.0203L272.984 96.0203C273.142 95.6649 273.254 95.3648 273.319 95.1198C273.384 94.8725 273.416 94.6468 273.416 94.4427C273.416 94.1978 273.369 94.0105 273.276 93.8809C273.182 93.7488 273.043 93.6828 272.858 93.6828C272.755 93.6828 272.663 93.7116 272.584 93.7692C272.502 93.8268 272.424 93.9121 272.35 94.0249C272.276 94.1354 272.157 94.3623 271.993 94.7057C271.842 95.0274 271.697 95.2687 271.558 95.4296C271.418 95.5905 271.256 95.7189 271.071 95.815C270.887 95.911 270.67 95.959 270.423 95.959C269.957 95.959 269.591 95.8018 269.325 95.4872C269.058 95.1703 268.925 94.7333 268.925 94.1762C268.925 93.9025 268.957 93.642 269.022 93.3946C269.087 93.1449 269.178 92.8844 269.296 92.6131L270.164 92.9733C270.049 93.2542 269.968 93.4871 269.922 93.672C269.877 93.8545 269.854 94.0345 269.854 94.2122C269.854 94.4235 269.903 94.5856 270.002 94.6985C270.1 94.8113 270.229 94.8677 270.387 94.8677C270.486 94.8677 270.572 94.8449 270.646 94.7993C270.718 94.7537 270.789 94.6816 270.859 94.5832C270.926 94.4823 271.049 94.2458 271.226 93.8737C271.462 93.3814 271.698 93.0441 271.936 92.8616C272.171 92.6791 272.46 92.5879 272.804 92.5879Z" fill="#A3A3A3"/>
<rect x="278.619" y="254.098" width="3.95505" height="17.4024" fill="#93C5FD"/>
<rect x="294.835" y="254.098" width="11.4698" height="13.4473" fill="#93C5FD"/>
<rect x="305.909" y="219.688" width="26.1037" height="17.4024" fill="#93C5FD"/>
<rect x="467.277" y="225.226" width="10.2832" height="3.16408" transform="rotate(-180 467.277 225.226)" fill="#93C5FD"/>
<rect x="467.277" y="220.875" width="10.2832" height="14.6339" transform="rotate(-180 467.277 220.875)" fill="#93C5FD"/>
<rect x="333.595" y="248.956" width="18.9845" height="22.5441" fill="#2563EB"/>
<rect x="353.37" y="256.075" width="4.35062" height="15.4249" fill="#93C5FD"/>
<rect x="359.303" y="256.075" width="11.4698" height="15.4249" fill="#93C5FD"/>
<rect x="372.355" y="256.075" width="11.4698" height="15.4249" fill="#93C5FD"/>
<rect x="385.407" y="256.075" width="11.4698" height="10.6787" fill="#93C5FD"/>
<rect x="438.8" y="231.949" width="16.6115" height="10.6787" fill="#2563EB"/>
<rect x="322.125" y="241.837" width="9.88779" height="10.6788" fill="#2563EB"/>
<rect x="322.125" y="238.673" width="9.88779" height="1.97755" fill="#2563EB"/>
<rect x="398.063" y="256.075" width="11.4697" height="8.30571" fill="#93C5FD"/>
<rect x="411.115" y="244.605" width="20.5665" height="26.8946" fill="#2563EB"/>
<rect x="398.063" y="265.963" width="11.4697" height="5.53714" fill="#93C5FD"/>
<rect x="385.407" y="268.336" width="11.4698" height="3.16409" fill="#93C5FD"/>
<rect x="294.835" y="268.731" width="11.4698" height="2.76857" fill="#93C5FD"/>
<rect x="283.761" y="254.098" width="9.88776" height="17.4024" fill="#93C5FD"/>
<rect x="361.676" y="224.83" width="19.7755" height="5.93265" fill="#93C5FD"/>
<rect x="370.773" y="210.987" width="10.6787" height="13.0518" fill="#93C5FD"/>
<path d="M348.624 232.345H352.579V235.113H348.624V232.345Z" fill="#93C5FD"/>
<path d="M348.624 232.345H352.579V235.113H348.624V232.345Z" fill="#93C5FD"/>
<path d="M447.106 208.614H449.875V223.643H447.106V208.614Z" fill="#93C5FD"/>
<path d="M447.106 208.614H449.875V223.643H447.106V208.614Z" fill="#93C5FD"/>
<path d="M427.726 188.839H432.077V207.823H427.726V188.839Z" fill="#93C5FD"/>
<path d="M427.726 188.839H432.077V207.823H427.726V188.839Z" fill="#93C5FD"/>
<path d="M433.659 203.868H449.875V207.823H433.659V203.868Z" fill="#93C5FD"/>
<path d="M433.659 203.868H449.875V207.823H433.659V203.868Z" fill="#93C5FD"/>
<path d="M438.8 214.942H445.92V218.502H438.8V214.942Z" fill="#93C5FD"/>
<path d="M438.8 214.942H445.92V218.502H438.8V214.942Z" fill="#93C5FD"/>
<path d="M438.8 209.405H445.92V218.502H438.8V209.405Z" fill="#93C5FD"/>
<path d="M438.8 209.405H445.92V218.502H438.8V209.405Z" fill="#93C5FD"/>
<path d="M340.714 243.419H342.692V246.979H340.714V243.419Z" fill="#2563EB"/>
<path d="M340.714 243.419H342.692V246.979H340.714V243.419Z" fill="#2563EB"/>
<path d="M278.619 230.367H280.597V248.956H278.619V230.367Z" fill="#2563EB"/>
<path d="M278.619 230.367H280.597V248.956H278.619V230.367Z" fill="#2563EB"/>
<path d="M278.619 249.747H280.597V253.307H278.619V249.747Z" fill="#93C5FD"/>
<path d="M278.619 249.747H280.597V253.307H278.619V249.747Z" fill="#93C5FD"/>
<path d="M281.388 229.576H283.365V253.307H281.388V229.576Z" fill="#2563EB"/>
<path d="M281.388 229.576H283.365V253.307H281.388V229.576Z" fill="#2563EB"/>
<path d="M344.669 226.808H348.229V231.554H344.669V226.808Z" fill="#93C5FD"/>
<path d="M344.669 226.808H348.229V231.554H344.669V226.808Z" fill="#93C5FD"/>
<rect x="405.578" y="197.144" width="20.5665" height="21.3575" fill="#93C5FD"/>
<rect x="413.092" y="182.51" width="13.0518" height="13.0518" fill="#93C5FD"/>
<rect x="407.555" y="183.697" width="3.55957" height="3.16407" fill="#93C5FD"/>
<rect x="385.802" y="192.398" width="3.5596" height="3.16408" fill="#93C5FD"/>
<rect x="392.526" y="185.279" width="5.14163" height="1.58205" fill="#93C5FD"/>
<rect x="398.854" y="182.51" width="7.51471" height="4.3506" fill="#93C5FD"/>
<rect x="341.11" y="221.27" width="19.3799" height="4.3506" fill="#93C5FD"/>
<rect x="361.676" y="219.688" width="7.91019" height="4.3506" fill="#93C5FD"/>
<rect x="364.84" y="215.733" width="4.74615" height="3.16408" fill="#93C5FD"/>
<rect x="357.721" y="218.502" width="2.76859" height="1.58203" fill="#93C5FD"/>
<rect x="333.595" y="218.502" width="2.76855" height="1.58203" fill="#93C5FD"/>
<rect x="305.909" y="216.129" width="5.93265" height="2.37306" fill="#93C5FD"/>
<rect x="299.186" y="218.897" width="5.93271" height="3.16408" fill="#93C5FD"/>
<rect x="293.253" y="221.27" width="2.76855" height="2.76857" fill="#93C5FD"/>
<rect x="289.298" y="223.643" width="2.76855" height="1.58205" fill="#93C5FD"/>
<rect x="284.156" y="226.017" width="3.95511" height="2.76857" fill="#93C5FD"/>
<rect x="372.355" y="207.032" width="4.74609" height="3.16408" fill="#93C5FD"/>
<rect x="349.811" y="226.808" width="10.6788" height="4.74611" fill="#93C5FD"/>
<rect x="390.944" y="188.048" width="20.5665" height="7.51469" fill="#93C5FD"/>
<rect x="433.263" y="244.605" width="22.1486" height="26.8946" fill="#2563EB"/>
<rect x="307.491" y="254.493" width="24.5216" height="17.0069" fill="#93C5FD"/>
<rect x="383.034" y="197.144" width="9.49219" height="33.6183" fill="#93C5FD"/>
<rect x="427.726" y="209.405" width="9.49219" height="33.2228" fill="#2563EB"/>
<rect x="377.892" y="203.868" width="3.55957" height="6.32816" fill="#93C5FD"/>
<rect x="433.659" y="199.122" width="16.2159" height="3.55959" fill="#93C5FD"/>
<rect x="433.659" y="194.376" width="10.6788" height="3.55959" fill="#93C5FD"/>
<rect x="377.892" y="199.122" width="3.55957" height="3.55959" fill="#93C5FD"/>
<rect x="451.457" y="201.495" width="3.55957" height="26.1036" fill="#93C5FD"/>
<rect x="456.994" y="245.396" width="9.49219" height="26.1036" fill="#2563EB"/>
<rect x="383.034" y="232.74" width="9.49219" height="9.88771" fill="#2563EB"/>
<rect x="405.578" y="220.875" width="9.49222" height="9.88773" fill="#93C5FD"/>
<rect x="416.652" y="220.875" width="9.49228" height="9.88773" fill="#93C5FD"/>
<rect x="438.8" y="223.248" width="7.1192" height="7.51466" fill="#93C5FD"/>
<rect x="333.595" y="226.808" width="9.49225" height="9.49223" fill="#93C5FD"/>
<rect x="284.156" y="229.576" width="7.91016" height="7.91019" fill="#2563EB"/>
<rect x="438.8" y="219.688" width="7.1192" height="2.37306" fill="#93C5FD"/>
<rect x="447.106" y="224.83" width="2.76855" height="2.76859" fill="#93C5FD"/>
<rect x="293.253" y="224.83" width="2.76855" height="11.8653" fill="#93C5FD"/>
<rect x="344.669" y="232.345" width="2.76859" height="2.76859" fill="#93C5FD"/>
<rect x="333.595" y="221.27" width="2.76855" height="4.3506" fill="#93C5FD"/>
<rect x="337.155" y="222.852" width="2.76859" height="2.76855" fill="#93C5FD"/>
<rect x="289.298" y="226.017" width="2.76855" height="2.76857" fill="#93C5FD"/>
<rect x="313.424" y="216.129" width="13.4473" height="2.76857" fill="#93C5FD"/>
<rect x="319.357" y="212.965" width="3.16409" height="2.76857" fill="#93C5FD"/>
<rect x="447.106" y="228.785" width="8.30566" height="1.97754" fill="#93C5FD"/>
<rect x="405.578" y="232.74" width="20.5665" height="9.88771" fill="#2563EB"/>
<rect x="353.766" y="232.74" width="27.6857" height="9.88771" fill="#2563EB"/>
<rect x="293.253" y="238.673" width="27.6856" height="14.2384" fill="#2563EB"/>
<rect x="344.669" y="236.3" width="7.91022" height="11.4698" fill="#2563EB"/>
<rect x="297.208" y="222.852" width="7.91019" height="14.2383" fill="#93C5FD"/>
<rect x="284.156" y="238.673" width="7.91016" height="14.2384" fill="#2563EB"/>
<rect x="353.766" y="244.605" width="3.95508" height="9.88773" fill="#2563EB"/>
<rect x="359.303" y="244.605" width="50.2297" height="9.88773" fill="#2563EB"/>
<rect x="394.108" y="197.144" width="9.88773" height="33.6183" fill="#93C5FD"/>
<rect x="394.108" y="232.74" width="9.88773" height="9.88771" fill="#2563EB"/>
<rect x="456.994" y="233.136" width="9.49219" height="9.88774" fill="#2563EB"/>
<rect x="333.595" y="237.882" width="9.49225" height="9.88774" fill="#2563EB"/>
<rect x="176.578" y="227.203" width="11.8653" height="43.1105" fill="#E2E8F0"/>
<rect x="160.757" y="227.203" width="13.4473" height="43.1105" fill="#E2E8F0"/>
<rect x="190.025" y="227.203" width="11.4698" height="37.5734" fill="#E2E8F0"/>
<rect x="202.681" y="227.203" width="11.4698" height="30.4542" fill="#E2E8F0"/>
<rect x="215.733" y="188.443" width="20.5665" height="81.8705" fill="#E2E8F0"/>
<rect x="237.882" y="222.457" width="11.0743" height="47.8567" fill="#E2E8F0"/>
<rect x="250.538" y="222.457" width="12.6563" height="47.8567" fill="#E2E8F0"/>
<rect x="264.776" y="222.457" width="12.6563" height="24.9171" fill="#E2E8F0"/>
<rect x="264.776" y="250.143" width="12.6563" height="20.171" fill="#E2E8F0"/>
<rect x="202.681" y="259.239" width="11.4698" height="11.0742" fill="#E2E8F0"/>
<rect x="190.025" y="266.358" width="11.4698" height="3.95508" fill="#E2E8F0"/>
<rect x="157.198" y="104.2" width="22.1485" height="74.3558" fill="#E2E8F0"/>
<rect x="192.003" y="152.847" width="22.1486" height="72.7737" fill="#E2E8F0"/>
<rect x="90.7521" y="122.788" width="22.9395" height="147.525" fill="#E2E8F0"/>
<rect x="115.274" y="118.833" width="20.962" height="64.468" fill="#E2E8F0"/>
<rect x="237.882" y="152.847" width="5.93268" height="68.0276" fill="#E2E8F0"/>
<rect x="137.818" y="217.315" width="21.3575" height="52.9983" fill="#E2E8F0"/>
<rect x="180.928" y="104.2" width="9.88773" height="121.421" fill="#E2E8F0"/>
<rect x="79.6779" y="192.003" width="9.49225" height="78.3109" fill="#E2E8F0"/>
<rect x="245.792" y="150.474" width="31.6408" height="70.4007" fill="#E2E8F0"/>
<rect x="138.213" y="132.676" width="17.4024" height="65.6546" fill="#E2E8F0"/>
<rect x="157.198" y="179.742" width="6.32814" height="18.5889" fill="#E2E8F0"/>
<rect x="160.757" y="217.315" width="18.589" height="8.30569" fill="#E2E8F0"/>
<rect x="215.338" y="152.847" width="20.962" height="34.0138" fill="#E2E8F0"/>
<rect x="164.712" y="179.742" width="6.72366" height="18.5889" fill="#E2E8F0"/>
<rect x="173.018" y="179.742" width="6.32819" height="18.5889" fill="#E2E8F0"/>
<rect x="138.213" y="200.308" width="41.133" height="15.0294" fill="#E2E8F0"/>
<rect x="79.6779" y="153.243" width="9.49225" height="37.5734" fill="#E2E8F0"/>
<rect x="115.274" y="184.488" width="20.962" height="85.8255" fill="#E2E8F0"/>
<path d="M278.026 75.7638L269.366 84.424L278.026 93.0843L286.686 84.424L278.026 75.7638ZM276.526 84.424L276.526 319.357L279.526 319.357L279.526 84.424L276.526 84.424Z" fill="black"/>
<path fill-rule="evenodd" clip-rule="evenodd" d="M672.251 145.709L628.945 165.394C626.07 166.7 623.356 168.332 620.853 170.257C604.268 183.014 581.129 182.849 564.728 169.856L563.367 168.778C545.617 154.716 520.052 156.613 504.571 173.139L501.241 176.695C484.939 194.097 459.039 198.506 437.899 187.476L432.596 184.709C414.365 175.197 391.934 180.19 379.459 196.537L371.162 207.409C361.954 219.475 345.306 222.991 332.006 215.679C324.834 211.737 316.239 211.348 308.741 214.627L306.156 215.757C289.625 222.984 270.295 217.013 260.72 201.723L253.8 190.671C245.709 177.751 228.385 174.354 216.014 183.263C204.427 191.608 188.615 190.859 177.869 181.456L162.654 168.143C142.389 150.411 111.921 151.152 92.5412 169.847L86.5441 175.633C70.144 191.454 46.6739 197.565 24.6406 191.751L18.1429 190.036C8.10369 187.387 -2.51974 188.019 -12.1738 191.84C-26.9804 197.701 -43.6386 196.587 -57.5328 188.806L-95.793 167.381L-93.6906 163.626L-55.4305 185.052C-42.6654 192.201 -27.3608 193.224 -13.7574 187.84C-3.24948 183.68 8.3136 182.992 19.2407 185.876L25.7385 187.59C46.3177 193.021 68.239 187.313 83.5567 172.536L89.5538 166.751C110.542 146.503 143.54 145.701 165.487 164.905L180.702 178.218C189.942 186.303 203.537 186.947 213.499 179.772C227.887 169.41 248.036 173.36 257.447 188.388L264.367 199.439C272.81 212.922 289.856 218.187 304.432 211.814L307.017 210.684C315.739 206.871 325.737 207.323 334.079 211.909C345.513 218.194 359.825 215.172 367.741 204.799L376.039 193.926C389.784 175.915 414.499 170.414 434.586 180.894L439.889 183.661C459.317 193.798 483.12 189.746 498.101 173.753L501.431 170.198C518.442 152.038 546.535 149.954 566.039 165.405L567.4 166.483C582.254 178.251 603.21 178.4 618.23 166.846C620.993 164.721 623.991 162.919 627.164 161.477L670.47 141.792L672.251 145.709Z" fill="#171717"/>
</g>
<rect x="36.5" y="12.5" width="470" height="289" rx="15.5" stroke="#E5E5E5"/>
</g>
<defs>
<filter id="filter0_d_1340_22661" x="0" y="0" width="543" height="362" filterUnits="userSpaceOnUse" color-interpolation-filters="sRGB">
<feFlood flood-opacity="0" result="BackgroundImageFix"/>
<feColorMatrix in="SourceAlpha" type="matrix" values="0 0 0 0 0 0 0 0 0 0 0 0 0 0 0 0 0 0 127 0" result="hardAlpha"/>
<feMorphology radius="12" operator="erode" in="SourceAlpha" result="effect1_dropShadow_1340_22661"/>
<feOffset dy="24"/>
<feGaussianBlur stdDeviation="24"/>
<feColorMatrix type="matrix" values="0 0 0 0 0.0625882 0 0 0 0 0.0926346 0 0 0 0 0.15702 0 0 0 0.18 0"/>
<feBlend mode="normal" in2="BackgroundImageFix" result="effect1_dropShadow_1340_22661"/>
<feBlend mode="normal" in="SourceGraphic" in2="effect1_dropShadow_1340_22661" result="shape"/>
</filter>
</defs>
</svg>
