<svg width="185" height="81" viewBox="0 0 185 81" fill="none" xmlns="http://www.w3.org/2000/svg">
<g opacity="0.4">
<g clip-path="url(#clip0_1311_24217)">
<path d="M73.0999 37.1902H78.8441C83.1054 37.1902 86.0141 39.7864 86.0141 43.6776C86.0141 47.572 83.1054 50.165 78.8441 50.165H73.0999V37.1902ZM78.7296 48.1283C81.6574 48.1283 83.5541 46.3681 83.5541 43.6808C83.5541 40.9934 81.6574 39.2332 78.7296 39.2332H75.5376V48.1314H78.7296V48.1283Z" fill="#1D1A18"/>
<path d="M94.1771 40.1575V42.3639C93.9702 42.3262 93.8015 42.3074 93.6329 42.3074C91.8507 42.3074 90.7241 43.3446 90.7241 45.3656V50.1684H88.3755V40.2675H90.6096V41.7133C91.2842 40.6761 92.5063 40.1575 94.1771 40.1575Z" fill="#1D1A18"/>
<path d="M95.8479 37.2469C95.8479 36.4674 96.4876 35.8577 97.35 35.8577C98.2124 35.8577 98.8521 36.4329 98.8521 37.1935C98.8521 38.0076 98.2315 38.6393 97.35 38.6393C96.4844 38.6362 95.8479 38.0264 95.8479 37.2469ZM96.1661 40.2675H98.5116V50.1652H96.1661V40.2675Z" fill="#1D1A18"/>
<path d="M112.231 45.2179C112.231 48.295 110.073 50.2972 107.145 50.2972C105.869 50.2972 104.743 49.8698 103.934 48.9614V53.7641H101.589V40.2675H103.823V41.5656C104.612 40.6195 105.774 40.1575 107.145 40.1575C110.073 40.1575 112.231 42.1596 112.231 45.2179ZM109.847 45.2179C109.847 43.3257 108.571 42.1219 106.881 42.1219C105.191 42.1219 103.896 43.3257 103.896 45.2179C103.896 47.1101 105.191 48.3139 106.881 48.3139C108.571 48.3139 109.847 47.1101 109.847 45.2179Z" fill="#1D1A18"/>
<path d="M119.869 37.1902H125.613C129.874 37.1902 132.783 39.7864 132.783 43.6776C132.783 47.572 129.874 50.165 125.613 50.165H119.869V37.1902ZM125.499 48.1283C128.426 48.1283 130.323 46.3681 130.323 43.6808C130.323 40.9934 128.426 39.2332 125.499 39.2332H122.307V48.1314H125.499V48.1283Z" fill="#1D1A18"/>
<path d="M140.946 40.1575V42.3639C140.739 42.3262 140.571 42.3074 140.402 42.3074C138.62 42.3074 137.493 43.3446 137.493 45.3656V50.1684H135.148V40.2675H137.382V41.7133C138.056 40.6761 139.275 40.1575 140.946 40.1575Z" fill="#1D1A18"/>
<path d="M142.617 37.2469C142.617 36.4674 143.256 35.8577 144.119 35.8577C144.981 35.8577 145.621 36.4329 145.621 37.1935C145.621 38.0076 145 38.6393 144.119 38.6393C143.253 38.6362 142.617 38.0264 142.617 37.2469ZM142.935 40.2675H145.28V50.1652H142.935V40.2675Z" fill="#1D1A18"/>
<path d="M159 45.2179C159 48.295 156.842 50.2972 153.914 50.2972C152.638 50.2972 151.512 49.8698 150.703 48.9614V53.7641H148.358V40.2675H150.592V41.5656C151.381 40.6195 152.543 40.1575 153.914 40.1575C156.842 40.1575 159 42.1596 159 45.2179ZM156.616 45.2179C156.616 43.3257 155.34 42.1219 153.65 42.1219C151.96 42.1219 150.665 43.3257 150.665 45.2179C150.665 47.1101 151.96 48.3139 153.65 48.3139C155.34 48.3139 156.616 47.1101 156.616 45.2179Z" fill="#1D1A18"/>
<path d="M57.312 32.9377C56.249 32.5919 55.1097 32.4065 53.929 32.4065H51.7236C50.0433 34.6255 48.7226 36.9483 47.6883 39.1611C46.6986 41.2796 45.973 43.3037 45.4447 45.045C45.2283 45.7617 45.0373 46.4563 44.8687 47.1164C43.9489 50.7373 43.7198 53.4058 43.688 53.871H53.9322C59.9343 53.871 64.8002 49.0651 64.8002 43.1372C64.797 38.3784 61.656 34.3427 57.312 32.9377ZM53.929 47.1164H49.671C49.741 46.8681 49.8142 46.6135 49.8937 46.3589C50.5238 44.275 51.4722 41.7385 52.8693 39.1611H53.929C56.1504 39.1611 57.958 40.9464 57.958 43.1372C57.958 45.3342 56.1504 47.1164 53.929 47.1164Z" fill="#F97316"/>
<path d="M54.0563 27.874C52.5733 29.3041 51.2812 30.8317 50.1483 32.4064C48.5602 34.6192 47.2936 36.92 46.288 39.161C45.0023 42.0181 44.1398 44.7778 43.5606 47.1163C42.5741 51.0986 42.415 53.8709 42.415 53.8709H36.8648C36.3811 53.8709 35.9037 53.8394 35.4359 53.7797C30.1117 53.0882 26 48.5873 26 43.1402C26 37.2123 30.8659 32.4096 36.8648 32.4096H45.8615C43.4461 34.7701 41.6925 37.162 40.4673 39.1642H36.8648C36.1488 39.1642 35.4773 39.3496 34.8917 39.6733C33.6665 40.3554 32.8359 41.6535 32.8359 43.1402C32.8359 43.5174 32.89 43.882 32.9886 44.2277C33.4692 45.8936 35.0222 47.1194 36.8616 47.1194H38.2842C38.3924 46.6825 39.3025 43.2879 41.9535 39.1642C43.341 37.0048 45.2059 34.6475 47.6851 32.4096C49.4768 30.794 51.5835 29.2413 54.0563 27.874Z" fill="#1D1A18"/>
</g>
</g>
<defs>
<clipPath id="clip0_1311_24217">
<rect width="133" height="26" fill="white" transform="translate(26 27.874)"/>
</clipPath>
</defs>
</svg>
