<svg width="506" height="519" viewBox="0 0 506 519" fill="none" xmlns="http://www.w3.org/2000/svg">
<g clip-path="url(#clip0_1563_23049)">
<path d="M185.788 438.179V388.421C178.165 385.84 170.725 382.75 163.518 379.172L128.273 414.382L47.5864 333.777L82.8316 298.567C79.2498 291.368 76.1568 283.935 73.5736 276.32H23.7468V162.345H73.5736C76.1537 154.724 79.2468 147.285 82.8316 140.08L47.5864 104.853L128.273 24.2481L163.518 59.4575C170.722 55.8775 178.163 52.7935 185.788 50.2269V0.450684H299.897V50.2269C307.529 52.7902 314.976 55.8744 322.185 59.4575L357.43 24.2481L438.116 104.853L402.961 140.062C406.518 147.272 409.575 154.717 412.111 162.345H461.938V276.338H412.111C409.571 283.947 406.514 291.374 402.961 298.567L438.207 333.777L357.43 414.382L322.185 379.172C314.973 382.753 307.526 385.843 299.897 388.421V438.179H185.788ZM242.851 93.3688C217.916 93.3688 193.541 100.755 172.808 114.595C152.076 128.434 135.916 148.104 126.374 171.117C116.832 194.131 114.335 219.455 119.2 243.886C124.064 268.317 136.072 290.758 153.704 308.372C171.335 325.986 193.8 337.981 218.256 342.841C242.712 347.701 268.061 345.206 291.098 335.674C314.135 326.141 333.825 309.998 347.678 289.287C361.531 268.575 368.925 244.225 368.925 219.315C368.887 185.924 355.592 153.911 331.957 130.3C308.322 106.688 276.277 93.407 242.851 93.3688Z" fill="#E0E8F3"/>
<path d="M299.446 0.901365V50.5695C307.263 53.1914 314.891 56.3478 322.275 60.0163L357.43 24.8971L437.467 104.871L402.33 139.99C406.005 147.365 409.165 154.985 411.786 162.796H461.487V275.924H411.786C409.165 283.729 406.005 291.343 402.33 298.712L437.467 333.831L357.43 413.805L322.275 378.685C314.895 382.367 307.267 385.53 299.446 388.15V437.782H186.239V388.096C178.424 385.497 170.802 382.352 163.428 378.685L128.273 413.805L48.218 333.831L83.373 298.712C79.6841 291.347 76.5182 283.732 73.8985 275.924H24.1979V162.778H73.8985C76.5181 154.964 79.6841 147.343 83.373 139.972L48.218 104.853L128.273 24.8791L163.428 59.9983C170.805 56.3328 178.426 53.1824 186.239 50.5695V0.901365H299.446ZM242.851 345.711C267.876 345.711 292.338 338.298 313.145 324.41C333.952 310.521 350.169 290.781 359.745 267.685C369.322 244.589 371.828 219.175 366.945 194.656C362.064 170.137 350.013 147.616 332.318 129.939C314.623 112.262 292.079 100.224 267.535 95.3467C242.992 90.4697 217.552 92.9727 194.432 102.539C171.313 112.106 151.552 128.307 137.65 149.092C123.747 169.878 116.326 194.316 116.326 219.315C116.326 252.837 129.656 284.987 153.385 308.691C177.113 332.395 209.295 345.711 242.851 345.711ZM300.348 0.0900879H185.337V49.9024C177.923 52.4155 170.687 55.4271 163.681 58.9166L128.905 24.2481L128.273 23.6171L127.623 24.2481L47.5864 104.222L46.9367 104.853L47.5864 105.484L82.2721 140.152C78.788 147.187 75.7737 154.444 73.2488 161.876H23.2956V276.771H73.2488C75.78 284.172 78.7942 291.399 82.2721 298.405L47.5864 333.074L46.9367 333.705L47.5864 334.336L127.623 414.309L128.273 414.94L128.905 414.309L163.608 379.659C170.622 383.133 177.856 386.144 185.264 388.673V438.557H300.276V388.745C307.713 386.216 314.978 383.205 322.022 379.731L356.708 414.381L357.358 415.012L357.989 414.381L438.044 334.408L438.676 333.777L438.044 333.146L403.34 298.477C406.818 291.471 409.833 284.244 412.364 276.843H462.317V161.876H412.436C409.908 154.445 406.894 147.188 403.413 140.152L438.116 105.484L438.748 104.853L438.116 104.222L358.061 24.2481L357.43 23.6171L356.78 24.2481L322.094 58.9166C315.057 55.4272 307.791 52.4156 300.348 49.9024V0.0900879ZM242.851 344.81C218.006 344.81 193.718 337.45 173.059 323.66C152.4 309.871 136.299 290.271 126.791 267.34C117.283 244.408 114.795 219.176 119.642 194.832C124.49 170.488 136.454 148.127 154.023 130.576C171.591 113.025 193.975 101.073 218.344 96.2308C242.712 91.3885 267.971 93.8738 290.925 103.372C313.88 112.871 333.499 128.956 347.303 149.593C361.107 170.231 368.474 194.494 368.474 219.315C368.436 252.586 355.189 284.485 331.638 308.011C308.087 331.538 276.157 344.772 242.851 344.81Z" fill="#2E3192"/>
<path d="M216.106 379.154H67.6363C60.3405 379.154 54.4261 385.063 54.4261 392.351V409.947C54.4261 417.235 60.3405 423.143 67.6363 423.143H216.106C223.402 423.143 229.316 417.235 229.316 409.947V392.351C229.316 385.063 223.402 379.154 216.106 379.154Z" fill="white"/>
<path d="M216.124 379.605C219.508 379.605 222.753 380.948 225.146 383.338C227.539 385.729 228.883 388.971 228.883 392.351V409.929C228.883 413.309 227.539 416.551 225.146 418.942C222.753 421.332 219.508 422.675 216.124 422.675H67.6363C64.2524 422.675 61.007 421.332 58.6143 418.942C56.2215 416.551 54.8772 413.309 54.8772 409.929V392.351C54.8772 388.971 56.2215 385.729 58.6143 383.338C61.007 380.948 64.2524 379.605 67.6363 379.605H216.124ZM216.124 378.704H67.6363C64.0145 378.708 60.5425 380.148 57.9815 382.706C55.4205 385.264 53.9797 388.733 53.9749 392.351V409.929C53.9797 413.547 55.4205 417.015 57.9815 419.574C60.5425 422.132 64.0145 423.571 67.6363 423.576H216.124C219.746 423.571 223.218 422.132 225.779 419.574C228.34 417.015 229.781 413.547 229.786 409.929V392.351C229.781 388.733 228.34 385.264 225.779 382.706C223.218 380.148 219.746 378.708 216.124 378.704Z" fill="#2E3192"/>
<path d="M67.6362 424.55C63.7577 424.545 60.0396 423.002 57.2988 420.261C54.5579 417.519 53.0184 413.803 53.0184 409.929V392.333C53.0184 388.46 54.5585 384.746 57.2999 382.007C60.0413 379.269 63.7594 377.73 67.6362 377.73H216.106C219.985 377.73 223.705 379.268 226.449 382.006C229.193 384.744 230.737 388.458 230.742 392.333V409.929C230.737 413.805 229.194 417.521 226.45 420.262C223.706 423.003 219.986 424.545 216.106 424.55H67.6362ZM67.6362 381.462C64.7645 381.462 62.0103 382.601 59.9797 384.63C57.949 386.659 56.8082 389.41 56.8082 392.279V409.874C56.8082 412.743 57.949 415.495 59.9797 417.523C62.0103 419.552 64.7645 420.692 67.6362 420.692H216.106C218.978 420.692 221.732 419.552 223.763 417.523C225.793 415.495 226.934 412.743 226.934 409.874V392.279C226.934 389.41 225.793 386.659 223.763 384.63C221.732 382.601 218.978 381.462 216.106 381.462H67.6362Z" fill="white"/>
<path d="M216.124 378.181C219.88 378.185 223.481 379.678 226.136 382.331C228.792 384.984 230.286 388.581 230.291 392.333V409.929C230.291 413.684 228.799 417.285 226.143 419.942C223.487 422.599 219.883 424.094 216.124 424.099H67.6363C63.8774 424.094 60.2741 422.599 57.6179 419.942C54.9616 417.285 53.4697 413.684 53.4697 409.929V392.333C53.4744 388.581 54.9685 384.984 57.6243 382.331C60.28 379.678 63.8805 378.185 67.6363 378.181H216.124ZM67.6363 421.268H216.124C219.132 421.264 222.014 420.067 224.139 417.941C226.264 415.815 227.458 412.933 227.458 409.929V392.333C227.453 389.332 226.257 386.455 224.133 384.333C222.009 382.21 219.129 381.016 216.124 381.011H67.6363C64.632 381.016 61.7521 382.21 59.6277 384.333C57.5033 386.455 56.3078 389.332 56.303 392.333V409.929C56.303 412.933 57.4965 415.815 59.6213 417.941C61.7462 420.067 64.6289 421.264 67.6363 421.268ZM216.124 377.279H67.6363C63.6412 377.284 59.8111 378.872 56.9862 381.694C54.1612 384.516 52.5721 388.342 52.5673 392.333V409.929C52.5721 413.921 54.1607 417.749 56.9851 420.574C59.8095 423.399 63.6396 424.991 67.6363 425H216.124C220.121 424.991 223.951 423.399 226.776 420.574C229.6 417.749 231.189 413.921 231.193 409.929V392.333C231.189 388.342 229.599 384.516 226.774 381.694C223.949 378.872 220.119 377.284 216.124 377.279ZM67.6363 420.367C64.8696 420.358 62.2193 419.254 60.2646 417.298C58.31 415.342 57.2101 412.692 57.2053 409.929V392.333C57.2148 389.572 58.3169 386.927 60.271 384.975C62.2251 383.023 64.8728 381.922 67.6363 381.913H216.124C218.888 381.922 221.536 383.023 223.49 384.975C225.444 386.927 226.546 389.572 226.555 392.333V409.929C226.551 412.692 225.451 415.342 223.496 417.298C221.541 419.254 218.891 420.358 216.124 420.367H67.6363Z" fill="#2E3192"/>
<path d="M207.697 405.349C206.861 405.349 206.043 405.101 205.349 404.637C204.654 404.173 204.112 403.513 203.793 402.741C203.474 401.969 203.392 401.12 203.556 400.301C203.721 399.482 204.125 398.731 204.717 398.141C205.309 397.552 206.063 397.152 206.884 396.991C207.704 396.83 208.554 396.916 209.325 397.238C210.096 397.561 210.755 398.104 211.217 398.8C211.678 399.496 211.923 400.314 211.919 401.149C211.915 402.264 211.468 403.333 210.676 404.12C209.885 404.907 208.813 405.349 207.697 405.349Z" fill="#3C8DF4"/>
<path d="M207.696 397.381C208.443 397.377 209.174 397.595 209.797 398.007C210.419 398.419 210.906 399.006 211.194 399.694C211.482 400.383 211.559 401.141 211.416 401.873C211.273 402.605 210.915 403.278 210.388 403.807C209.861 404.335 209.189 404.696 208.457 404.843C207.725 404.99 206.966 404.916 206.275 404.632C205.585 404.347 204.995 403.864 204.58 403.244C204.164 402.624 203.943 401.895 203.943 401.149C203.943 400.153 204.338 399.197 205.041 398.491C205.745 397.785 206.699 397.386 207.696 397.381ZM207.696 396.479C206.772 396.479 205.868 396.753 205.1 397.266C204.331 397.779 203.732 398.509 203.378 399.362C203.024 400.215 202.932 401.154 203.112 402.06C203.293 402.966 203.738 403.798 204.391 404.451C205.045 405.104 205.878 405.548 206.785 405.728C207.691 405.909 208.631 405.816 209.485 405.463C210.339 405.109 211.069 404.511 211.583 403.743C212.096 402.975 212.371 402.072 212.371 401.149C212.371 399.91 211.878 398.723 211.002 397.847C210.125 396.971 208.936 396.479 207.696 396.479Z" fill="#2E3192"/>
<path d="M196.67 405.566C195.791 405.566 194.932 405.305 194.202 404.817C193.471 404.329 192.902 403.635 192.567 402.824C192.231 402.012 192.144 401.12 192.317 400.259C192.49 399.398 192.915 398.608 193.537 397.988C194.16 397.369 194.953 396.948 195.815 396.779C196.677 396.61 197.571 396.7 198.381 397.039C199.192 397.377 199.884 397.948 200.37 398.68C200.856 399.412 201.113 400.271 201.109 401.149C201.105 402.322 200.635 403.445 199.803 404.273C198.971 405.101 197.844 405.566 196.67 405.566ZM196.67 398.066C196.06 398.066 195.463 398.247 194.955 398.586C194.448 398.924 194.052 399.406 193.819 399.969C193.585 400.532 193.524 401.152 193.643 401.75C193.762 402.348 194.056 402.898 194.488 403.329C194.919 403.76 195.469 404.053 196.068 404.172C196.667 404.291 197.287 404.23 197.851 403.997C198.415 403.764 198.897 403.369 199.236 402.862C199.575 402.355 199.756 401.759 199.756 401.149C199.756 400.331 199.431 399.547 198.852 398.969C198.273 398.391 197.488 398.066 196.67 398.066Z" fill="white"/>
<path d="M196.67 397.165C197.459 397.165 198.23 397.398 198.886 397.836C199.542 398.274 200.053 398.896 200.355 399.624C200.657 400.352 200.735 401.153 200.582 401.926C200.428 402.699 200.048 403.409 199.49 403.966C198.932 404.523 198.222 404.903 197.448 405.057C196.674 405.21 195.872 405.131 195.144 404.83C194.415 404.528 193.792 404.018 193.354 403.362C192.916 402.707 192.682 401.937 192.682 401.149C192.682 400.092 193.102 399.079 193.85 398.332C194.598 397.584 195.612 397.165 196.67 397.165ZM196.67 404.664C197.384 404.664 198.082 404.453 198.675 404.057C199.269 403.661 199.731 403.097 200.005 402.439C200.278 401.78 200.349 401.055 200.21 400.355C200.071 399.656 199.727 399.013 199.222 398.509C198.717 398.005 198.074 397.661 197.374 397.522C196.674 397.383 195.948 397.455 195.289 397.728C194.629 398 194.065 398.463 193.669 399.056C193.272 399.648 193.061 400.346 193.061 401.059C193.061 402.015 193.441 402.932 194.118 403.608C194.795 404.285 195.713 404.664 196.67 404.664ZM196.67 396.263C195.703 396.263 194.757 396.55 193.953 397.087C193.149 397.623 192.522 398.386 192.152 399.279C191.781 400.172 191.685 401.154 191.873 402.102C192.062 403.05 192.528 403.92 193.212 404.604C193.896 405.287 194.767 405.752 195.716 405.941C196.665 406.129 197.648 406.032 198.542 405.663C199.435 405.293 200.199 404.667 200.736 403.863C201.274 403.06 201.561 402.115 201.561 401.149C201.561 399.853 201.045 398.61 200.128 397.694C199.211 396.778 197.967 396.263 196.67 396.263ZM196.67 403.763C196.148 403.763 195.638 403.608 195.204 403.318C194.771 403.028 194.433 402.616 194.234 402.134C194.035 401.652 193.984 401.122 194.087 400.611C194.19 400.1 194.443 399.631 194.813 399.263C195.184 398.896 195.655 398.647 196.167 398.547C196.679 398.448 197.21 398.502 197.691 398.704C198.172 398.906 198.582 399.246 198.87 399.682C199.157 400.117 199.308 400.628 199.305 401.149C199.305 401.494 199.236 401.835 199.104 402.153C198.971 402.472 198.777 402.761 198.532 403.004C198.287 403.247 197.996 403.439 197.677 403.569C197.357 403.7 197.015 403.765 196.67 403.763Z" fill="#2E3192"/>
<path d="M185.643 405.349C184.807 405.353 183.988 405.108 183.291 404.646C182.593 404.184 182.049 403.525 181.727 402.753C181.406 401.982 181.32 401.132 181.483 400.312C181.645 399.492 182.048 398.739 182.639 398.148C183.231 397.557 183.985 397.154 184.806 396.992C185.627 396.83 186.477 396.915 187.25 397.237C188.022 397.558 188.682 398.102 189.144 398.798C189.607 399.495 189.852 400.313 189.848 401.149C189.844 402.261 189.399 403.327 188.612 404.114C187.824 404.9 186.757 405.345 185.643 405.349Z" fill="#3C8DF4"/>
<path d="M185.643 397.381C186.389 397.381 187.119 397.602 187.739 398.016C188.359 398.43 188.843 399.018 189.128 399.707C189.414 400.395 189.488 401.153 189.343 401.884C189.197 402.615 188.838 403.286 188.31 403.813C187.783 404.34 187.111 404.699 186.379 404.844C185.648 404.99 184.889 404.915 184.2 404.63C183.511 404.345 182.922 403.862 182.507 403.242C182.093 402.623 181.872 401.894 181.872 401.149C181.869 400.653 181.965 400.162 182.154 399.704C182.343 399.246 182.62 398.83 182.971 398.479C183.322 398.129 183.739 397.851 184.197 397.663C184.656 397.474 185.147 397.379 185.643 397.381ZM185.643 396.48C184.718 396.476 183.813 396.747 183.042 397.258C182.271 397.769 181.669 398.497 181.312 399.349C180.956 400.202 180.861 401.142 181.039 402.049C181.217 402.956 181.661 403.789 182.314 404.444C182.967 405.099 183.8 405.545 184.707 405.727C185.614 405.909 186.555 405.817 187.41 405.464C188.265 405.112 188.996 404.513 189.511 403.745C190.025 402.977 190.299 402.073 190.299 401.149C190.3 399.914 189.81 398.729 188.937 397.853C188.064 396.978 186.88 396.484 185.643 396.48Z" fill="#2E3192"/>
<path d="M174.599 405.566C173.72 405.566 172.861 405.305 172.131 404.817C171.4 404.329 170.831 403.635 170.496 402.824C170.16 402.012 170.073 401.12 170.246 400.259C170.419 399.398 170.843 398.608 171.466 397.988C172.089 397.369 172.882 396.948 173.744 396.779C174.606 396.61 175.499 396.7 176.31 397.039C177.121 397.377 177.813 397.948 178.299 398.68C178.785 399.412 179.042 400.271 179.038 401.149C179.034 402.322 178.564 403.445 177.732 404.273C176.9 405.101 175.773 405.566 174.599 405.566ZM174.599 398.066C173.989 398.066 173.392 398.247 172.884 398.586C172.377 398.924 171.981 399.406 171.748 399.969C171.514 400.532 171.453 401.152 171.572 401.75C171.691 402.348 171.985 402.898 172.417 403.329C172.848 403.76 173.398 404.053 173.997 404.172C174.595 404.291 175.216 404.23 175.78 403.997C176.344 403.764 176.826 403.369 177.165 402.862C177.504 402.355 177.685 401.759 177.685 401.149C177.685 400.331 177.36 399.547 176.781 398.969C176.202 398.391 175.417 398.066 174.599 398.066Z" fill="white"/>
<path d="M174.599 397.165C175.388 397.165 176.159 397.398 176.815 397.836C177.471 398.274 177.982 398.896 178.284 399.624C178.585 400.352 178.664 401.153 178.511 401.926C178.357 402.699 177.977 403.409 177.419 403.966C176.861 404.523 176.151 404.903 175.377 405.057C174.603 405.21 173.801 405.131 173.073 404.83C172.344 404.528 171.721 404.018 171.283 403.362C170.844 402.707 170.611 401.937 170.611 401.149C170.611 400.092 171.031 399.079 171.779 398.332C172.527 397.584 173.541 397.165 174.599 397.165ZM174.599 404.664C175.313 404.664 176.011 404.453 176.604 404.057C177.198 403.661 177.66 403.097 177.933 402.439C178.207 401.78 178.278 401.055 178.139 400.355C178 399.656 177.656 399.013 177.151 398.509C176.646 398.005 176.003 397.661 175.303 397.522C174.603 397.383 173.877 397.455 173.218 397.728C172.558 398 171.994 398.463 171.598 399.056C171.201 399.648 170.99 400.346 170.99 401.059C170.99 402.015 171.37 402.932 172.047 403.608C172.724 404.285 173.642 404.664 174.599 404.664ZM174.599 396.263C173.632 396.263 172.686 396.55 171.882 397.087C171.078 397.623 170.451 398.386 170.081 399.279C169.71 400.172 169.614 401.154 169.802 402.102C169.991 403.05 170.457 403.92 171.141 404.604C171.825 405.287 172.696 405.752 173.645 405.941C174.593 406.129 175.577 406.032 176.47 405.663C177.364 405.293 178.128 404.667 178.665 403.863C179.203 403.06 179.49 402.115 179.49 401.149C179.49 399.853 178.974 398.61 178.057 397.694C177.14 396.778 175.896 396.263 174.599 396.263ZM174.599 403.763C174.077 403.763 173.567 403.608 173.133 403.318C172.7 403.028 172.362 402.616 172.163 402.134C171.964 401.652 171.913 401.122 172.016 400.611C172.119 400.1 172.372 399.631 172.742 399.263C173.113 398.896 173.584 398.647 174.096 398.547C174.608 398.448 175.139 398.502 175.62 398.704C176.101 398.906 176.511 399.246 176.798 399.682C177.086 400.117 177.237 400.628 177.234 401.149C177.229 401.844 176.949 402.509 176.456 402.998C175.962 403.488 175.295 403.763 174.599 403.763Z" fill="#2E3192"/>
<path d="M161.425 405.566C160.546 405.566 159.687 405.305 158.957 404.817C158.226 404.329 157.657 403.635 157.322 402.824C156.986 402.012 156.899 401.12 157.072 400.259C157.245 399.398 157.669 398.608 158.292 397.988C158.915 397.369 159.707 396.948 160.57 396.779C161.432 396.61 162.325 396.7 163.136 397.039C163.947 397.377 164.639 397.948 165.125 398.68C165.611 399.412 165.868 400.271 165.864 401.149C165.864 401.73 165.749 402.306 165.526 402.843C165.303 403.38 164.975 403.868 164.563 404.278C164.15 404.689 163.661 405.014 163.122 405.235C162.584 405.456 162.007 405.568 161.425 405.566ZM161.425 398.066C160.815 398.066 160.218 398.247 159.71 398.586C159.203 398.924 158.807 399.406 158.574 399.969C158.34 400.532 158.279 401.152 158.398 401.75C158.517 402.348 158.811 402.898 159.243 403.329C159.674 403.76 160.224 404.053 160.823 404.172C161.421 404.291 162.042 404.23 162.606 403.997C163.17 403.764 163.652 403.369 163.991 402.862C164.33 402.355 164.511 401.759 164.511 401.149C164.513 400.743 164.435 400.341 164.281 399.966C164.127 399.591 163.899 399.25 163.612 398.964C163.325 398.677 162.984 398.45 162.609 398.296C162.233 398.142 161.831 398.064 161.425 398.066Z" fill="white"/>
<path d="M161.425 397.165C162.214 397.161 162.987 397.392 163.645 397.827C164.304 398.263 164.818 398.884 165.122 399.612C165.427 400.339 165.509 401.141 165.357 401.915C165.205 402.689 164.826 403.401 164.269 403.96C163.712 404.519 163.002 404.9 162.228 405.055C161.453 405.21 160.651 405.133 159.921 404.832C159.191 404.531 158.567 404.02 158.128 403.364C157.689 402.709 157.455 401.938 157.455 401.149C157.455 400.095 157.872 399.085 158.616 398.338C159.36 397.591 160.37 397.169 161.425 397.165ZM161.425 404.664C162.142 404.682 162.849 404.486 163.454 404.101C164.059 403.716 164.536 403.159 164.823 402.502C165.11 401.845 165.195 401.117 165.066 400.412C164.937 399.707 164.6 399.056 164.099 398.543C163.598 398.029 162.956 397.677 162.253 397.53C161.551 397.384 160.82 397.45 160.155 397.72C159.491 397.99 158.922 398.452 158.521 399.047C158.12 399.641 157.906 400.342 157.906 401.059C157.894 401.528 157.976 401.995 158.147 402.432C158.319 402.869 158.576 403.267 158.904 403.603C159.232 403.939 159.624 404.206 160.057 404.388C160.49 404.571 160.955 404.665 161.425 404.664ZM161.425 396.263C160.458 396.263 159.512 396.55 158.708 397.087C157.903 397.623 157.277 398.387 156.906 399.279C156.536 400.172 156.439 401.154 156.628 402.102C156.817 403.05 157.283 403.92 157.967 404.604C158.651 405.287 159.522 405.752 160.471 405.941C161.419 406.129 162.403 406.032 163.296 405.663C164.19 405.293 164.954 404.667 165.491 403.863C166.029 403.06 166.315 402.115 166.315 401.149C166.318 400.507 166.193 399.87 165.948 399.276C165.703 398.683 165.343 398.143 164.888 397.689C164.434 397.235 163.894 396.875 163.299 396.63C162.705 396.386 162.068 396.261 161.425 396.263ZM161.425 403.763C160.903 403.763 160.393 403.608 159.959 403.318C159.525 403.028 159.188 402.616 158.989 402.134C158.79 401.652 158.739 401.122 158.842 400.611C158.945 400.1 159.198 399.631 159.568 399.263C159.938 398.896 160.41 398.647 160.922 398.547C161.434 398.448 161.965 398.502 162.446 398.704C162.927 398.906 163.337 399.246 163.624 399.682C163.912 400.117 164.063 400.628 164.06 401.149C164.06 401.494 163.991 401.835 163.859 402.153C163.726 402.472 163.532 402.761 163.287 403.004C163.042 403.247 162.751 403.439 162.432 403.569C162.112 403.7 161.77 403.765 161.425 403.763Z" fill="#2E3192"/>
<path d="M75.4324 403.925C75.0426 403.956 74.6505 403.906 74.2808 403.779C73.9111 403.651 73.5719 403.448 73.2846 403.183C72.9972 402.918 72.7679 402.596 72.611 402.239C72.4542 401.881 72.3732 401.494 72.3732 401.103C72.3732 400.713 72.4542 400.326 72.611 399.968C72.7679 399.61 72.9972 399.289 73.2846 399.024C73.5719 398.759 73.9111 398.556 74.2808 398.428C74.6505 398.301 75.0426 398.251 75.4324 398.282H124.574C124.963 398.251 125.356 398.301 125.725 398.428C126.095 398.556 126.434 398.759 126.721 399.024C127.009 399.289 127.238 399.61 127.395 399.968C127.552 400.326 127.633 400.713 127.633 401.103C127.633 401.494 127.552 401.881 127.395 402.239C127.238 402.596 127.009 402.918 126.721 403.183C126.434 403.448 126.095 403.651 125.725 403.779C125.356 403.906 124.963 403.956 124.574 403.925H75.4324Z" fill="#3C8DF4"/>
<path d="M124.574 398.769C125.205 398.769 125.811 399.02 126.258 399.466C126.705 399.912 126.956 400.518 126.956 401.149C126.956 401.78 126.705 402.385 126.258 402.832C125.811 403.278 125.205 403.529 124.574 403.529H75.4324C74.8006 403.529 74.1947 403.278 73.748 402.832C73.3012 402.385 73.0503 401.78 73.0503 401.149C73.0503 400.518 73.3012 399.912 73.748 399.466C74.1947 399.02 74.8006 398.769 75.4324 398.769H124.574ZM124.574 397.868H75.4324C74.5613 397.868 73.7259 398.213 73.11 398.829C72.494 399.444 72.1479 400.279 72.1479 401.149C72.1479 402.019 72.494 402.854 73.11 403.469C73.7259 404.084 74.5613 404.43 75.4324 404.43H124.574C125.445 404.43 126.28 404.084 126.896 403.469C127.512 402.854 127.858 402.019 127.858 401.149C127.858 400.279 127.512 399.444 126.896 398.829C126.28 398.213 125.445 397.868 124.574 397.868Z" fill="#2E3192"/>
<path d="M216.106 471.009H67.6363C60.3405 471.009 54.4261 476.917 54.4261 484.206V501.801C54.4261 509.09 60.3405 514.998 67.6363 514.998H216.106C223.402 514.998 229.316 509.09 229.316 501.801V484.206C229.316 476.917 223.402 471.009 216.106 471.009Z" fill="white"/>
<path d="M216.124 471.459C219.508 471.459 222.753 472.802 225.146 475.192C227.539 477.583 228.883 480.825 228.883 484.205V501.783C228.883 505.163 227.539 508.405 225.146 510.796C222.753 513.186 219.508 514.529 216.124 514.529H67.6363C64.2524 514.529 61.007 513.186 58.6143 510.796C56.2215 508.405 54.8772 505.163 54.8772 501.783V484.205C54.8772 480.825 56.2215 477.583 58.6143 475.192C61.007 472.802 64.2524 471.459 67.6363 471.459H216.124ZM216.124 470.558H67.6363C64.0145 470.562 60.5425 472.002 57.9815 474.56C55.4205 477.118 53.9797 480.587 53.9749 484.205V501.783C53.9797 505.401 55.4205 508.869 57.9815 511.428C60.5425 513.986 64.0145 515.425 67.6363 515.43H216.124C219.746 515.425 223.218 513.986 225.779 511.428C228.34 508.869 229.781 505.401 229.786 501.783V484.205C229.781 480.587 228.34 477.118 225.779 474.56C223.218 472.002 219.746 470.562 216.124 470.558Z" fill="#2E3192"/>
<path d="M67.6362 516.404C63.7577 516.399 60.0396 514.857 57.2988 512.115C54.5579 509.374 53.0184 505.658 53.0184 501.783V484.187C53.0184 480.314 54.5585 476.6 57.2999 473.862C60.0413 471.123 63.7594 469.584 67.6362 469.584H216.106C219.985 469.584 223.705 471.122 226.449 473.86C229.193 476.599 230.737 480.313 230.742 484.187V501.783C230.742 503.703 230.363 505.604 229.628 507.378C228.892 509.152 227.814 510.764 226.455 512.122C225.096 513.479 223.483 514.556 221.707 515.291C219.931 516.026 218.028 516.404 216.106 516.404H67.6362ZM67.6362 473.316C64.7645 473.316 62.0103 474.456 59.9797 476.485C57.949 478.513 56.8082 481.264 56.8082 484.133V501.729C56.8082 504.598 57.949 507.349 59.9797 509.378C62.0103 511.406 64.7645 512.546 67.6362 512.546H216.106C218.978 512.546 221.732 511.406 223.763 509.378C225.793 507.349 226.934 504.598 226.934 501.729V484.133C226.934 481.264 225.793 478.513 223.763 476.485C221.732 474.456 218.978 473.316 216.106 473.316H67.6362Z" fill="white"/>
<path d="M216.124 470.035C219.88 470.04 223.481 471.533 226.136 474.186C228.792 476.839 230.286 480.435 230.291 484.187V501.783C230.291 505.538 228.799 509.14 226.143 511.797C223.487 514.454 219.883 515.949 216.124 515.953H67.6363C63.8774 515.949 60.2741 514.454 57.6179 511.797C54.9616 509.14 53.4697 505.538 53.4697 501.783V484.187C53.4744 480.435 54.9685 476.839 57.6243 474.186C60.28 471.533 63.8805 470.04 67.6363 470.035H216.124ZM67.6363 513.123H216.124C219.132 513.118 222.014 511.921 224.139 509.795C226.264 507.669 227.458 504.787 227.458 501.783V484.187C227.453 481.186 226.257 478.309 224.133 476.187C222.009 474.065 219.129 472.87 216.124 472.866H67.6363C64.632 472.87 61.7521 474.065 59.6277 476.187C57.5033 478.309 56.3078 481.186 56.303 484.187V501.783C56.303 504.787 57.4965 507.669 59.6213 509.795C61.7462 511.921 64.6289 513.118 67.6363 513.123ZM216.124 469.134H67.6363C63.6412 469.139 59.8111 470.726 56.9862 473.548C54.1612 476.37 52.5721 480.196 52.5673 484.187V501.783C52.5721 505.776 54.1607 509.604 56.9851 512.429C59.8095 515.254 63.6396 516.845 67.6363 516.855H216.124C220.121 516.845 223.951 515.254 226.776 512.429C229.6 509.604 231.189 505.776 231.193 501.783V484.187C231.189 480.196 229.599 476.37 226.774 473.548C223.949 470.726 220.119 469.139 216.124 469.134ZM67.6363 512.222C64.8696 512.212 62.2193 511.109 60.2646 509.153C58.31 507.197 57.2101 504.547 57.2053 501.783V484.187C57.2148 481.427 58.3169 478.782 60.271 476.83C62.2251 474.877 64.8728 473.777 67.6363 473.767H216.124C218.888 473.777 221.536 474.877 223.49 476.83C225.444 478.782 226.546 481.427 226.555 484.187V501.783C226.551 504.547 225.451 507.197 223.496 509.153C221.541 511.109 218.891 512.212 216.124 512.222H67.6363Z" fill="#2E3192"/>
<path d="M207.696 497.204C206.861 497.204 206.045 496.956 205.35 496.493C204.656 496.029 204.115 495.371 203.795 494.6C203.475 493.829 203.392 492.981 203.555 492.162C203.718 491.344 204.12 490.592 204.71 490.002C205.301 489.412 206.053 489.01 206.873 488.848C207.692 488.685 208.541 488.768 209.313 489.088C210.084 489.407 210.744 489.948 211.208 490.642C211.672 491.335 211.919 492.151 211.919 492.985C211.919 494.104 211.474 495.177 210.683 495.968C209.891 496.759 208.816 497.204 207.696 497.204Z" fill="#3C8DF4"/>
<path d="M207.696 489.235C208.443 489.232 209.174 489.45 209.797 489.862C210.419 490.273 210.906 490.861 211.194 491.549C211.482 492.237 211.559 492.995 211.416 493.727C211.273 494.459 210.915 495.132 210.388 495.661C209.861 496.19 209.189 496.551 208.457 496.697C207.725 496.844 206.966 496.771 206.275 496.486C205.585 496.201 204.995 495.719 204.58 495.099C204.164 494.478 203.943 493.749 203.943 493.003C203.943 492.007 204.338 491.051 205.041 490.345C205.745 489.639 206.699 489.24 207.696 489.235ZM207.696 488.334C206.772 488.334 205.868 488.608 205.1 489.121C204.331 489.634 203.732 490.363 203.378 491.216C203.024 492.07 202.932 493.008 203.112 493.914C203.293 494.82 203.738 495.652 204.391 496.305C205.045 496.958 205.878 497.403 206.785 497.583C207.691 497.763 208.631 497.671 209.485 497.317C210.339 496.964 211.069 496.365 211.583 495.597C212.096 494.83 212.371 493.927 212.371 493.003C212.371 491.765 211.878 490.577 211.002 489.702C210.125 488.826 208.936 488.334 207.696 488.334Z" fill="#2E3192"/>
<path d="M196.67 497.42C195.792 497.42 194.934 497.16 194.204 496.673C193.473 496.185 192.904 495.493 192.568 494.682C192.232 493.872 192.144 492.98 192.316 492.12C192.487 491.26 192.91 490.47 193.531 489.849C194.152 489.229 194.943 488.807 195.804 488.636C196.665 488.464 197.558 488.552 198.369 488.888C199.18 489.224 199.873 489.792 200.361 490.521C200.849 491.251 201.109 492.108 201.109 492.985C201.109 493.568 200.995 494.144 200.772 494.682C200.548 495.221 200.221 495.709 199.809 496.121C199.397 496.533 198.908 496.86 198.369 497.083C197.83 497.306 197.253 497.42 196.67 497.42ZM196.67 489.92C196.059 489.92 195.461 490.102 194.954 490.441C194.446 490.781 194.05 491.263 193.817 491.828C193.584 492.392 193.524 493.013 193.645 493.611C193.765 494.21 194.061 494.759 194.494 495.19C194.928 495.62 195.479 495.912 196.079 496.029C196.679 496.146 197.3 496.082 197.863 495.846C198.427 495.61 198.908 495.212 199.245 494.703C199.582 494.194 199.76 493.596 199.756 492.985C199.751 492.171 199.424 491.391 198.846 490.817C198.268 490.243 197.485 489.92 196.67 489.92Z" fill="white"/>
<path d="M196.67 489.019C197.46 489.019 198.231 489.253 198.888 489.692C199.544 490.13 200.055 490.754 200.356 491.483C200.658 492.212 200.736 493.014 200.58 493.787C200.425 494.561 200.043 495.271 199.484 495.827C198.924 496.383 198.212 496.761 197.437 496.913C196.662 497.065 195.86 496.983 195.131 496.679C194.403 496.375 193.781 495.861 193.345 495.204C192.909 494.546 192.678 493.774 192.682 492.985C192.686 491.932 193.109 490.923 193.856 490.18C194.604 489.436 195.615 489.019 196.67 489.019ZM196.67 496.519C197.384 496.519 198.082 496.307 198.675 495.911C199.269 495.515 199.731 494.952 200.005 494.293C200.278 493.634 200.349 492.909 200.21 492.21C200.071 491.51 199.727 490.868 199.222 490.364C198.717 489.859 198.074 489.516 197.374 489.377C196.674 489.238 195.948 489.309 195.289 489.582C194.629 489.855 194.066 490.317 193.669 490.91C193.272 491.503 193.061 492.2 193.061 492.913C193.061 493.869 193.441 494.787 194.118 495.463C194.795 496.139 195.713 496.519 196.67 496.519ZM196.67 488.118C195.702 488.118 194.756 488.405 193.951 488.942C193.146 489.48 192.52 490.244 192.15 491.138C191.78 492.032 191.684 493.015 191.875 493.963C192.065 494.911 192.532 495.782 193.218 496.464C193.904 497.147 194.777 497.611 195.727 497.797C196.677 497.984 197.661 497.884 198.554 497.512C199.447 497.139 200.21 496.51 200.745 495.705C201.28 494.899 201.564 493.952 201.561 492.985C201.556 491.693 201.038 490.455 200.122 489.542C199.205 488.63 197.964 488.118 196.67 488.118ZM196.67 495.617C196.149 495.617 195.639 495.463 195.206 495.174C194.773 494.885 194.435 494.473 194.236 493.993C194.036 493.512 193.984 492.982 194.086 492.472C194.187 491.961 194.438 491.492 194.807 491.124C195.175 490.756 195.645 490.505 196.156 490.404C196.667 490.302 197.197 490.354 197.678 490.554C198.16 490.753 198.571 491.09 198.861 491.523C199.15 491.956 199.305 492.465 199.305 492.985C199.305 493.683 199.027 494.353 198.533 494.846C198.039 495.34 197.369 495.617 196.67 495.617Z" fill="#2E3192"/>
<path d="M185.644 497.42C184.763 497.434 183.897 497.187 183.158 496.708C182.418 496.229 181.838 495.542 181.491 494.733C181.144 493.924 181.045 493.03 181.209 492.165C181.372 491.3 181.789 490.503 182.406 489.876C183.024 489.248 183.815 488.818 184.678 488.641C185.541 488.464 186.438 488.548 187.253 488.881C188.069 489.215 188.766 489.783 189.257 490.514C189.748 491.245 190.011 492.105 190.011 492.985C190.011 494.149 189.553 495.266 188.736 496.096C187.919 496.926 186.808 497.401 185.644 497.42ZM185.644 489.92C185.032 489.92 184.435 490.102 183.927 490.441C183.419 490.781 183.024 491.263 182.791 491.828C182.558 492.392 182.498 493.013 182.618 493.611C182.739 494.21 183.034 494.759 183.468 495.189C183.901 495.62 184.453 495.912 185.053 496.029C185.652 496.146 186.273 496.082 186.837 495.846C187.401 495.61 187.881 495.212 188.218 494.703C188.555 494.193 188.733 493.596 188.729 492.985C188.729 492.581 188.65 492.181 188.494 491.808C188.339 491.435 188.111 491.096 187.825 490.812C187.538 490.527 187.197 490.301 186.823 490.148C186.449 489.996 186.048 489.918 185.644 489.92Z" fill="white"/>
<path d="M185.643 489.019C186.433 489.019 187.205 489.253 187.861 489.691C188.517 490.13 189.029 490.753 189.33 491.482C189.631 492.211 189.709 493.013 189.554 493.787C189.398 494.56 189.017 495.27 188.457 495.827C187.898 496.383 187.185 496.761 186.41 496.913C185.636 497.064 184.833 496.983 184.105 496.679C183.376 496.374 182.755 495.861 182.319 495.203C181.882 494.546 181.652 493.774 181.655 492.985C181.66 491.931 182.082 490.922 182.83 490.179C183.577 489.436 184.589 489.019 185.643 489.019ZM185.643 496.518C186.357 496.518 187.055 496.307 187.649 495.911C188.242 495.515 188.705 494.951 188.978 494.293C189.251 493.634 189.323 492.909 189.183 492.209C189.044 491.51 188.7 490.867 188.196 490.363C187.691 489.859 187.048 489.515 186.348 489.376C185.647 489.237 184.922 489.309 184.262 489.582C183.603 489.854 183.039 490.317 182.642 490.91C182.246 491.502 182.034 492.2 182.034 492.913C182.022 493.39 182.107 493.864 182.284 494.307C182.461 494.75 182.726 495.153 183.064 495.49C183.401 495.827 183.804 496.092 184.248 496.269C184.691 496.446 185.166 496.531 185.643 496.518ZM185.643 488.117C184.675 488.114 183.727 488.398 182.92 488.933C182.113 489.469 181.483 490.231 181.111 491.125C180.738 492.018 180.64 493.002 180.828 493.952C181.016 494.901 181.482 495.773 182.167 496.458C182.852 497.142 183.725 497.608 184.676 497.795C185.626 497.983 186.611 497.885 187.505 497.513C188.4 497.141 189.163 496.512 189.699 495.706C190.235 494.9 190.52 493.953 190.516 492.985C190.516 491.694 190.003 490.456 189.089 489.543C188.175 488.63 186.936 488.117 185.643 488.117ZM185.643 495.617C185.12 495.631 184.603 495.489 184.16 495.209C183.718 494.929 183.369 494.523 183.158 494.043C182.948 493.564 182.885 493.032 182.979 492.517C183.072 492.002 183.317 491.526 183.682 491.151C184.048 490.775 184.517 490.517 185.03 490.41C185.543 490.302 186.077 490.35 186.562 490.547C187.048 490.744 187.464 491.081 187.757 491.515C188.049 491.95 188.206 492.461 188.206 492.985C188.206 493.68 187.931 494.347 187.441 494.84C186.951 495.333 186.285 495.612 185.589 495.617H185.643Z" fill="#2E3192"/>
<path d="M174.599 497.42C173.721 497.42 172.863 497.16 172.132 496.673C171.402 496.185 170.833 495.493 170.497 494.682C170.161 493.872 170.073 492.98 170.245 492.12C170.416 491.26 170.839 490.47 171.46 489.849C172.081 489.229 172.872 488.807 173.733 488.636C174.594 488.464 175.487 488.552 176.298 488.888C177.109 489.224 177.802 489.792 178.29 490.521C178.778 491.251 179.038 492.108 179.038 492.985C179.038 493.568 178.924 494.144 178.7 494.682C178.477 495.221 178.15 495.709 177.738 496.121C177.326 496.533 176.836 496.86 176.298 497.083C175.759 497.306 175.182 497.42 174.599 497.42ZM174.599 489.92C173.988 489.92 173.39 490.102 172.883 490.441C172.375 490.781 171.979 491.263 171.746 491.828C171.513 492.392 171.453 493.013 171.574 493.611C171.694 494.21 171.99 494.759 172.423 495.19C172.857 495.62 173.408 495.912 174.008 496.029C174.608 496.146 175.229 496.082 175.792 495.846C176.356 495.61 176.837 495.212 177.174 494.703C177.51 494.194 177.688 493.596 177.685 492.985C177.68 492.171 177.353 491.391 176.775 490.817C176.196 490.243 175.414 489.92 174.599 489.92Z" fill="white"/>
<path d="M174.599 489.019C175.388 489.019 176.16 489.253 176.817 489.692C177.473 490.13 177.984 490.754 178.285 491.483C178.587 492.212 178.665 493.014 178.509 493.787C178.354 494.561 177.972 495.271 177.413 495.827C176.853 496.383 176.141 496.761 175.366 496.913C174.591 497.065 173.789 496.983 173.06 496.679C172.332 496.375 171.71 495.861 171.274 495.204C170.838 494.546 170.607 493.774 170.611 492.985C170.615 491.932 171.038 490.923 171.785 490.18C172.533 489.436 173.544 489.019 174.599 489.019ZM174.599 496.519C175.313 496.519 176.011 496.307 176.604 495.911C177.198 495.515 177.66 494.952 177.933 494.293C178.207 493.634 178.278 492.909 178.139 492.21C178 491.51 177.656 490.868 177.151 490.364C176.646 489.859 176.003 489.516 175.303 489.377C174.603 489.238 173.877 489.309 173.218 489.582C172.558 489.855 171.994 490.317 171.598 490.91C171.201 491.503 170.99 492.2 170.99 492.913C170.99 493.869 171.37 494.787 172.047 495.463C172.724 496.139 173.642 496.519 174.599 496.519ZM174.599 488.118C173.631 488.118 172.685 488.405 171.88 488.942C171.075 489.48 170.448 490.244 170.079 491.138C169.709 492.032 169.613 493.015 169.804 493.963C169.994 494.911 170.461 495.782 171.147 496.464C171.833 497.147 172.706 497.611 173.656 497.797C174.606 497.984 175.59 497.884 176.483 497.512C177.376 497.139 178.139 496.51 178.674 495.705C179.209 494.899 179.493 493.952 179.49 492.985C179.485 491.693 178.967 490.455 178.051 489.542C177.134 488.63 175.893 488.118 174.599 488.118ZM174.599 495.617C174.078 495.617 173.568 495.463 173.135 495.174C172.702 494.885 172.364 494.473 172.165 493.993C171.965 493.512 171.913 492.982 172.015 492.472C172.116 491.961 172.367 491.492 172.736 491.124C173.104 490.756 173.574 490.505 174.085 490.404C174.596 490.302 175.126 490.354 175.607 490.554C176.089 490.753 176.5 491.09 176.79 491.523C177.079 491.956 177.234 492.465 177.234 492.985C177.234 493.683 176.956 494.353 176.462 494.846C175.968 495.34 175.298 495.617 174.599 495.617Z" fill="#2E3192"/>
<path d="M161.425 497.204C160.59 497.204 159.773 496.956 159.079 496.493C158.384 496.029 157.843 495.371 157.523 494.6C157.204 493.829 157.12 492.981 157.283 492.162C157.446 491.344 157.848 490.592 158.439 490.002C159.029 489.412 159.782 489.01 160.601 488.848C161.42 488.685 162.269 488.768 163.041 489.088C163.813 489.407 164.472 489.948 164.936 490.642C165.4 491.335 165.648 492.151 165.648 492.985C165.648 494.104 165.203 495.177 164.411 495.968C163.619 496.759 162.545 497.204 161.425 497.204Z" fill="#3C8DF4"/>
<path d="M161.425 489.235C162.172 489.232 162.903 489.45 163.525 489.862C164.148 490.273 164.634 490.861 164.922 491.549C165.211 492.237 165.288 492.995 165.144 493.727C165.001 494.459 164.643 495.132 164.116 495.661C163.59 496.19 162.918 496.551 162.185 496.697C161.453 496.844 160.694 496.771 160.004 496.486C159.313 496.201 158.723 495.719 158.308 495.099C157.893 494.478 157.671 493.749 157.671 493.003C157.669 492.509 157.764 492.02 157.952 491.563C158.139 491.106 158.415 490.69 158.764 490.34C159.113 489.99 159.528 489.712 159.984 489.523C160.441 489.333 160.93 489.235 161.425 489.235ZM161.425 488.334C160.5 488.334 159.597 488.608 158.828 489.121C158.059 489.634 157.46 490.363 157.107 491.216C156.753 492.07 156.66 493.008 156.841 493.914C157.021 494.82 157.466 495.652 158.12 496.305C158.773 496.958 159.606 497.403 160.513 497.583C161.42 497.763 162.359 497.671 163.214 497.317C164.068 496.964 164.798 496.365 165.311 495.597C165.825 494.83 166.099 493.927 166.099 493.003C166.099 491.765 165.606 490.577 164.73 489.702C163.853 488.826 162.664 488.334 161.425 488.334Z" fill="#2E3192"/>
<path d="M75.4324 495.87C75.0426 495.901 74.6505 495.851 74.2808 495.723C73.9111 495.596 73.5719 495.393 73.2846 495.128C72.9972 494.863 72.7679 494.541 72.611 494.183C72.4542 493.825 72.3732 493.439 72.3732 493.048C72.3732 492.658 72.4542 492.271 72.611 491.913C72.7679 491.555 72.9972 491.234 73.2846 490.969C73.5719 490.704 73.9111 490.501 74.2808 490.373C74.6505 490.245 75.0426 490.196 75.4324 490.227H124.574C124.963 490.196 125.356 490.245 125.725 490.373C126.095 490.501 126.434 490.704 126.721 490.969C127.009 491.234 127.238 491.555 127.395 491.913C127.552 492.271 127.633 492.658 127.633 493.048C127.633 493.439 127.552 493.825 127.395 494.183C127.238 494.541 127.009 494.863 126.721 495.128C126.434 495.393 126.095 495.596 125.725 495.723C125.356 495.851 124.963 495.901 124.574 495.87H75.4324Z" fill="#3C8DF4"/>
<path d="M124.574 490.606C125.172 490.657 125.729 490.932 126.135 491.374C126.541 491.816 126.766 492.394 126.766 492.994C126.766 493.594 126.541 494.172 126.135 494.615C125.729 495.057 125.172 495.331 124.574 495.383H75.4324C74.8341 495.331 74.277 495.057 73.8712 494.615C73.4653 494.172 73.2401 493.594 73.2401 492.994C73.2401 492.394 73.4653 491.816 73.8712 491.374C74.277 490.932 74.8341 490.657 75.4324 490.606H124.574ZM124.574 489.704H75.4324C74.601 489.766 73.8237 490.139 73.2564 490.749C72.6891 491.359 72.3738 492.161 72.3738 492.994C72.3738 493.827 72.6891 494.629 73.2564 495.239C73.8237 495.85 74.601 496.223 75.4324 496.284H124.574C125.405 496.223 126.182 495.85 126.75 495.239C127.317 494.629 127.632 493.827 127.632 492.994C127.632 492.161 127.317 491.359 126.75 490.749C126.182 490.139 125.405 489.766 124.574 489.704Z" fill="#2E3192"/>
<path d="M216.106 425.072H67.6363C60.3405 425.072 54.4261 430.981 54.4261 438.269V455.865C54.4261 463.153 60.3405 469.061 67.6363 469.061H216.106C223.402 469.061 229.316 463.153 229.316 455.865V438.269C229.316 430.981 223.402 425.072 216.106 425.072Z" fill="white"/>
<path d="M216.124 425.559C219.507 425.564 222.749 426.908 225.141 429.298C227.533 431.687 228.878 434.926 228.883 438.305V455.901C228.878 459.28 227.533 462.519 225.141 464.908C222.749 467.298 219.507 468.642 216.124 468.647H67.6363C64.2538 468.642 61.0113 467.298 58.6196 464.908C56.2278 462.519 54.882 459.28 54.8772 455.901V438.305C54.882 434.926 56.2278 431.687 58.6196 429.298C61.0113 426.908 64.2538 425.564 67.6363 425.559H216.124ZM216.124 424.658H67.6363C64.0145 424.662 60.5425 426.102 57.9815 428.66C55.4205 431.219 53.9797 434.687 53.9749 438.305V455.901C53.9797 459.519 55.4205 462.987 57.9815 465.546C60.5425 468.104 64.0145 469.544 67.6363 469.548H216.124C219.746 469.544 223.218 468.104 225.779 465.546C228.34 462.987 229.781 459.519 229.786 455.901V438.305C229.781 434.687 228.34 431.219 225.779 428.66C223.218 426.102 219.746 424.662 216.124 424.658Z" fill="#2E3192"/>
<path d="M67.6362 470.486C63.7577 470.481 60.0396 468.938 57.2988 466.197C54.5579 463.455 53.0184 459.739 53.0184 455.865V438.269C53.0184 434.394 54.5579 430.678 57.2988 427.937C60.0396 425.195 63.7577 423.653 67.6362 423.648H216.106C219.986 423.653 223.706 425.195 226.45 427.936C229.194 430.677 230.737 434.393 230.742 438.269V455.865C230.737 459.741 229.194 463.457 226.45 466.198C223.706 468.939 219.986 470.481 216.106 470.486H67.6362ZM67.6362 427.398C64.7645 427.398 62.0103 428.538 59.9797 430.566C57.949 432.595 56.8082 435.346 56.8082 438.215V455.811C56.8082 458.679 57.949 461.431 59.9797 463.459C62.0103 465.488 64.7645 466.628 67.6362 466.628H216.106C218.978 466.628 221.732 465.488 223.763 463.459C225.793 461.431 226.934 458.679 226.934 455.811V438.215C226.934 435.346 225.793 432.595 223.763 430.566C221.732 428.538 218.978 427.398 216.106 427.398H67.6362Z" fill="white"/>
<path d="M216.124 424.099C219.882 424.108 223.482 425.605 226.137 428.261C228.793 430.917 230.286 434.515 230.291 438.269V455.865C230.286 459.618 228.793 463.217 226.137 465.873C223.482 468.529 219.882 470.025 216.124 470.035H67.6363C63.8789 470.025 60.2784 468.529 57.6231 465.873C54.9679 463.217 53.4744 459.618 53.4697 455.865V438.269C53.4744 434.515 54.9679 430.917 57.6231 428.261C60.2784 425.605 63.8789 424.108 67.6363 424.099H216.124ZM67.6363 467.186H216.124C219.129 467.182 222.009 465.987 224.133 463.865C226.257 461.743 227.453 458.866 227.458 455.865V438.269C227.453 435.268 226.257 432.391 224.133 430.269C222.009 428.146 219.129 426.952 216.124 426.947H67.6363C64.632 426.952 61.7521 428.146 59.6277 430.269C57.5033 432.391 56.3078 435.268 56.303 438.269V455.865C56.3078 458.866 57.5033 461.743 59.6277 463.865C61.7521 465.987 64.632 467.182 67.6363 467.186ZM216.124 423.197H67.6363C63.6396 423.207 59.8095 424.798 56.9851 427.623C54.1607 430.448 52.5721 434.276 52.5673 438.269V455.865C52.5721 459.857 54.1607 463.685 56.9851 466.51C59.8095 469.335 63.6396 470.927 67.6363 470.936H216.124C220.121 470.927 223.951 469.335 226.776 466.51C229.6 463.685 231.189 459.857 231.193 455.865V438.269C231.189 434.276 229.6 430.448 226.776 427.623C223.951 424.798 220.121 423.207 216.124 423.197ZM67.6363 466.285C64.8713 466.28 62.2209 465.181 60.2658 463.228C58.3106 461.275 57.2101 458.627 57.2053 455.865V438.269C57.2101 435.507 58.3106 432.859 60.2658 430.906C62.2209 428.953 64.8713 427.853 67.6363 427.849H216.124C218.889 427.853 221.54 428.953 223.495 430.906C225.45 432.859 226.551 435.507 226.555 438.269V455.865C226.551 458.627 225.45 461.275 223.495 463.228C221.54 465.181 218.889 466.28 216.124 466.285H67.6363Z" fill="#2E3192"/>
<path d="M207.697 451.267C206.866 451.264 206.054 451.014 205.365 450.551C204.676 450.087 204.14 449.43 203.825 448.662C203.509 447.894 203.428 447.05 203.593 446.236C203.757 445.423 204.159 444.676 204.748 444.09C205.336 443.505 206.086 443.106 206.901 442.946C207.716 442.785 208.561 442.869 209.328 443.188C210.095 443.506 210.751 444.045 211.212 444.735C211.673 445.425 211.919 446.237 211.919 447.067C211.919 447.62 211.81 448.168 211.598 448.678C211.385 449.189 211.074 449.653 210.681 450.043C210.289 450.434 209.823 450.743 209.311 450.953C208.799 451.163 208.25 451.27 207.697 451.267Z" fill="#3C8DF4"/>
<path d="M207.696 443.317C208.439 443.317 209.165 443.537 209.782 443.949C210.399 444.361 210.88 444.947 211.164 445.632C211.449 446.317 211.523 447.071 211.378 447.798C211.233 448.526 210.876 449.194 210.351 449.718C209.826 450.243 209.157 450.6 208.429 450.745C207.701 450.889 206.946 450.815 206.26 450.531C205.574 450.247 204.988 449.767 204.575 449.15C204.163 448.533 203.943 447.808 203.943 447.067C203.948 446.074 204.345 445.123 205.047 444.421C205.75 443.718 206.702 443.322 207.696 443.317ZM207.696 442.416C206.776 442.419 205.878 442.695 205.115 443.208C204.351 443.721 203.757 444.449 203.408 445.299C203.058 446.15 202.968 447.084 203.15 447.985C203.332 448.886 203.777 449.713 204.429 450.362C205.08 451.011 205.91 451.452 206.813 451.63C207.715 451.808 208.651 451.715 209.5 451.362C210.35 451.01 211.076 450.414 211.587 449.649C212.098 448.885 212.371 447.986 212.371 447.067C212.366 445.832 211.871 444.649 210.995 443.777C210.119 442.905 208.933 442.416 207.696 442.416Z" fill="#2E3192"/>
<path d="M196.67 451.502C195.792 451.502 194.934 451.242 194.204 450.754C193.473 450.267 192.904 449.574 192.568 448.764C192.232 447.954 192.144 447.062 192.316 446.202C192.487 445.341 192.91 444.551 193.531 443.931C194.152 443.311 194.943 442.888 195.804 442.717C196.665 442.546 197.558 442.634 198.369 442.969C199.18 443.305 199.873 443.874 200.361 444.603C200.849 445.332 201.109 446.19 201.109 447.067C201.109 447.649 200.995 448.226 200.772 448.764C200.548 449.302 200.221 449.791 199.809 450.203C199.397 450.615 198.908 450.941 198.369 451.164C197.83 451.387 197.253 451.502 196.67 451.502ZM196.67 443.984C196.06 443.984 195.463 444.165 194.955 444.503C194.448 444.842 194.052 445.324 193.819 445.887C193.585 446.45 193.524 447.07 193.643 447.668C193.762 448.266 194.056 448.816 194.488 449.247C194.919 449.678 195.469 449.971 196.068 450.09C196.667 450.209 197.287 450.148 197.851 449.915C198.415 449.682 198.897 449.287 199.236 448.78C199.575 448.273 199.756 447.677 199.756 447.067C199.751 446.251 199.425 445.469 198.847 444.892C198.269 444.315 197.487 443.989 196.67 443.984Z" fill="white"/>
<path d="M196.67 443.083C197.459 443.083 198.23 443.316 198.886 443.754C199.542 444.192 200.053 444.814 200.355 445.542C200.657 446.27 200.735 447.071 200.582 447.844C200.428 448.617 200.048 449.327 199.49 449.884C198.932 450.441 198.222 450.821 197.448 450.975C196.674 451.128 195.872 451.049 195.144 450.748C194.415 450.446 193.792 449.936 193.354 449.28C192.916 448.625 192.682 447.855 192.682 447.067C192.682 446.01 193.102 444.997 193.85 444.25C194.598 443.502 195.612 443.083 196.67 443.083ZM196.67 450.6C197.384 450.6 198.082 450.389 198.675 449.993C199.269 449.597 199.731 449.033 200.005 448.375C200.278 447.716 200.349 446.991 200.21 446.291C200.071 445.592 199.727 444.949 199.222 444.445C198.717 443.941 198.074 443.597 197.374 443.458C196.674 443.319 195.948 443.391 195.289 443.664C194.629 443.936 194.065 444.399 193.669 444.992C193.272 445.584 193.061 446.282 193.061 446.995C193.061 447.951 193.441 448.868 194.118 449.544C194.795 450.22 195.713 450.6 196.67 450.6ZM196.67 442.181C195.703 442.181 194.757 442.468 193.953 443.005C193.149 443.541 192.522 444.304 192.152 445.197C191.781 446.09 191.685 447.072 191.873 448.02C192.062 448.968 192.528 449.838 193.212 450.522C193.896 451.205 194.767 451.67 195.716 451.859C196.665 452.047 197.648 451.95 198.542 451.581C199.435 451.211 200.199 450.585 200.736 449.781C201.274 448.978 201.561 448.033 201.561 447.067C201.556 445.773 201.039 444.533 200.123 443.617C199.207 442.702 197.966 442.186 196.67 442.181ZM196.67 449.699C196.149 449.699 195.639 449.545 195.206 449.255C194.773 448.966 194.435 448.555 194.236 448.074C194.036 447.593 193.984 447.064 194.086 446.553C194.187 446.043 194.438 445.574 194.807 445.206C195.175 444.838 195.645 444.587 196.156 444.485C196.667 444.384 197.197 444.436 197.678 444.635C198.16 444.834 198.571 445.172 198.861 445.604C199.15 446.037 199.305 446.546 199.305 447.067C199.305 447.765 199.027 448.434 198.533 448.928C198.039 449.422 197.369 449.699 196.67 449.699Z" fill="#2E3192"/>
<path d="M185.643 451.502C184.765 451.502 183.907 451.242 183.177 450.754C182.447 450.267 181.878 449.574 181.542 448.764C181.206 447.954 181.118 447.062 181.289 446.202C181.461 445.341 181.883 444.551 182.504 443.931C183.125 443.311 183.916 442.888 184.777 442.717C185.639 442.546 186.531 442.634 187.342 442.969C188.154 443.305 188.847 443.874 189.335 444.603C189.823 445.332 190.083 446.19 190.083 447.067C190.083 448.243 189.615 449.371 188.783 450.203C187.95 451.035 186.821 451.502 185.643 451.502ZM185.643 443.984C185.033 443.984 184.436 444.165 183.929 444.503C183.421 444.842 183.026 445.324 182.792 445.887C182.559 446.45 182.498 447.07 182.617 447.668C182.736 448.266 183.03 448.816 183.461 449.247C183.893 449.678 184.443 449.971 185.041 450.09C185.64 450.209 186.261 450.148 186.824 449.915C187.388 449.682 187.87 449.287 188.209 448.78C188.548 448.273 188.729 447.677 188.729 447.067C188.729 446.249 188.404 445.465 187.826 444.887C187.247 444.309 186.462 443.984 185.643 443.984Z" fill="white"/>
<path d="M185.643 443.083C186.432 443.083 187.203 443.316 187.859 443.754C188.515 444.192 189.026 444.814 189.328 445.542C189.63 446.27 189.709 447.071 189.555 447.844C189.401 448.617 189.021 449.327 188.464 449.884C187.906 450.441 187.195 450.821 186.422 450.975C185.648 451.128 184.846 451.049 184.117 450.748C183.388 450.446 182.766 449.936 182.327 449.28C181.889 448.625 181.655 447.855 181.655 447.067C181.655 446.01 182.075 444.997 182.823 444.25C183.571 443.502 184.586 443.083 185.643 443.083ZM185.643 450.6C186.357 450.6 187.055 450.389 187.649 449.993C188.242 449.597 188.705 449.033 188.978 448.375C189.251 447.716 189.323 446.991 189.183 446.291C189.044 445.592 188.7 444.949 188.196 444.445C187.691 443.941 187.048 443.598 186.348 443.458C185.647 443.319 184.922 443.391 184.262 443.664C183.603 443.936 183.039 444.399 182.642 444.992C182.246 445.585 182.034 446.282 182.034 446.995C182.034 447.951 182.414 448.868 183.091 449.544C183.768 450.221 184.686 450.6 185.643 450.6ZM185.643 442.181C184.675 442.178 183.728 442.461 182.921 442.996C182.115 443.53 181.485 444.292 181.112 445.185C180.739 446.077 180.64 447.06 180.827 448.009C181.013 448.958 181.478 449.83 182.161 450.515C182.844 451.2 183.715 451.667 184.665 451.857C185.614 452.047 186.598 451.952 187.493 451.582C188.387 451.213 189.152 450.587 189.691 449.783C190.229 448.979 190.516 448.034 190.516 447.067C190.516 445.774 190.003 444.534 189.09 443.619C188.177 442.703 186.937 442.186 185.643 442.181ZM185.643 449.699C185.122 449.703 184.61 449.551 184.175 449.264C183.739 448.977 183.399 448.567 183.196 448.087C182.994 447.606 182.939 447.076 183.039 446.564C183.139 446.053 183.388 445.582 183.756 445.212C184.124 444.842 184.593 444.59 185.105 444.487C185.616 444.384 186.147 444.435 186.629 444.633C187.112 444.832 187.525 445.169 187.815 445.603C188.105 446.036 188.26 446.545 188.26 447.067C188.26 447.762 187.985 448.429 187.495 448.922C187.005 449.415 186.339 449.694 185.643 449.699Z" fill="#2E3192"/>
<path d="M174.599 451.267C173.768 451.264 172.957 451.014 172.268 450.551C171.579 450.087 171.042 449.43 170.727 448.662C170.411 447.894 170.331 447.05 170.495 446.236C170.659 445.423 171.061 444.676 171.65 444.09C172.239 443.505 172.988 443.106 173.803 442.946C174.618 442.785 175.463 442.869 176.23 443.188C176.998 443.506 177.653 444.045 178.114 444.735C178.576 445.425 178.822 446.237 178.822 447.067C178.822 447.62 178.712 448.168 178.5 448.678C178.288 449.189 177.976 449.653 177.584 450.043C177.191 450.434 176.726 450.743 176.214 450.953C175.701 451.163 175.153 451.27 174.599 451.267Z" fill="#3C8DF4"/>
<path d="M174.599 443.317C175.341 443.317 176.067 443.537 176.684 443.949C177.302 444.361 177.783 444.947 178.067 445.632C178.351 446.317 178.425 447.071 178.281 447.798C178.136 448.526 177.778 449.194 177.253 449.718C176.728 450.243 176.059 450.6 175.331 450.745C174.603 450.889 173.848 450.815 173.162 450.531C172.477 450.247 171.89 449.767 171.478 449.15C171.065 448.533 170.845 447.808 170.845 447.067C170.85 446.074 171.247 445.123 171.95 444.421C172.653 443.718 173.605 443.322 174.599 443.317ZM174.599 442.416C173.679 442.419 172.78 442.695 172.017 443.208C171.254 443.721 170.66 444.449 170.31 445.299C169.961 446.15 169.871 447.084 170.053 447.985C170.234 448.886 170.679 449.713 171.331 450.362C171.983 451.011 172.813 451.452 173.715 451.63C174.618 451.808 175.553 451.715 176.403 451.362C177.253 451.01 177.979 450.414 178.49 449.649C179 448.885 179.273 447.986 179.273 447.067C179.268 445.832 178.774 444.649 177.898 443.777C177.022 442.905 175.835 442.416 174.599 442.416Z" fill="#2E3192"/>
<path d="M161.425 451.267C160.594 451.264 159.783 451.014 159.094 450.551C158.405 450.087 157.868 449.43 157.553 448.662C157.237 447.894 157.157 447.05 157.321 446.236C157.485 445.423 157.887 444.676 158.476 444.09C159.065 443.505 159.814 443.106 160.629 442.946C161.444 442.785 162.289 442.869 163.056 443.188C163.823 443.506 164.479 444.045 164.94 444.735C165.402 445.425 165.648 446.237 165.648 447.067C165.648 447.62 165.538 448.168 165.326 448.678C165.114 449.189 164.802 449.653 164.41 450.043C164.017 450.434 163.552 450.743 163.04 450.953C162.527 451.163 161.979 451.27 161.425 451.267Z" fill="#3C8DF4"/>
<path d="M161.425 443.317C162.167 443.317 162.893 443.537 163.51 443.949C164.128 444.361 164.609 444.947 164.893 445.632C165.177 446.317 165.251 447.071 165.106 447.798C164.962 448.526 164.604 449.194 164.079 449.718C163.554 450.243 162.885 450.6 162.157 450.745C161.429 450.889 160.674 450.815 159.988 450.531C159.302 450.247 158.716 449.767 158.304 449.15C157.891 448.533 157.671 447.808 157.671 447.067C157.671 446.072 158.067 445.119 158.771 444.415C159.475 443.712 160.429 443.317 161.425 443.317ZM161.425 442.416C160.505 442.419 159.606 442.695 158.843 443.208C158.08 443.721 157.486 444.449 157.136 445.299C156.787 446.15 156.697 447.084 156.879 447.985C157.06 448.886 157.505 449.713 158.157 450.362C158.809 451.011 159.638 451.452 160.541 451.63C161.444 451.808 162.379 451.715 163.229 451.362C164.079 451.01 164.805 450.414 165.315 449.649C165.826 448.885 166.099 447.986 166.099 447.067C166.094 445.832 165.6 444.649 164.724 443.777C163.848 442.905 162.661 442.416 161.425 442.416Z" fill="#2E3192"/>
<path d="M75.4324 449.897C74.681 449.897 73.9603 449.599 73.429 449.068C72.8976 448.537 72.5991 447.817 72.5991 447.067C72.5991 446.316 72.8976 445.596 73.429 445.065C73.9603 444.535 74.681 444.236 75.4324 444.236H124.574C125.325 444.236 126.046 444.535 126.577 445.065C127.108 445.596 127.407 446.316 127.407 447.067C127.407 447.817 127.108 448.537 126.577 449.068C126.046 449.599 125.325 449.897 124.574 449.897H75.4324Z" fill="#3C8DF4"/>
<path d="M124.574 444.687C125.205 444.687 125.811 444.938 126.258 445.384C126.705 445.83 126.956 446.436 126.956 447.067C126.956 447.698 126.705 448.303 126.258 448.75C125.811 449.196 125.205 449.447 124.574 449.447H75.4324C74.8006 449.447 74.1947 449.196 73.748 448.75C73.3012 448.303 73.0503 447.698 73.0503 447.067C73.0503 446.436 73.3012 445.83 73.748 445.384C74.1947 444.938 74.8006 444.687 75.4324 444.687H124.574ZM124.574 443.786H75.4324C74.5613 443.786 73.7259 444.131 73.11 444.747C72.494 445.362 72.1479 446.197 72.1479 447.067C72.1479 447.937 72.494 448.772 73.11 449.387C73.7259 450.002 74.5613 450.348 75.4324 450.348H124.574C125.445 450.348 126.28 450.002 126.896 449.387C127.512 448.772 127.858 447.937 127.858 447.067C127.858 446.197 127.512 445.362 126.896 444.747C126.28 444.131 125.445 443.786 124.574 443.786Z" fill="#2E3192"/>
<path d="M419.203 247.781C410.737 247.863 402.281 247.181 393.938 245.744C393.157 245.598 392.449 245.189 391.932 244.585C391.416 243.982 391.121 243.22 391.098 242.426C391.075 241.632 391.324 240.854 391.805 240.221C392.285 239.589 392.968 239.139 393.74 238.948L450.117 224.723L460.097 244.122L459.502 244.23C446.188 246.509 432.711 247.697 419.203 247.781Z" fill="white"/>
<path d="M449.973 225.246L459.52 243.797C446.215 246.1 432.742 247.306 419.24 247.403C410.813 247.437 402.401 246.725 394.101 245.276C393.426 245.137 392.819 244.776 392.377 244.249C391.934 243.722 391.684 243.061 391.665 242.374C391.646 241.687 391.86 241.014 392.273 240.464C392.686 239.914 393.273 239.519 393.938 239.344L449.973 225.21V225.246ZM450.442 224.164L449.738 224.345L393.703 238.461C392.835 238.685 392.069 239.197 391.531 239.914C390.993 240.63 390.715 241.508 390.742 242.404C390.77 243.299 391.101 244.158 391.682 244.841C392.262 245.523 393.058 245.988 393.938 246.159C402.282 247.59 410.738 248.271 419.203 248.196C432.76 248.096 446.286 246.89 459.646 244.591L460.837 244.374L460.278 243.292L450.731 224.759L450.406 224.11L450.442 224.164Z" fill="#2E3192"/>
<path d="M405.019 247.205C401.121 246.862 397.421 246.375 394.028 245.744C393.247 245.598 392.539 245.189 392.023 244.585C391.506 243.982 391.212 243.22 391.188 242.426C391.165 241.632 391.415 240.854 391.895 240.221C392.376 239.589 393.058 239.139 393.83 238.948L404.279 236.297L404.459 236.532C405.488 238.015 406.076 239.759 406.156 241.562C406.345 243.393 406.111 245.244 405.47 246.97L405.344 247.259L405.019 247.205Z" fill="white"/>
<path d="M404.116 236.802C405.07 238.228 405.619 239.885 405.704 241.598C405.886 243.344 405.664 245.108 405.055 246.754C401.337 246.43 397.674 245.961 394.1 245.312C393.426 245.174 392.819 244.812 392.377 244.285C391.934 243.758 391.684 243.098 391.665 242.41C391.646 241.723 391.86 241.05 392.273 240.5C392.686 239.95 393.273 239.555 393.938 239.38L404.116 236.802ZM404.441 235.793L403.9 235.937L393.703 238.497C392.835 238.721 392.069 239.234 391.531 239.95C390.993 240.667 390.715 241.545 390.742 242.44C390.77 243.335 391.101 244.194 391.682 244.877C392.262 245.559 393.058 246.024 393.938 246.195C397.367 246.826 401.157 247.313 404.983 247.656H405.614L405.885 247.061C406.551 245.278 406.792 243.364 406.589 241.472C406.507 239.575 405.88 237.741 404.784 236.189L404.423 235.739L404.441 235.793Z" fill="#2E3192"/>
<path d="M391.213 242.697C391.115 241.861 391.327 241.017 391.809 240.326C392.291 239.635 393.01 239.145 393.83 238.948L404.279 236.297L404.459 236.532C405.488 238.015 406.076 239.759 406.156 241.562C406.156 241.742 406.156 241.922 406.156 242.084V242.535L405.705 242.679L392.097 243.076H391.213V242.697Z" fill="white"/>
<path d="M404.117 236.803C405.07 238.228 405.619 239.886 405.705 241.598C405.705 241.814 405.705 242.031 405.705 242.229L392.097 242.626H391.646C391.551 241.897 391.732 241.159 392.152 240.555C392.573 239.952 393.203 239.527 393.92 239.363L404.098 236.784L404.117 236.803ZM404.423 235.775L403.882 235.919L393.685 238.479C392.76 238.702 391.95 239.257 391.407 240.038C390.865 240.819 390.629 241.772 390.744 242.716L390.834 243.581H391.682H392.134L405.723 243.185H406.625V242.283V242.121C406.634 241.947 406.634 241.772 406.625 241.598C406.543 239.701 405.917 237.867 404.82 236.316L404.459 235.865L404.423 235.775Z" fill="#2E3192"/>
<path d="M430.873 236.768L365.568 240.918L365.844 245.254L431.149 241.104L430.873 236.768Z" fill="white"/>
<path d="M430.465 237.217L430.681 240.642L366.291 244.753L366.056 241.309L430.465 237.217ZM431.313 236.261H430.41L366.002 240.354H365.1V241.255L365.316 244.699V245.6H366.219L430.609 241.508H431.511V240.606L431.295 237.181V236.279L431.313 236.261Z" fill="#2E3192"/>
<path d="M351.889 208.354L396.952 205.487L410.812 238.912L365.767 241.778L351.889 208.354Z" fill="white"/>
<path d="M396.645 205.956L410.18 238.497L366.074 241.31L352.575 208.75L396.663 205.956H396.645ZM397.259 205.019H396.609L352.431 207.849H351.167L351.655 209.021L365.226 241.67L365.479 242.265H366.128L410.18 239.399H411.443L410.956 238.227L397.547 205.613L397.295 205.019H397.259Z" fill="#2E3192"/>
<path d="M354.831 209.994L395.905 207.38L409.043 239.038L367.987 241.634L354.831 209.994Z" fill="white"/>
<path d="M395.616 207.849L408.375 238.623L368.258 241.165L355.481 210.391L395.598 207.849H395.616ZM396.176 206.893H395.544L355.427 209.435H354.163L354.651 210.589L367.428 241.364L367.68 241.959H368.33L408.375 239.525L409.639 239.435L409.151 238.263L396.447 207.416L396.194 206.821L396.176 206.893Z" fill="#2E3192"/>
<path d="M461.505 166.402C460.517 166.415 459.533 166.256 458.599 165.933L458.275 165.807L458.672 162.706L458.527 159.1C458.527 158.702 458.37 158.319 458.09 158.036C457.809 157.752 457.428 157.59 457.029 157.586L452.355 159.028L446.58 152.358L450.605 140.279L457.986 139.215C460.576 139.74 463.059 140.697 465.331 142.045C465.547 142.226 468.128 144.894 467.605 151.258C467.605 151.456 464.266 160.615 469.788 163.373L470.582 163.769L469.734 164.148C467.15 165.451 464.323 166.206 461.433 166.366L461.505 166.402Z" fill="white"/>
<path d="M458.04 139.684C460.53 140.23 462.918 141.167 465.114 142.46C465.114 142.46 467.677 145.02 467.154 151.222C467.154 151.222 463.634 160.813 469.59 163.842C467.071 165.107 464.319 165.843 461.505 166.005C460.571 166.022 459.641 165.869 458.762 165.554L459.123 162.814L458.978 159.209C458.978 158.692 458.773 158.197 458.407 157.832C458.042 157.467 457.546 157.261 457.029 157.261H456.903L452.518 158.632L447.104 152.358L450.966 140.802L458.058 139.774L458.04 139.684ZM458.058 138.854H457.932L450.821 139.882H450.28L450.099 140.405L446.273 151.979L446.111 152.466L446.436 152.863L451.85 159.118L452.229 159.569L452.806 159.389L457.047 158.073C457.325 158.073 457.591 158.183 457.788 158.379C457.984 158.575 458.094 158.841 458.094 159.118L458.238 162.724L457.896 165.392L457.787 166.095L458.473 166.348C459.45 166.702 460.484 166.873 461.523 166.853C464.481 166.693 467.375 165.926 470.023 164.599L471.611 163.77L470.023 162.994C464.844 160.416 467.984 151.637 468.02 151.546V151.42V151.312C468.561 144.75 465.836 141.937 465.71 141.811H465.62H465.511C463.221 140.475 460.737 139.502 458.148 138.927L458.058 138.854Z" fill="#2E3192"/>
<path d="M458.672 162.706L458.527 159.1C458.527 158.701 458.37 158.319 458.09 158.035C457.809 157.752 457.428 157.59 457.029 157.586L456.867 156.702L459.917 156.486H460.151C460.836 156.491 461.504 156.69 462.079 157.061C462.655 157.431 463.112 157.957 463.4 158.577L464.844 161.84L461.433 164.148L458.455 164.346L458.672 162.706Z" fill="white"/>
<path d="M460.151 156.937C460.747 156.934 461.331 157.102 461.833 157.422C462.336 157.742 462.735 158.199 462.985 158.739L464.284 161.66L461.27 163.733L458.96 163.896L459.123 162.724L458.978 159.118C458.978 158.602 458.773 158.106 458.407 157.741C458.042 157.376 457.546 157.171 457.029 157.171H456.903L459.953 156.955H460.151V156.937ZM460.151 156.053H459.881L456.831 156.27L456.957 158.072C457.101 158.068 457.244 158.091 457.378 158.142C457.513 158.194 457.636 158.271 457.74 158.37C457.844 158.469 457.927 158.588 457.985 158.719C458.043 158.851 458.074 158.992 458.076 159.136L458.22 162.742L458.076 163.841L457.932 164.923H459.033L461.342 164.761H461.577L461.794 164.617L464.789 162.543L465.421 162.129L465.114 161.444L463.797 158.523C463.487 157.824 462.982 157.229 462.341 156.81C461.701 156.391 460.953 156.166 460.187 156.161L460.151 156.053Z" fill="#2E3192"/>
<path d="M466.414 161.408C465.316 160.169 464.484 158.719 463.969 157.147C463.454 155.575 463.266 153.914 463.418 152.267V152.141C464.031 151.274 464.375 150.246 464.407 149.185C464.439 148.123 464.158 147.076 463.598 146.174L459.989 150.122L449.54 143.596L445.822 132.021L451.814 133.5L472.82 133.68L472.946 133.914C473.199 134.365 479.064 145.218 467.099 161.462L466.792 161.894L466.414 161.408Z" fill="#344295"/>
<path d="M446.49 132.562L451.706 133.86L472.549 134.041C472.549 134.041 478.667 144.858 466.738 161.083C465.691 159.885 464.896 158.489 464.4 156.977C463.904 155.466 463.717 153.87 463.851 152.285C463.851 152.285 466.558 148.499 463.688 145.398L459.917 149.419L449.883 143.217L446.454 132.562H446.49ZM445.1 131.3L445.588 132.833L449.017 143.487L449.125 143.812L449.396 143.974L459.393 150.212L460.025 150.609L460.53 150.068L463.58 146.823C463.937 147.62 464.08 148.497 463.994 149.366C463.909 150.235 463.598 151.068 463.093 151.781L462.949 151.979V152.213C462.791 153.929 462.987 155.658 463.524 157.295C464.061 158.932 464.927 160.442 466.071 161.732L466.811 162.489L467.442 161.642C479.588 145.164 473.578 134.059 473.325 133.59L473.055 133.139H472.549L451.796 132.959L446.689 131.697L445.118 131.3H445.1Z" fill="#2E3192"/>
<path d="M482.944 516.404C481.795 516.424 480.674 516.047 479.77 515.338C478.866 514.629 478.234 513.63 477.981 512.51C472.694 490.876 459.267 433.185 449.107 364.912V364.659L449.305 364.497C461.848 354.509 491.101 325.267 492.256 269.434H493.141C493.411 271.664 493.519 273.912 493.466 276.158C496.317 341.222 494.512 420.385 488.052 511.663C487.968 512.955 487.393 514.167 486.443 515.049C485.493 515.931 484.241 516.416 482.944 516.404Z" fill="#344295"/>
<path d="M492.726 269.452C492.979 271.654 493.081 273.87 493.032 276.086C495.433 331.073 494.837 408.396 487.618 511.572C487.562 512.776 487.035 513.909 486.151 514.729C485.267 515.548 484.096 515.988 482.89 515.953C481.835 515.975 480.805 515.625 479.981 514.967C479.156 514.308 478.589 513.381 478.378 512.348C470.745 481.249 458.527 425.559 449.504 364.786C462.389 354.509 491.462 325.249 492.617 269.398L492.726 269.452ZM493.502 269.253L491.697 269.38C490.542 325.015 461.397 354.113 448.926 364.083L448.511 364.407L448.601 364.912C458.69 433.275 472.062 490.93 477.476 512.564C477.748 513.787 478.436 514.879 479.423 515.651C480.411 516.424 481.636 516.83 482.89 516.801C484.322 516.831 485.709 516.304 486.76 515.332C487.81 514.36 488.441 513.019 488.521 511.59C494.927 420.385 496.732 341.114 493.935 275.996C493.986 273.744 493.878 271.49 493.61 269.253H493.502Z" fill="#2E3192"/>
<path d="M457.246 502.486C456.163 502.488 455.101 502.196 454.172 501.64C453.244 501.084 452.485 500.286 451.976 499.331C440.318 478.689 402.167 407.927 400.345 364.263V364.154L439.506 274.608L493.195 268.947V269.452C492.112 322.203 466.63 351.246 451.543 363.866L449.955 364.984C448.277 366.156 445.516 368.067 444.054 369.347C444.722 373.908 454.719 440.829 463.454 495.347C463.608 496.213 463.57 497.103 463.342 497.954C463.114 498.804 462.703 499.594 462.137 500.268C461.527 500.965 460.775 501.523 459.931 501.906C459.088 502.288 458.172 502.486 457.246 502.486Z" fill="#344295"/>
<path d="M492.726 269.452C491.625 323.068 464.789 352.184 451.218 363.506C450.659 363.993 445.588 367.328 443.53 369.167C443.53 369.167 453.871 438.576 462.967 495.365C463.108 496.191 463.065 497.039 462.839 497.846C462.614 498.653 462.213 499.401 461.664 500.035C461.116 500.67 460.434 501.175 459.666 501.514C458.899 501.854 458.067 502.019 457.228 501.999C456.224 502.012 455.237 501.745 454.377 501.229C453.517 500.713 452.817 499.969 452.355 499.079C433.063 464.825 402.42 403.294 400.778 364.209L439.795 275.005L492.708 269.416L492.726 269.452ZM493.628 268.406L492.599 268.514L439.704 274.121H439.181L438.983 274.608L399.966 363.812V364.011V364.263C401.77 408.036 439.993 478.869 451.651 499.476C452.196 500.504 453.012 501.364 454.011 501.961C455.01 502.559 456.154 502.871 457.318 502.865C458.299 502.871 459.269 502.668 460.165 502.27C461.061 501.872 461.863 501.288 462.515 500.557C463.126 499.835 463.569 498.987 463.812 498.074C464.056 497.16 464.093 496.205 463.923 495.275C455.333 441.569 445.515 375.855 444.559 369.527C446.057 368.265 448.656 366.462 450.262 365.345C451.218 364.696 451.669 364.371 451.868 364.209C467.009 351.589 492.599 322.383 493.682 269.47V268.442L493.628 268.406Z" fill="#2E3192"/>
<path d="M482.944 516.404C481.793 516.423 480.67 516.044 479.765 515.331C478.861 514.618 478.231 513.615 477.982 512.492C476.827 507.768 474.751 499.043 473.416 493.291L473.127 492.084L474.119 492.841C476.008 494.064 478.221 494.693 480.472 494.644C480.917 494.669 481.363 494.669 481.807 494.644C487.438 494.067 488.575 491.669 488.593 491.633L489.622 489.343L489.459 491.849C489.08 497.456 488.521 505.893 488.124 511.68C488.04 512.984 487.454 514.205 486.488 515.086C485.522 515.967 484.252 516.439 482.944 516.404Z" fill="white"/>
<path d="M489.008 491.759C488.647 497.384 488.07 505.803 487.673 511.59C487.612 512.791 487.083 513.92 486.199 514.735C485.315 515.551 484.147 515.988 482.944 515.953C481.89 515.971 480.862 515.621 480.038 514.962C479.215 514.304 478.647 513.379 478.433 512.348C477.26 507.624 475.184 498.899 473.849 493.166C475.81 494.461 478.121 495.128 480.472 495.077C480.929 495.103 481.387 495.103 481.843 495.077C487.889 494.464 489.062 491.795 489.062 491.795L489.008 491.759ZM490.307 486.387L488.232 491.345C488.232 491.453 487.005 493.562 481.807 494.085C481.381 494.111 480.953 494.111 480.526 494.085C478.364 494.104 476.246 493.476 474.444 492.282L472.459 490.768L473.019 493.202C474.372 498.953 476.429 507.624 477.602 512.402C477.87 513.629 478.557 514.724 479.545 515.5C480.533 516.276 481.76 516.685 483.016 516.656C484.445 516.687 485.83 516.163 486.88 515.195C487.93 514.226 488.563 512.889 488.647 511.464C489.044 505.659 489.604 497.24 489.983 491.633L490.325 486.225L490.307 486.387Z" fill="#2E3192"/>
<path d="M455.983 277.889C450.475 277.948 444.992 277.133 439.741 275.473L439.452 275.365V275.076C437.882 250.972 437.413 228.347 438.062 207.776L412.418 218.233L412.201 218.107C393.822 204.926 377.067 189.622 362.284 172.513C361.292 171.341 360.317 170.169 359.361 168.907C358.853 168.306 358.532 167.569 358.435 166.788C358.339 166.007 358.473 165.215 358.819 164.508C359.158 163.785 359.693 163.171 360.362 162.735C361.032 162.298 361.81 162.057 362.609 162.039C363.453 162.044 364.276 162.302 364.973 162.778L412.634 194.544C414.872 192.633 431.385 178.643 446.923 165.41C453.402 159.893 458.527 158.721 461.685 158.721C463.233 158.693 464.765 159.027 466.161 159.695C483.612 168.15 491.426 232.656 493.231 269.433V269.74L492.924 269.866C490.722 270.767 487.167 272.138 482.8 273.472C474.129 276.26 465.091 277.749 455.983 277.889Z" fill="white"/>
<path d="M461.667 159.172C463.15 159.149 464.619 159.463 465.962 160.092C482.114 167.934 490.632 227.41 492.726 269.452C490.307 270.443 486.824 271.759 482.638 273.057C474.012 275.802 465.034 277.284 455.983 277.456C450.475 277.536 444.99 276.727 439.741 275.059C438.243 251.982 437.665 229.068 438.387 207.11L412.4 217.692C394.032 204.566 377.304 189.289 362.573 172.189C361.58 171.017 360.606 169.845 359.649 168.583C359.108 167.885 358.832 167.018 358.87 166.136C358.908 165.254 359.258 164.414 359.857 163.765C360.457 163.116 361.267 162.701 362.145 162.593C363.022 162.485 363.909 162.691 364.648 163.175L412.598 195.121C412.598 195.121 430.429 180.013 447.14 165.771C452.554 161.101 457.625 159.19 461.577 159.19L461.667 159.172ZM461.577 158.289C458.329 158.289 453.095 159.479 446.526 165.086C431.584 177.814 415.558 191.407 412.508 193.931L365.208 162.345C364.443 161.819 363.538 161.537 362.609 161.534C361.724 161.551 360.861 161.815 360.118 162.296C359.375 162.777 358.781 163.456 358.404 164.256C358.025 165.04 357.881 165.917 357.99 166.781C358.099 167.645 358.456 168.459 359.018 169.124C359.848 170.188 360.823 171.306 361.941 172.73C376.752 189.885 393.551 205.22 411.985 218.414L412.4 218.684L412.851 218.504L437.539 208.444C436.925 228.852 437.395 251.261 438.947 275.149V275.762L439.524 275.942C444.842 277.641 450.4 278.469 455.983 278.394C465.121 278.245 474.188 276.75 482.89 273.959C487.276 272.625 490.849 271.255 493.069 270.353L493.646 270.119V269.488C491.841 232.602 483.991 167.916 466.359 159.353C464.899 158.664 463.3 158.319 461.685 158.343L461.577 158.289Z" fill="#2E3192"/>
<path d="M482.638 273.039C471.088 276.645 454.232 279.818 439.813 275.04C438.315 251.964 437.737 229.05 438.459 207.092L412.472 217.674C394.105 204.548 377.377 189.271 362.645 172.171C369.99 169.611 372.3 175.38 372.3 175.38C372.3 175.38 402.041 207.29 414.493 206.028C426.946 204.766 451.345 178.445 452.734 197.789C454.124 217.133 460.007 269.181 482.638 273.039Z" fill="#D0DEF2"/>
<path d="M457.228 502.486C456.148 502.485 455.09 502.191 454.165 501.635C453.24 501.079 452.483 500.283 451.976 499.331C448.223 492.679 445.479 487.721 441.708 480.581L440.95 479.121L442.357 479.987C444.363 481.071 446.61 481.629 448.89 481.609C449.842 481.603 450.79 481.507 451.724 481.321C454.721 480.737 457.522 479.404 459.863 477.445L460.494 476.85C460.494 476.85 462.299 488.55 463.436 495.329C463.59 496.195 463.551 497.085 463.324 497.936C463.096 498.786 462.685 499.576 462.118 500.25C461.512 500.952 460.761 501.515 459.917 501.901C459.073 502.287 458.156 502.486 457.228 502.486Z" fill="white"/>
<path d="M460.169 477.841C461.198 484.259 461.974 488.658 462.985 495.473C463.123 496.3 463.077 497.148 462.85 497.955C462.622 498.762 462.219 499.51 461.669 500.143C461.119 500.777 460.436 501.282 459.668 501.621C458.9 501.961 458.067 502.127 457.228 502.107C456.228 502.116 455.244 501.848 454.387 501.332C453.531 500.817 452.833 500.074 452.373 499.187C448.926 493.093 446.039 487.901 442.123 480.437C444.195 481.574 446.526 482.158 448.89 482.132C449.872 482.129 450.851 482.032 451.814 481.843C454.898 481.251 457.776 479.873 460.169 477.841ZM460.801 476.038L459.556 477.228C457.273 479.124 454.548 480.414 451.633 480.978C450.732 481.173 449.812 481.27 448.89 481.266C446.714 481.241 444.576 480.684 442.664 479.644L439.867 477.841L441.383 480.726C445.155 487.937 448.006 493.039 451.651 499.511C452.195 500.535 453.009 501.39 454.005 501.984C455 502.579 456.14 502.889 457.3 502.883C458.291 502.879 459.27 502.664 460.173 502.254C461.075 501.844 461.88 501.247 462.534 500.503C463.144 499.777 463.587 498.926 463.831 498.01C464.074 497.094 464.112 496.135 463.941 495.202C462.858 488.424 462.136 483.989 461.144 477.571L460.873 475.876L460.801 476.038Z" fill="#2E3192"/>
<path d="M368.673 179.742C365.334 176.137 362.194 172.531 359.343 168.925C358.839 168.322 358.52 167.586 358.424 166.806C358.328 166.025 358.459 165.234 358.801 164.527C359.142 163.801 359.679 163.184 360.352 162.748C361.025 162.311 361.807 162.072 362.609 162.057C363.447 162.066 364.263 162.323 364.955 162.796L373.004 168.204V168.349C373.688 170.726 373.561 173.263 372.643 175.56C372.361 176.483 371.896 177.34 371.276 178.08C370.656 178.82 369.893 179.428 369.034 179.869L368.745 179.977L368.673 179.742Z" fill="white"/>
<path d="M362.627 162.49C363.376 162.498 364.105 162.731 364.721 163.157L372.661 168.457C373.304 170.742 373.177 173.174 372.3 175.38C372.047 176.239 371.627 177.039 371.063 177.736C370.499 178.432 369.804 179.01 369.016 179.436C365.858 175.975 362.717 172.369 359.722 168.619C359.278 168.068 358.998 167.403 358.915 166.7C358.832 165.997 358.948 165.285 359.252 164.645C359.555 164.005 360.032 163.464 360.629 163.083C361.226 162.701 361.919 162.496 362.627 162.49ZM362.627 161.588C361.739 161.604 360.873 161.867 360.127 162.348C359.381 162.829 358.784 163.509 358.404 164.311C358.025 165.094 357.881 165.971 357.99 166.835C358.099 167.699 358.456 168.513 359.018 169.178C361.869 172.784 365.009 176.39 368.348 179.995L368.763 180.428L369.322 180.23C370.237 179.767 371.047 179.122 371.702 178.335C372.357 177.547 372.843 176.633 373.13 175.65C374.1 173.246 374.233 170.586 373.509 168.096L373.401 167.808L373.148 167.646L365.208 162.345C364.449 161.822 363.55 161.539 362.627 161.534V161.588Z" fill="#2E3192"/>
<path d="M383.002 235.252C382.641 235.156 382.28 235.048 381.919 234.928L380.511 237.289L372.95 232.259L374.358 229.934C374.087 229.627 373.816 229.303 373.582 228.996L370.423 229.195L367.446 221.478L370.694 221.262C370.694 221.01 370.694 220.757 370.694 220.487L367.572 218.414L371.181 212.5L374.321 214.574L374.935 214.231L373.708 211.04L381.63 210.535L382.821 213.636L383.922 213.943L385.33 211.599L392.891 216.629L391.484 218.972C391.755 219.261 392.007 219.585 392.26 219.892L395.418 219.694L398.396 227.41L395.147 227.626C395.147 227.878 395.147 228.131 395.147 228.401L398.269 230.456L394.66 236.388L391.52 234.315L390.906 234.657L392.133 237.848L384.193 238.353L383.002 235.252ZM379.97 217.224C379.138 217.238 378.321 217.45 377.587 217.842C376.852 218.234 376.222 218.794 375.747 219.477C375.295 220.277 375.038 221.173 374.997 222.09C374.956 223.008 375.133 223.923 375.513 224.76C376.332 226.714 377.689 228.397 379.427 229.612C381.164 230.828 383.211 231.527 385.33 231.628H385.817C386.65 231.618 387.469 231.408 388.204 231.016C388.939 230.624 389.569 230.061 390.04 229.375C390.499 228.578 390.762 227.683 390.806 226.764C390.85 225.846 390.674 224.93 390.293 224.092C389.47 222.14 388.112 220.46 386.375 219.245C384.638 218.03 382.593 217.329 380.475 217.224H379.97Z" fill="#3C8DF4"/>
<path d="M381.305 211.022L382.46 214.032C383.011 214.161 383.554 214.324 384.085 214.519L385.438 212.248L392.242 216.773L390.888 219.044C391.29 219.464 391.664 219.91 392.007 220.378L395.075 220.18L397.71 227.031L394.642 227.211C394.679 227.685 394.679 228.161 394.642 228.635L397.638 230.618L394.57 235.775L391.574 233.791C391.202 234.05 390.802 234.268 390.383 234.44L391.538 237.451L384.554 237.902L383.399 234.891C382.847 234.765 382.305 234.602 381.775 234.404L380.421 236.676L373.618 232.151L374.971 229.879C374.569 229.46 374.195 229.014 373.852 228.545L370.784 228.743L368.149 221.893L371.217 221.712C371.172 221.239 371.172 220.762 371.217 220.288L368.24 218.305L371.308 213.149L374.303 215.132C374.676 214.873 375.075 214.656 375.494 214.483L374.321 211.472L381.305 211.022ZM385.33 232.115H385.853C390.166 231.826 392.332 228.185 390.708 223.966C389.862 221.919 388.451 220.154 386.639 218.877C384.827 217.6 382.69 216.864 380.475 216.755H379.952C375.639 217.043 373.455 220.685 375.097 224.903C375.941 226.952 377.352 228.718 379.164 229.995C380.976 231.272 383.115 232.008 385.33 232.115ZM381.901 210.084H381.233L374.249 210.517H373.022L373.473 211.653L374.339 213.906L371.831 212.248L371.037 211.707L370.55 212.536L367.482 217.674L367.031 218.413L367.752 218.9L370.297 220.577V220.703L368.059 220.847H366.832L367.283 221.983L369.918 228.834L370.153 229.447H370.82L373.401 229.284L373.834 229.789L372.823 231.484L372.372 232.223L373.094 232.692L379.898 237.217L380.692 237.74L381.179 236.928L382.154 235.288L382.713 235.45L383.688 238.028L383.94 238.641H384.59L391.574 238.208L392.801 238.118L392.368 236.982L391.502 234.729L394.01 236.387L394.804 236.928L395.274 236.099L398.36 230.961L398.793 230.222L398.089 229.735L395.544 228.058V227.932L397.764 227.806L398.991 227.716L398.558 226.58L395.923 219.729L395.671 219.116H395.021L392.422 219.279L392.007 218.774L393.018 217.079L393.451 216.34L392.747 215.871L385.925 211.346L385.149 210.823L384.662 211.635L383.688 213.275L383.128 213.113L382.136 210.535L381.901 209.922V210.084ZM385.33 231.213C383.303 231.107 381.346 230.434 379.684 229.27C378.021 228.107 376.72 226.5 375.928 224.633C375.571 223.863 375.405 223.02 375.443 222.173C375.48 221.326 375.721 220.5 376.144 219.765C376.576 219.138 377.152 218.624 377.824 218.267C378.496 217.909 379.245 217.718 380.006 217.71H380.475C382.499 217.82 384.452 218.494 386.111 219.658C387.77 220.821 389.069 222.426 389.86 224.29C390.223 225.057 390.395 225.901 390.36 226.749C390.326 227.597 390.086 228.423 389.661 229.158C389.229 229.784 388.652 230.297 387.98 230.655C387.308 231.012 386.56 231.204 385.799 231.213H385.33Z" fill="#2E3192"/>
<path d="M505.25 515.953H0.25V519H505.25V515.953Z" fill="#344295"/>
<path d="M196.688 199.43V180.23C195.496 180.435 194.289 180.543 193.079 180.554H192.628V180.103V174.406H193.006C195.428 174.078 197.667 172.94 199.359 171.179L199.503 171.035H205.91V199.484L196.688 199.43Z" fill="#3C8DF4"/>
<path d="M224.299 199.97C215.402 199.97 209.862 194.147 209.862 184.808C209.862 177.273 213.76 169.232 224.714 169.232C233.738 169.232 237.473 174.64 238.051 179.526V180.013H228.793V179.652C228.754 179.135 228.613 178.63 228.377 178.167C228.142 177.705 227.816 177.294 227.42 176.958C227.023 176.623 226.564 176.369 226.068 176.213C225.573 176.056 225.051 176 224.534 176.047C221.195 176.047 219.481 178.895 219.481 184.52C219.481 188.432 220.383 193.119 224.624 193.119C225.656 193.171 226.669 192.827 227.454 192.156C228.239 191.486 228.738 190.54 228.847 189.514V189.153H238.159L238.069 189.676C236.932 196.184 231.951 199.97 224.299 199.97Z" fill="#3C8DF4"/>
<path d="M241.281 199.43V169.755H255.087C261.855 169.755 266.402 173.649 266.402 179.436C266.402 185.53 261.981 189.334 254.889 189.334H250.521V199.43H241.281ZM253.499 182.483C255.917 182.483 257.108 181.509 257.108 179.544C257.108 177.579 255.881 176.588 253.499 176.588H250.485V182.483H253.499Z" fill="#3C8DF4"/>
<path d="M282.897 199.97C273.874 199.97 269.56 195.752 269.56 187.08V169.755H278.909V187.891C278.909 191.263 280.298 192.975 283.041 192.975C285.784 192.975 286.976 191.317 286.976 187.891V169.755H296.342V187.044C296.342 195.626 291.83 199.97 282.897 199.97Z" fill="#3C8DF4"/>
<path d="M241.66 238.443V229.789H233.142V223.029H241.66V214.429H248.536V223.029H256.928V229.789H248.536V238.443H241.66Z" fill="#3C8DF4"/>
<path d="M203.203 277.438V276.303C203.203 270.894 205.513 266.928 211.198 262.871C215.24 259.969 216.016 259.266 216.016 257.463C216.016 255.227 214.807 254.957 213.905 254.957C212.28 254.957 211.577 255.858 211.324 258.238V258.653H202.932V258.166C203.113 255.264 204.611 248.485 214.229 248.485C221.051 248.485 225.057 251.892 225.057 257.499C225.057 261.393 223.541 263.539 218.254 267.036C216.729 267.952 215.349 269.088 214.157 270.407H226.104L225.021 277.366L203.203 277.438Z" fill="#3C8DF4"/>
<path d="M241.426 278.033C233.106 278.033 227.71 272.12 227.71 262.943C227.71 253.262 233.539 247.241 242.906 247.241C251.55 247.241 256.007 252.162 256.567 257.03V257.535H247.345L247.255 257.192C247.03 256.215 246.449 255.356 245.625 254.783C244.801 254.209 243.793 253.963 242.797 254.091C239.062 254.091 237.257 256.886 237.257 262.655C237.257 266.531 238.213 271.146 242.833 271.146C243.426 271.213 244.026 271.15 244.591 270.96C245.157 270.771 245.673 270.459 246.105 270.049C246.537 269.638 246.874 269.137 247.091 268.583C247.308 268.028 247.401 267.432 247.363 266.838H242.166V260.041H256.513V277.438H250.052L249.962 277.114C249.817 276.609 249.673 275.96 249.565 275.401C248.448 276.352 247.154 277.075 245.757 277.526C244.361 277.978 242.889 278.15 241.426 278.033Z" fill="#3C8DF4"/>
<path d="M261.079 277.438V247.782H275.859C283.565 247.782 286.326 251.874 286.326 255.714C286.37 256.944 286.088 258.164 285.508 259.25C284.928 260.336 284.071 261.25 283.023 261.898C284.266 262.471 285.315 263.394 286.043 264.553C286.77 265.711 287.144 267.057 287.12 268.424C287.12 273.833 282.735 277.438 275.949 277.438H261.079ZM274.036 270.876C277.176 270.876 277.537 269.272 277.537 268.064C277.537 266.261 276.418 265.431 274.198 265.431H270.174V270.84L274.036 270.876ZM274.433 258.869C276.238 258.869 277.248 258.076 277.248 256.562C277.248 254.759 275.678 254.362 274.379 254.362H270.174V258.869H274.433Z" fill="#3C8DF4"/>
</g>
<defs>
<clipPath id="clip0_1563_23049">
<rect width="505" height="519" fill="white" transform="translate(0.25)"/>
</clipPath>
</defs>
</svg>
