<svg width="185" height="81" viewBox="0 0 185 81" fill="none" xmlns="http://www.w3.org/2000/svg">
<g opacity="0.4">
<g clip-path="url(#clip0_1311_24215)">
<path d="M73.0365 40.4055C73.1145 40.2717 73.0802 40.1542 73.0804 40.0436C73.083 38.1787 73.0878 36.3137 73.076 34.4489C73.0744 34.1845 73.149 34.1198 73.4015 34.124C74.3256 34.1392 75.2502 34.1408 76.1742 34.1233C76.4466 34.1181 76.5132 34.1983 76.5127 34.47C76.5045 39.2656 76.5068 44.0611 76.5068 48.8566C76.5068 49.6442 76.4999 50.432 76.5111 51.2195C76.5143 51.4448 76.4776 51.5463 76.2188 51.5415C75.3176 51.5247 74.4159 51.5277 73.5146 51.5404C73.3024 51.5434 73.24 51.4863 73.2485 51.2711C73.2651 50.8447 73.2534 50.4172 73.2534 49.9992C73.2037 49.9635 73.183 49.988 73.1646 50.0171C72.5218 51.0358 71.5864 51.5946 70.4285 51.785C68.3471 52.1272 66.2936 51.4618 65.0311 49.4836C64.4515 48.5755 64.1212 47.5744 63.971 46.51C63.7224 44.7499 63.8926 43.0463 64.7012 41.4457C66.259 38.3622 69.616 38.0731 71.5912 39.108C72.1752 39.4139 72.6479 39.8512 73.0365 40.4055ZM73.1972 45.201C73.1964 44.1611 73.0244 43.3422 72.7038 42.6726C71.7708 40.724 69.2383 40.9343 68.3104 41.981C67.6826 42.6893 67.4275 43.5308 67.335 44.4419C67.2072 45.701 67.3374 46.9196 68.0357 48.0086C68.623 48.9244 69.4841 49.3191 70.5487 49.2373C71.6119 49.1555 72.3519 48.5967 72.7772 47.6072C73.1073 46.8397 73.2006 46.0288 73.1972 45.201Z" fill="#0F1E0B"/>
<path d="M154.773 46.0654C153.381 46.0654 151.989 46.0719 150.596 46.0593C150.347 46.0571 150.277 46.1366 150.322 46.3697C150.378 46.653 150.407 46.9429 150.48 47.2213C150.905 48.8431 152.227 49.3876 153.742 49.2127C154.713 49.1007 155.53 48.6727 155.986 47.727C156.04 47.613 156.119 47.6183 156.208 47.6183C157.075 47.6174 157.943 47.6242 158.81 47.6144C159.139 47.6107 158.985 47.793 158.94 47.9234C158.087 50.3871 156.275 51.7406 153.665 51.8587C151.962 51.9358 150.379 51.5825 149.037 50.4452C147.812 49.4066 147.183 48.0308 146.967 46.4574C146.718 44.6382 146.957 42.8949 147.984 41.3397C149.317 39.3225 151.247 38.4945 153.587 38.593C156.748 38.7261 158.645 40.9877 159.145 43.8875C159.253 44.5159 159.292 45.1491 159.28 45.7881C159.276 46.0231 159.201 46.0717 158.985 46.0702C157.581 46.0609 156.177 46.0654 154.773 46.0654ZM153.05 43.8632C153.883 43.8632 154.716 43.8655 155.548 43.8602C155.651 43.8596 155.84 43.9336 155.793 43.7001C155.608 42.7816 155.311 41.9208 154.411 41.4685C152.658 40.587 150.67 41.6298 150.336 43.5814C150.293 43.8317 150.364 43.8704 150.586 43.8675C151.407 43.8567 152.228 43.8632 153.05 43.8632Z" fill="#0F1E0B"/>
<path d="M92.5445 46.0655C91.1525 46.0655 89.7604 46.0709 88.3684 46.0604C88.1232 46.0585 88.0655 46.1198 88.0928 46.373C88.1912 47.2861 88.4186 48.1372 89.1939 48.705C90.5441 49.694 93.0196 49.3234 93.7337 47.7567C93.7881 47.6373 93.8617 47.6161 93.9734 47.6164C94.8405 47.6189 95.7077 47.6235 96.5748 47.6148C96.8947 47.6116 96.7513 47.7883 96.7045 47.9207C95.8277 50.4027 94.0611 51.7295 91.4308 51.8565C89.5221 51.9488 87.7846 51.4974 86.4033 50.0687C85.2735 48.9002 84.7799 47.4499 84.6709 45.8411C84.5548 44.1246 84.8832 42.5187 85.8958 41.1163C87.2397 39.2552 89.1116 38.4985 91.34 38.5913C94.4557 38.7211 96.3426 40.9162 96.8834 43.7392C97.0126 44.4133 97.0346 45.0934 97.0382 45.7776C97.0395 46.0338 96.9444 46.072 96.7204 46.0704C95.3285 46.0605 93.9364 46.0655 92.5445 46.0655ZM90.8168 43.8633C91.6609 43.8633 92.505 43.8654 93.3491 43.8601C93.4389 43.8596 93.6077 43.934 93.5637 43.7113C93.3114 42.4321 92.7495 41.3724 91.237 41.2095C89.656 41.0391 88.3057 42.031 88.1037 43.5664C88.0735 43.7964 88.1111 43.8723 88.3529 43.8684C89.1741 43.855 89.9954 43.8633 90.8168 43.8633Z" fill="#0F1E0B"/>
<path d="M123.057 47.6178C122.479 49.3607 121.542 50.7456 119.824 51.4057C118.023 52.0977 116.199 52.0621 114.425 51.3054C112.895 50.6529 111.862 49.4783 111.332 47.8855C110.642 45.8114 110.678 43.7472 111.727 41.8056C112.988 39.4701 115.036 38.4902 117.608 38.5952C120.831 38.7267 122.745 41.1087 123.186 44.0688C123.268 44.6199 123.288 45.1737 123.291 45.73C123.292 45.9822 123.218 46.0744 122.942 46.0732C120.192 46.0606 117.442 46.0714 114.691 46.0574C114.381 46.0557 114.306 46.1351 114.343 46.4386C114.487 47.6065 114.871 48.6263 116.072 49.0338C117.374 49.4757 118.591 49.2999 119.623 48.3034C119.705 48.2245 119.801 48.1352 119.832 48.0325C119.959 47.6038 120.272 47.6043 120.629 47.6123C121.424 47.6301 122.219 47.6178 123.057 47.6178ZM117.064 43.8633C117.909 43.8633 118.753 43.8648 119.597 43.8612C119.695 43.8608 119.832 43.9216 119.819 43.7084C119.739 42.3921 118.808 41.3949 117.483 41.2195C115.95 41.0164 114.698 41.9073 114.375 43.4305C114.285 43.8543 114.291 43.8632 114.703 43.8633C115.49 43.8635 116.277 43.8633 117.064 43.8633Z" fill="#0F1E0B"/>
<path d="M55.5618 51.8712C54.475 51.8442 53.4318 51.6254 52.474 51.0947C50.6261 50.0709 49.6987 48.4207 49.4225 46.3531C49.2581 45.1221 49.3443 43.9042 49.7297 42.7205C50.5003 40.353 52.517 38.7873 54.9742 38.612C56.3614 38.513 57.7096 38.6418 58.9638 39.2959C60.9423 40.3277 61.8898 42.0618 62.153 44.2366C62.3022 45.4702 62.2089 46.6914 61.7871 47.8617C60.9932 50.0641 59.411 51.3261 57.1592 51.7511C56.6319 51.8506 56.0973 51.8777 55.5618 51.8712ZM52.7702 45.2096C52.7823 45.8864 52.8501 46.54 53.048 47.1746C53.452 48.4703 54.3586 49.1925 55.6505 49.2478C56.9565 49.3038 57.9628 48.6706 58.4164 47.4141C58.9533 45.9271 58.9462 44.4127 58.376 42.9364C57.9177 41.7499 56.994 41.2023 55.7525 41.2C54.5297 41.1976 53.655 41.8 53.1733 42.9517C52.869 43.6792 52.7927 44.4461 52.7702 45.2096Z" fill="#0F1E0B"/>
<path d="M41.0686 38.574C43.0275 38.6045 44.7241 39.1441 46.0171 40.6408C47.1238 41.9218 47.5239 43.4694 47.5513 45.1305C47.57 46.2617 47.3905 47.3655 46.9138 48.4014C46.1887 49.9774 44.9985 51.0267 43.3664 51.5362C41.8688 52.0037 40.3512 52.011 38.8572 51.5351C37.0093 50.9465 35.743 49.7026 35.1102 47.8422C34.5348 46.15 34.5314 44.4305 35.0714 42.7286C35.8281 40.3443 37.8667 38.7694 40.341 38.6146C40.6026 38.5981 40.8643 38.5853 41.0686 38.574ZM38.113 45.1916C38.1208 45.9656 38.2027 46.6872 38.4606 47.3776C38.9127 48.5881 39.8064 49.228 41.0651 49.2518C42.2919 49.2751 43.2671 48.679 43.7088 47.5382C44.299 46.0138 44.3007 44.4554 43.7141 42.9318C43.2576 41.7461 42.3296 41.1997 41.0873 41.1998C39.8652 41.2 38.9871 41.8038 38.5108 42.9576C38.2103 43.6856 38.1265 44.4524 38.113 45.1916Z" fill="#0F1E0B"/>
<path d="M143.536 42.6127C143.08 42.6127 142.623 42.6101 142.167 42.6141C142.018 42.6155 141.913 42.609 141.887 42.4087C141.783 41.62 141.297 41.1849 140.561 41.0146C139.895 40.8607 139.226 40.8518 138.564 41.0441C138.117 41.1741 137.782 41.4316 137.72 41.9343C137.658 42.435 137.911 42.7764 138.316 43.0136C138.979 43.4023 139.726 43.5243 140.459 43.6888C141.403 43.9009 142.355 44.0789 143.259 44.4452C145.602 45.3952 146.284 48.035 144.702 50.0506C143.999 50.9458 143.037 51.3992 141.967 51.6333C140.205 52.0188 138.453 51.9937 136.752 51.337C135.152 50.7193 134.23 49.5371 134.017 47.7972C133.984 47.5249 134.02 47.415 134.334 47.4238C135.224 47.4487 136.115 47.4323 137.005 47.4329C137.126 47.433 137.251 47.3993 137.271 47.6006C137.393 48.7904 138.166 49.302 139.227 49.4829C139.914 49.5999 140.592 49.5548 141.233 49.2463C141.584 49.0772 141.858 48.8234 141.999 48.4452C142.21 47.8768 142.061 47.3928 141.565 47.0513C141.145 46.7619 140.668 46.6001 140.182 46.4746C139.156 46.2093 138.124 45.9691 137.098 45.7025C136.646 45.585 136.215 45.3998 135.807 45.165C134.639 44.4926 134.153 43.4781 134.307 42.1198C134.481 40.5783 135.298 39.5434 136.716 39.0536C138.649 38.3856 140.618 38.3652 142.555 39.0441C144.086 39.5809 144.931 40.7287 145.157 42.3544C145.183 42.5449 145.153 42.6238 144.94 42.617C144.473 42.6024 144.004 42.6127 143.536 42.6127Z" fill="#0F1E0B"/>
<path d="M97.8743 38.9269C99.0052 38.9269 100.122 38.9343 101.238 38.9209C101.476 38.9181 101.485 39.0767 101.529 39.2233C102.218 41.4843 102.904 43.7458 103.591 46.0073C103.739 46.4918 103.886 46.9762 104.036 47.4677C104.182 47.3925 104.166 47.2341 104.203 47.1151C105.006 44.492 105.807 41.8679 106.595 39.2401C106.667 39.0012 106.757 38.9154 107.009 38.9201C107.933 38.9371 108.857 38.9332 109.781 38.9225C110.018 38.9197 110.103 38.9481 110.012 39.2195C108.659 43.2498 107.315 47.2828 105.974 51.3169C105.917 51.4891 105.834 51.5407 105.658 51.5393C104.551 51.5307 103.445 51.5317 102.338 51.5384C102.169 51.5394 102.075 51.5038 102.015 51.3237C100.637 47.2168 99.2531 43.1123 97.8705 39.0071C97.8674 38.9977 97.8713 38.9858 97.8743 38.9269Z" fill="#0F1E0B"/>
<path d="M27.8307 46.3908C27.8307 44.7801 27.8255 43.1694 27.8364 41.5588C27.8381 41.3186 27.784 41.2407 27.5387 41.2504C27.0257 41.2706 26.5114 41.2507 25.9979 41.2599C25.8394 41.2627 25.7807 41.2252 25.7835 41.0515C25.7936 40.4144 25.7978 39.7767 25.7817 39.1398C25.7763 38.9264 25.8743 38.9241 26.027 38.9255C26.5407 38.9305 27.0546 38.918 27.568 38.9319C27.7787 38.9377 27.8409 38.8733 27.8357 38.658C27.8203 38.0102 27.8039 37.3588 27.9867 36.7271C28.3909 35.3307 29.3512 34.551 30.714 34.2496C31.6847 34.0349 32.6652 34.1372 33.6432 34.2168C33.7899 34.2287 33.8033 34.2907 33.8028 34.4093C33.7997 35.1509 33.7965 35.8926 33.8048 36.6341C33.8067 36.8056 33.7346 36.8191 33.5997 36.8032C33.1917 36.7551 32.7819 36.7209 32.3711 36.7497C31.6674 36.7991 31.3179 37.1531 31.2711 37.8694C31.253 38.1464 31.27 38.4258 31.2523 38.7028C31.2399 38.8965 31.3226 38.9326 31.4916 38.9304C32.108 38.9224 32.7246 38.9351 33.3408 38.9228C33.5423 38.9187 33.6187 38.9622 33.6128 39.1864C33.5966 39.8002 33.6004 40.4147 33.6114 41.0287C33.6147 41.2113 33.5644 41.2642 33.3836 41.2607C32.7901 41.2493 32.1958 41.2728 31.6031 41.2492C31.3234 41.238 31.2468 41.3063 31.2479 41.6018C31.2601 44.7884 31.2509 47.9751 31.2629 51.1618C31.2641 51.4666 31.1964 51.5512 30.8899 51.5432C29.9886 51.5199 29.0862 51.5228 28.1848 51.5421C27.9061 51.5481 27.8207 51.4839 27.8235 51.1881C27.8387 49.5892 27.8307 47.99 27.8307 46.3908Z" fill="#0F1E0B"/>
<path d="M128.528 41.2695C129.235 39.804 130.309 38.963 131.783 38.6504C132.188 38.5647 132.597 38.5564 133.007 38.6247C133.182 38.6538 133.275 38.7157 133.272 38.9343C133.256 39.8488 133.259 40.7639 133.269 41.6786C133.272 41.8849 133.22 41.923 133.021 41.8901C132.399 41.7871 131.773 41.7648 131.151 41.8998C129.901 42.171 129.071 43.1051 128.809 44.5303C128.733 44.9404 128.698 45.3544 128.698 45.7722C128.7 47.5787 128.694 49.3852 128.704 51.1915C128.706 51.4548 128.651 51.5481 128.37 51.5423C127.435 51.5229 126.499 51.5294 125.564 51.5392C125.351 51.5414 125.268 51.4996 125.269 51.2563C125.276 47.2382 125.275 43.2199 125.27 39.2017C125.27 38.9961 125.317 38.9198 125.534 38.9225C126.458 38.9339 127.382 38.9324 128.306 38.9231C128.49 38.9212 128.534 38.9803 128.531 39.1578C128.522 39.8291 128.528 40.5006 128.528 41.2695Z" fill="#0F1E0B"/>
<path d="M88.82 30.1035C88.6253 30.277 88.4745 30.394 88.3437 30.5307C87.5384 31.372 87.0864 32.418 86.6797 33.4923C86.3198 34.4431 85.9228 35.3774 85.3576 36.2266C84.9842 36.7876 84.5404 37.2827 83.9956 37.6767C83.0287 38.3759 81.7035 38.3872 80.7137 37.7179C80.6149 37.6511 80.5645 37.5966 80.6085 37.4687C81.1184 35.9867 81.6959 34.5448 82.8342 33.4172C83.1442 33.1101 83.5018 32.8685 83.9286 32.5767C83.5798 32.5863 83.3595 32.7119 83.1432 32.8381C82.2796 33.342 81.6736 34.1074 81.1159 34.9184C80.6339 35.6194 80.2413 36.3746 79.8291 37.198C79.599 36.588 79.4639 36.0225 79.4218 35.441C79.2487 33.0512 80.3241 31.5499 82.7588 30.7568C84.1493 30.304 85.5814 30.1299 87.0346 30.105C87.5912 30.0955 88.148 30.1035 88.82 30.1035Z" fill="#64BF4A"/>
<path d="M79.1552 45.2544C79.1552 43.2614 79.1591 41.2685 79.1502 39.2757C79.149 39.0218 79.1878 38.9131 79.4767 38.9192C80.4236 38.9395 81.3713 38.9334 82.3186 38.9218C82.532 38.9191 82.5849 38.9823 82.5845 39.195C82.5783 43.2155 82.5778 47.236 82.5854 51.2565C82.5858 51.4934 82.5121 51.5422 82.2957 51.5397C81.3484 51.5286 80.4008 51.5267 79.4537 51.5407C79.2137 51.5442 79.1484 51.4776 79.1497 51.2329C79.1594 49.2402 79.1552 47.2473 79.1552 45.2544Z" fill="#0F1E0B"/>
</g>
</g>
<defs>
<clipPath id="clip0_1311_24215">
<rect width="137" height="24" fill="white" transform="translate(24 28.874)"/>
</clipPath>
</defs>
</svg>
