<svg width="130" height="20" viewBox="0 0 130 20" fill="none" xmlns="http://www.w3.org/2000/svg">
<rect x="3" width="10.0164" height="10" fill="#1D4ED8"/>
<rect x="3" y="10" width="10.0164" height="10" fill="#2563EB"/>
<rect x="13.0165" y="10" width="10.0164" height="10" fill="#3B82F6"/>
<rect x="8.00824" y="5" width="10.0164" height="10" fill="#60A5FA"/>
<path d="M32.4279 2.71496V9.42721C32.4279 9.93172 32.4061 10.4947 32.3624 11.1162C32.326 11.7304 32.2678 12.2898 32.1878 12.7943H32.2751C32.4424 12.5384 32.6534 12.2167 32.908 11.8291C33.1627 11.4416 33.3918 11.1199 33.5955 10.864L36.3672 7.35431H41.125L36.8365 12.6407L41.3978 19.7807H36.52L33.8138 15.3278L32.4279 16.3917V19.7807H28.1393V2.71496H32.4279Z" fill="#1E3A8A"/>
<path d="M47.1377 19.7807H42.871V2.71496H47.1377V19.7807Z" fill="#1E3A8A"/>
<path d="M61.9021 13.5401C61.9021 14.5784 61.7602 15.4997 61.4765 16.304C61.1928 17.1083 60.7818 17.7846 60.2434 18.333C59.7051 18.8814 59.054 19.2982 58.2901 19.5833C57.5263 19.8612 56.6642 20.0001 55.7039 20.0001C54.8091 20.0001 53.987 19.8612 53.2377 19.5833C52.4957 19.2982 51.8482 18.8814 51.2953 18.333C50.7424 17.7846 50.3132 17.1083 50.0077 16.304C49.7094 15.4997 49.5603 14.5784 49.5603 13.5401C49.5603 12.1655 49.8076 11.0029 50.3023 10.0524C50.8043 9.10183 51.5172 8.37796 52.4411 7.88076C53.3723 7.38355 54.4817 7.13495 55.7694 7.13495C56.9552 7.13495 58.01 7.38355 58.9339 7.88076C59.8579 8.37796 60.5817 9.10183 61.1055 10.0524C61.6366 11.0029 61.9021 12.1655 61.9021 13.5401ZM53.8924 13.5401C53.8924 14.2493 53.9543 14.8489 54.078 15.3388C54.2016 15.8214 54.3981 16.1906 54.6672 16.4465C54.9437 16.6951 55.3038 16.8194 55.7475 16.8194C56.1913 16.8194 56.5441 16.6951 56.806 16.4465C57.0679 16.1906 57.2571 15.8214 57.3735 15.3388C57.4972 14.8489 57.559 14.2493 57.559 13.5401C57.559 12.8309 57.4972 12.2386 57.3735 11.7633C57.2571 11.2881 57.0643 10.9298 56.7951 10.6885C56.5332 10.4472 56.1768 10.3266 55.7257 10.3266C55.0783 10.3266 54.609 10.5971 54.318 11.1382C54.0343 11.6792 53.8924 12.4799 53.8924 13.5401Z" fill="#1E3A8A"/>
<path d="M76.3719 7.35431V19.7807H73.1527L72.618 18.2343H72.367C72.1124 18.6511 71.7887 18.9911 71.3958 19.2543C71.0103 19.5102 70.581 19.6966 70.1082 19.8136C69.6353 19.9379 69.1443 20.0001 68.635 20.0001C67.8275 20.0001 67.0964 19.8429 66.4416 19.5285C65.7942 19.2141 65.2776 18.7205 64.8921 18.0478C64.5138 17.3751 64.3246 16.5087 64.3246 15.4485V7.35431H68.5914V14.1433C68.5914 14.9476 68.7041 15.5618 68.9296 15.9859C69.1624 16.4027 69.5407 16.6111 70.0645 16.6111C70.6029 16.6111 71.0175 16.4648 71.3085 16.1724C71.6068 15.8799 71.8141 15.4485 71.9305 14.8782C72.0469 14.3078 72.1051 13.6132 72.1051 12.7943V7.35431H76.3719Z" fill="#1E3A8A"/>
<path d="M83.1593 20.0001C81.8862 20.0001 80.8386 19.4554 80.0166 18.3659C79.1945 17.2764 78.7835 15.6825 78.7835 13.584C78.7835 11.4635 79.2054 9.8586 80.0493 8.76914C80.8932 7.67968 81.9844 7.13495 83.323 7.13495C83.8759 7.13495 84.3524 7.21538 84.7525 7.37624C85.1526 7.5371 85.4982 7.75646 85.7892 8.03431C86.0875 8.30484 86.3457 8.61194 86.564 8.95559H86.6513C86.6003 8.64119 86.5531 8.20979 86.5094 7.6614C86.4658 7.10571 86.4439 6.56463 86.4439 6.03818V2.71496H90.7434V19.7807H87.5243L86.6076 18.2123H86.4439C86.2475 18.5414 86.0002 18.8412 85.7019 19.1117C85.4109 19.3822 85.0544 19.5979 84.6325 19.7588C84.2178 19.9197 83.7268 20.0001 83.1593 20.0001ZM84.9053 16.6111C85.5891 16.6111 86.0693 16.3954 86.3457 15.964C86.6294 15.5253 86.7822 14.8599 86.804 13.9678V13.6278C86.804 12.6481 86.6658 11.8986 86.3894 11.3795C86.1202 10.853 85.611 10.5898 84.8616 10.5898C84.3524 10.5898 83.9305 10.8384 83.5958 11.3356C83.2612 11.8328 83.0938 12.6042 83.0938 13.6498C83.0938 14.6807 83.2612 15.4339 83.5958 15.9091C83.9377 16.3771 84.3742 16.6111 84.9053 16.6111Z" fill="#1E3A8A"/>
<path d="M97.9674 19.7807H93.7006V2.71496H97.9674V19.7807Z" fill="#3B82F6"/>
<path d="M105.213 7.35431V19.7807H100.946V7.35431H105.213ZM103.096 2.35303C103.707 2.35303 104.238 2.48098 104.689 2.7369C105.148 2.99281 105.377 3.50098 105.377 4.26141C105.377 4.9999 105.148 5.50076 104.689 5.76399C104.238 6.0199 103.707 6.14786 103.096 6.14786C102.471 6.14786 101.936 6.0199 101.492 5.76399C101.056 5.50076 100.837 4.9999 100.837 4.26141C100.837 3.50098 101.056 2.99281 101.492 2.7369C101.936 2.48098 102.471 2.35303 103.096 2.35303Z" fill="#3B82F6"/>
<path d="M114.249 16.6111C114.634 16.6111 114.987 16.5708 115.307 16.4904C115.627 16.41 115.962 16.3076 116.311 16.1833V19.3091C115.845 19.5139 115.351 19.6784 114.827 19.8027C114.31 19.9343 113.648 20.0001 112.841 20.0001C112.041 20.0001 111.335 19.8758 110.724 19.6272C110.113 19.3713 109.636 18.9326 109.294 18.3111C108.96 17.6822 108.792 16.8085 108.792 15.6898V10.5678H107.297V8.82398L109.196 7.47495L110.298 4.86463H113.092V7.35431H116.125V10.5678H113.092V15.4046C113.092 15.8068 113.194 16.1102 113.397 16.3149C113.601 16.5124 113.885 16.6111 114.249 16.6111Z" fill="#3B82F6"/>
<path d="M124.037 7.13495C125.237 7.13495 126.274 7.347 127.147 7.77108C128.02 8.18785 128.693 8.81667 129.166 9.65753C129.639 10.4984 129.875 11.5513 129.875 12.8162V14.7246H122.247C122.284 15.3754 122.524 15.9091 122.968 16.3259C123.419 16.7427 124.081 16.9511 124.954 16.9511C125.725 16.9511 126.43 16.8743 127.071 16.7207C127.718 16.5672 128.384 16.3296 129.068 16.0078V19.0898C128.471 19.4042 127.82 19.6345 127.114 19.7807C126.409 19.927 125.517 20.0001 124.441 20.0001C123.197 20.0001 122.084 19.7771 121.102 19.3311C120.119 18.885 119.345 18.1941 118.777 17.2582C118.217 16.3222 117.937 15.1195 117.937 13.6498C117.937 12.1582 118.192 10.9334 118.701 9.97559C119.21 9.01043 119.923 8.29753 120.84 7.83689C121.756 7.36893 122.822 7.13495 124.037 7.13495ZM124.19 10.0524C123.688 10.0524 123.266 10.2132 122.924 10.5349C122.589 10.8494 122.393 11.3466 122.335 12.0266H126.001C125.994 11.661 125.921 11.3283 125.783 11.0285C125.645 10.7287 125.441 10.4911 125.172 10.3156C124.91 10.1401 124.583 10.0524 124.19 10.0524Z" fill="#3B82F6"/>
<g style="mix-blend-mode:color">
<rect width="130" height="20" fill="#C4C4C4"/>
</g>
</svg>
