<svg width="569" height="284" viewBox="0 0 569 284" fill="none" xmlns="http://www.w3.org/2000/svg">
<g opacity="0.78">
<rect x="0.5" y="0.5" width="568" height="283" rx="15.5" fill="white" stroke="#E5E5E5"/>
<g clip-path="url(#clip0_1340_22630)">
<path d="M61.006 150.58L77.9312 133.872C82.004 113.261 100.379 97.7029 122.447 97.6794L110.339 85.7273L106.362 81.8006L110.339 77.8739L122.368 66C82.1466 66.0626 49.1124 96.381 45.3566 135.132L61.006 150.58Z" fill="#2563EB"/>
<path d="M130.68 203.199L113.755 186.491C92.8754 182.471 77.1151 164.324 77.0913 142.547L64.9838 154.499L61.006 158.426L57.0283 154.499L45 142.625C45.0634 182.33 75.7759 214.94 115.03 218.648L130.68 203.199Z" fill="#DBEAFE"/>
<path d="M200.916 115.224L181.844 93.307C169.134 78.3746 150.743 68.3154 129.959 66.3521L114.309 81.8007L131.234 98.5086C139.745 100.151 147.407 104.133 153.5 109.757L159.871 117.039L179.649 139.661L200.916 115.224Z" fill="#DBEAFE"/>
<path d="M206.059 169.893L225.123 191.716L226.423 193.211L226.439 193.226C240.606 209.011 261.287 218.969 284.322 219.008L272.293 207.134L268.316 203.207L272.293 199.28L284.401 187.328C271.263 187.313 259.433 181.79 251.145 172.975L248.895 170.386L227.326 145.558L206.059 169.893Z" fill="#DBEAFE"/>
<path d="M210.242 136.931L187.248 136.813L158.041 170.378L155.79 172.967C147.51 181.783 135.68 187.305 122.534 187.321L134.642 199.273L138.619 203.199L134.642 207.126L122.621 219C145.656 218.961 166.337 209.003 180.504 193.218L180.52 193.203L181.82 191.709L210.123 159.325L210.242 136.931Z" fill="#2563EB"/>
<path d="M276.992 66.3521C256.208 68.3154 237.817 78.3824 225.107 93.307L203.475 118.166L192.065 131.283L210.282 131.377L215.908 131.408L215.876 136.962L215.789 152.857L224.743 142.61L247.08 117.047L253.451 109.765C259.544 104.141 267.206 100.151 275.716 98.5165L292.642 81.8007L276.992 66.3521Z" fill="#DBEAFE"/>
<path d="M507.994 134.42L491.069 151.128C486.996 171.739 468.621 187.289 446.553 187.313L458.661 199.265L462.638 203.192L458.661 207.118L446.632 219C486.853 218.937 519.888 188.619 523.643 149.868L507.994 134.42Z" fill="#DBEAFE"/>
<path d="M438.328 81.8007L455.253 98.5087C476.132 102.529 491.885 120.669 491.909 142.453L504.016 130.501L507.994 126.574L511.972 130.501L524 142.375C523.937 102.67 493.224 70.0597 453.97 66.3521L438.328 81.8007Z" fill="#2563EB"/>
<path d="M368.084 169.776L387.149 191.693C399.858 206.625 418.249 216.692 439.033 218.648L454.683 203.199L437.758 186.491C429.248 184.849 421.585 180.867 415.492 175.243L409.121 167.961L389.344 145.339L368.084 169.776Z" fill="#2563EB"/>
<path d="M362.941 115.107L343.877 93.2834L342.577 91.7894L342.561 91.7738C328.394 75.9966 307.713 66.0391 284.67 66L296.699 77.8739L300.676 81.8006L296.699 85.7273L284.591 97.6794C297.729 97.6951 309.559 103.217 317.847 112.033L320.098 114.622L341.674 139.442L362.941 115.107Z" fill="#2563EB"/>
<path d="M358.758 148.069L381.752 148.187L410.959 114.622L413.21 112.033C421.49 103.217 433.32 97.6951 446.466 97.6794L434.358 85.7273L430.381 81.8006L434.358 77.8739L446.379 66C423.344 66.0391 402.663 75.9966 388.496 91.7816L388.48 91.7972L387.18 93.2913L358.876 125.675L358.758 148.069Z" fill="#DBEAFE"/>
<path d="M292.016 218.648C312.8 216.685 331.191 206.618 343.901 191.693L365.532 166.835L376.943 153.717L358.726 153.623L353.1 153.592L353.132 148.038L353.219 132.144L344.265 142.391L321.928 167.953L315.557 175.236C309.464 180.86 301.802 184.849 293.291 186.484L276.366 203.2L292.016 218.648Z" fill="#2563EB"/>
<path d="M158.326 92.0593C158.862 92.5414 159.154 93.0029 159.202 93.4439C159.25 93.8849 159.097 94.3031 158.741 94.6986C158.579 94.8783 158.396 95.024 158.193 95.1356C157.993 95.2471 157.774 95.3082 157.535 95.3189C157.297 95.3278 157.042 95.2745 156.769 95.159C156.499 95.0452 156.212 94.8521 155.909 94.5795L155.466 94.1809L154.066 95.7363L153.385 95.123L157.12 90.9733L158.326 92.0593ZM157.772 92.5833L157.293 92.1514L155.977 93.6132L156.349 93.9479C156.563 94.1404 156.767 94.2794 156.96 94.3647C157.156 94.4482 157.342 94.47 157.518 94.4301C157.694 94.3902 157.863 94.2804 158.025 94.1006C158.241 93.8603 158.33 93.6159 158.29 93.3674C158.251 93.1206 158.079 92.8592 157.772 92.5833Z" fill="#2563EB"/>
<path d="M157.563 98.8844L156.893 98.2813L160.868 93.8648L161.538 94.4679L157.563 98.8844Z" fill="#2563EB"/>
<path d="M162.629 97.6502C163.027 98.008 163.247 98.366 163.291 98.7242C163.337 99.0842 163.192 99.4505 162.857 99.8233L160.954 101.938L160.48 101.511L160.753 100.951L160.73 100.93C160.539 100.964 160.363 100.975 160.202 100.963C160.041 100.952 159.882 100.908 159.725 100.831C159.568 100.759 159.4 100.642 159.223 100.482C159.035 100.313 158.899 100.128 158.812 99.9275C158.728 99.7246 158.707 99.5139 158.749 99.2953C158.792 99.0767 158.911 98.8586 159.107 98.641C159.398 98.3174 159.737 98.1825 160.124 98.2361C160.513 98.2914 160.959 98.5303 161.462 98.9528L162.025 99.4235L162.173 99.2589C162.369 99.0413 162.457 98.8401 162.439 98.6554C162.422 98.4724 162.322 98.2983 162.138 98.133C161.981 97.9916 161.809 97.8772 161.62 97.7898C161.432 97.7023 161.238 97.6287 161.038 97.5688L161.246 96.9035C161.473 96.9601 161.707 97.0506 161.947 97.1749C162.19 97.301 162.417 97.4594 162.629 97.6502ZM161.644 99.841L161.225 99.4898C160.882 99.2014 160.597 99.0477 160.371 99.029C160.145 99.0102 159.952 99.0898 159.792 99.2676C159.652 99.4228 159.596 99.5781 159.624 99.7334C159.654 99.8869 159.744 100.032 159.896 100.168C160.126 100.376 160.376 100.483 160.645 100.488C160.918 100.494 161.169 100.369 161.399 100.114L161.644 99.841Z" fill="#2563EB"/>
<path d="M166.406 101.051C166.76 101.37 166.953 101.709 166.984 102.07C167.02 102.431 166.856 102.812 166.493 103.216L164.649 105.265L163.982 104.664L165.714 102.74C165.933 102.496 166.048 102.268 166.056 102.057C166.067 101.843 165.967 101.642 165.757 101.453C165.452 101.179 165.156 101.082 164.868 101.162C164.583 101.243 164.28 101.462 163.959 101.818L162.554 103.379L161.887 102.779L164.715 99.6365L165.235 100.104L164.945 100.614L164.982 100.647C165.149 100.599 165.314 100.585 165.477 100.605C165.644 100.625 165.806 100.674 165.963 100.75C166.123 100.828 166.27 100.929 166.406 101.051Z" fill="#2563EB"/>
<path d="M121.442 139.697C120.607 139.697 119.96 140.012 119.502 140.642C119.043 141.268 118.814 142.141 118.814 143.263C118.814 145.597 119.69 146.764 121.442 146.764C122.177 146.764 123.067 146.581 124.112 146.213V148.075C123.253 148.433 122.294 148.612 121.234 148.612C119.712 148.612 118.547 148.151 117.74 147.23C116.934 146.304 116.53 144.977 116.53 143.249C116.53 142.16 116.728 141.208 117.125 140.392C117.521 139.57 118.089 138.943 118.829 138.508C119.573 138.069 120.444 137.85 121.442 137.85C122.459 137.85 123.48 138.095 124.506 138.587L123.79 140.392C123.399 140.205 123.005 140.043 122.609 139.905C122.213 139.766 121.824 139.697 121.442 139.697Z" fill="#2563EB"/>
<path d="M126.346 148.469V138H128.566V148.469H126.346Z" fill="#2563EB"/>
<path d="M280.485 139.697C279.65 139.697 279.003 140.012 278.545 140.642C278.087 141.268 277.858 142.141 277.858 143.263C277.858 145.597 278.734 146.764 280.485 146.764C281.22 146.764 282.111 146.581 283.156 146.213V148.075C282.297 148.433 281.337 148.612 280.278 148.612C278.755 148.612 277.59 148.151 276.784 147.23C275.977 146.304 275.574 144.977 275.574 143.249C275.574 142.16 275.772 141.208 276.168 140.392C276.564 139.57 277.132 138.943 277.872 138.508C278.617 138.069 279.488 137.85 280.485 137.85C281.502 137.85 282.523 138.095 283.55 138.587L282.834 140.392C282.442 140.205 282.049 140.043 281.652 139.905C281.256 139.766 280.867 139.697 280.485 139.697Z" fill="#2563EB"/>
<path d="M294.075 143.134C294.075 144.857 293.583 146.177 292.6 147.094C291.621 148.01 290.206 148.469 288.354 148.469H285.39V138H288.676C290.385 138 291.712 138.451 292.657 139.353C293.602 140.256 294.075 141.516 294.075 143.134ZM291.769 143.191C291.769 140.943 290.776 139.819 288.791 139.819H287.609V146.635H288.562C290.7 146.635 291.769 145.487 291.769 143.191Z" fill="#2563EB"/>
<path d="M442.12 139.697C441.285 139.697 440.638 140.012 440.18 140.642C439.722 141.268 439.493 142.141 439.493 143.263C439.493 145.597 440.369 146.764 442.12 146.764C442.856 146.764 443.746 146.581 444.791 146.213V148.075C443.932 148.433 442.973 148.612 441.913 148.612C440.39 148.612 439.226 148.151 438.419 147.23C437.612 146.304 437.209 144.977 437.209 143.249C437.209 142.16 437.407 141.208 437.803 140.392C438.199 139.571 438.767 138.943 439.507 138.508C440.252 138.069 441.123 137.85 442.12 137.85C443.137 137.85 444.159 138.095 445.185 138.587L444.469 140.392C444.077 140.205 443.684 140.043 443.288 139.905C442.891 139.766 442.502 139.697 442.12 139.697Z" fill="#2563EB"/>
<path d="M456.526 143.22C456.526 144.953 456.096 146.285 455.237 147.215C454.378 148.146 453.147 148.612 451.543 148.612C449.939 148.612 448.708 148.146 447.848 147.215C446.989 146.285 446.56 144.948 446.56 143.206C446.56 141.463 446.989 140.134 447.848 139.217C448.712 138.296 449.949 137.835 451.557 137.835C453.166 137.835 454.395 138.298 455.244 139.224C456.099 140.151 456.526 141.482 456.526 143.22ZM448.886 143.22C448.886 144.389 449.108 145.27 449.552 145.862C449.996 146.454 450.66 146.75 451.543 146.75C453.314 146.75 454.199 145.573 454.199 143.22C454.199 140.862 453.318 139.683 451.557 139.683C450.674 139.683 450.008 139.981 449.56 140.578C449.111 141.17 448.886 142.05 448.886 143.22Z" fill="#2563EB"/>
<path d="M318.373 93.4268C317.952 93.8942 317.514 94.2066 317.057 94.364C316.602 94.5194 316.137 94.5276 315.663 94.3885C315.191 94.2474 314.721 93.9665 314.253 93.5457L313.101 92.5083L316.836 88.3586L318.113 89.5085C318.543 89.8952 318.844 90.3066 319.016 90.7429C319.19 91.1772 319.226 91.6224 319.124 92.0785C319.024 92.5327 318.773 92.9821 318.373 93.4268ZM317.646 92.8078C317.952 92.4672 318.15 92.1386 318.24 91.822C318.332 91.5071 318.321 91.203 318.208 90.9097C318.099 90.6161 317.893 90.3331 317.591 90.0605L317.009 89.5367L314.296 92.551L314.778 92.9854C315.28 93.4369 315.769 93.6464 316.247 93.6141C316.725 93.5818 317.191 93.3131 317.646 92.8078Z" fill="white"/>
<path d="M321.429 94.2101C321.709 94.4623 321.897 94.7363 321.994 95.0323C322.09 95.3283 322.097 95.6308 322.014 95.9399C321.931 96.2489 321.757 96.551 321.491 96.8462L321.17 97.2038L319.072 95.3155C318.806 95.627 318.676 95.9348 318.683 96.2392C318.692 96.5452 318.837 96.8251 319.119 97.0789C319.32 97.2595 319.516 97.4024 319.709 97.5076C319.906 97.6127 320.123 97.7041 320.362 97.7817L319.874 98.3238C319.65 98.2562 319.442 98.1662 319.249 98.0538C319.055 97.9413 318.845 97.7829 318.618 97.5785C318.31 97.3008 318.092 96.9967 317.964 96.6663C317.841 96.3357 317.82 95.9915 317.902 95.6338C317.986 95.2779 318.188 94.923 318.506 94.5691C318.823 94.2172 319.151 93.9718 319.492 93.8332C319.833 93.6945 320.169 93.6579 320.5 93.7235C320.832 93.789 321.141 93.9512 321.429 94.2101ZM320.977 94.7125C320.767 94.5234 320.535 94.4383 320.282 94.457C320.031 94.4774 319.775 94.6088 319.516 94.8514L320.946 96.1393C321.086 95.9805 321.184 95.8176 321.242 95.6505C321.302 95.4851 321.311 95.3223 321.271 95.1622C321.232 95.0038 321.134 94.8539 320.977 94.7125Z" fill="white"/>
<path d="M325.138 97.5499C325.51 97.8855 325.687 98.2908 325.667 98.766C325.648 99.2429 325.397 99.7501 324.914 100.287C324.594 100.643 324.271 100.895 323.945 101.044C323.623 101.193 323.311 101.244 323.01 101.199C322.712 101.153 322.438 101.018 322.188 100.793C322.029 100.65 321.91 100.505 321.83 100.357C321.75 100.21 321.698 100.066 321.675 99.9248C321.653 99.7817 321.649 99.6449 321.664 99.5143L321.624 99.4786C321.566 99.5628 321.498 99.6546 321.422 99.7542C321.35 99.8535 321.28 99.941 321.212 100.017L320.06 101.297L319.39 100.694L323.472 96.1581L324.017 96.6487L323.72 97.1673L323.751 97.1954C323.89 97.1593 324.035 97.1408 324.186 97.1401C324.339 97.1411 324.495 97.1735 324.654 97.2373C324.816 97.3009 324.977 97.4051 325.138 97.5499ZM324.469 97.9338C324.285 97.7686 324.104 97.6726 323.926 97.6459C323.752 97.619 323.573 97.6554 323.391 97.7551C323.211 97.8565 323.02 98.0153 322.819 98.2314L322.734 98.3251C322.525 98.5578 322.371 98.7768 322.271 98.9822C322.176 99.1873 322.145 99.3827 322.18 99.5683C322.219 99.7538 322.335 99.9334 322.528 100.107C322.69 100.254 322.865 100.33 323.051 100.337C323.239 100.345 323.433 100.29 323.634 100.173C323.836 100.057 324.037 99.8864 324.238 99.6632C324.542 99.3245 324.719 99.0069 324.766 98.7106C324.816 98.4159 324.716 98.157 324.469 97.9338Z" fill="white"/>
<path d="M324.935 103.164L324.265 102.561L328.24 98.1442L328.91 98.7472L324.935 103.164Z" fill="white"/>
<path d="M330.09 104.948C329.855 105.209 329.612 105.411 329.362 105.552C329.112 105.693 328.858 105.775 328.602 105.797C328.347 105.818 328.094 105.782 327.844 105.691C327.596 105.598 327.357 105.447 327.126 105.239C326.91 105.045 326.745 104.831 326.63 104.597C326.516 104.362 326.456 104.115 326.448 103.858C326.443 103.6 326.496 103.338 326.606 103.071C326.717 102.803 326.889 102.539 327.124 102.278C327.436 101.932 327.76 101.692 328.095 101.559C328.434 101.426 328.772 101.396 329.11 101.471C329.447 101.545 329.77 101.721 330.078 101.999C330.368 102.259 330.566 102.553 330.673 102.879C330.781 103.205 330.788 103.545 330.695 103.9C330.601 104.254 330.4 104.604 330.09 104.948ZM327.811 102.896C327.605 103.125 327.456 103.346 327.365 103.558C327.275 103.772 327.25 103.975 327.289 104.168C327.329 104.359 327.442 104.537 327.628 104.704C327.813 104.871 328.003 104.965 328.197 104.985C328.392 105.004 328.591 104.957 328.792 104.843C328.993 104.73 329.197 104.559 329.403 104.33C329.609 104.101 329.756 103.882 329.845 103.674C329.935 103.464 329.958 103.264 329.916 103.075C329.875 102.884 329.761 102.705 329.574 102.536C329.298 102.287 329.013 102.199 328.719 102.27C328.426 102.341 328.123 102.55 327.811 102.896Z" fill="white"/>
<path d="M331.79 103.648L332.516 104.302L331.546 106.676C331.501 106.782 331.454 106.886 331.405 106.986C331.36 107.086 331.312 107.181 331.261 107.272C331.212 107.365 331.159 107.454 331.102 107.54L331.119 107.555C331.227 107.474 331.352 107.388 331.495 107.298C331.641 107.207 331.792 107.12 331.946 107.036L334.179 105.799L334.897 106.446L330.333 108.805C330.071 108.94 329.819 109.028 329.576 109.069C329.334 109.115 329.102 109.105 328.883 109.041C328.661 108.979 328.452 108.859 328.255 108.682C328.161 108.597 328.084 108.517 328.024 108.442C327.962 108.37 327.912 108.306 327.873 108.25L328.354 107.717C328.385 107.762 328.427 107.816 328.481 107.878C328.535 107.94 328.594 108 328.658 108.058C328.777 108.165 328.902 108.234 329.031 108.265C329.161 108.296 329.295 108.295 329.434 108.263C329.571 108.232 329.709 108.18 329.847 108.106L330.224 107.911L331.79 103.648Z" fill="white"/>
<path d="M75.6614 179.476L76.8958 180.587C77.4312 181.069 77.7653 181.51 77.8981 181.911C78.0309 182.311 77.9261 182.702 77.5838 183.082C77.4407 183.241 77.2829 183.359 77.1103 183.437C76.9413 183.514 76.7664 183.547 76.5855 183.535C76.4063 183.521 76.2264 183.458 76.0457 183.347L76.0202 183.375C76.1554 183.548 76.2531 183.727 76.3133 183.911C76.3753 184.097 76.3818 184.29 76.3328 184.489C76.2857 184.69 76.1659 184.897 75.9734 185.111C75.7452 185.365 75.4905 185.526 75.2093 185.595C74.93 185.665 74.637 185.646 74.3304 185.538C74.0255 185.431 73.7209 185.241 73.4163 184.967L71.9264 183.625L75.6614 179.476ZM74.802 181.8L75.4547 182.388C75.763 182.666 76.022 182.808 76.2314 182.815C76.4409 182.822 76.6325 182.729 76.8062 182.536C76.9833 182.339 77.0401 182.134 76.9765 181.919C76.9149 181.706 76.7308 181.461 76.4243 181.185L75.8341 180.654L74.802 181.8ZM74.3064 182.351L73.121 183.668L73.8389 184.314C74.1568 184.601 74.4354 184.74 74.6747 184.733C74.9141 184.726 75.1283 184.617 75.3173 184.407C75.4331 184.279 75.5043 184.14 75.5308 183.993C75.5592 183.847 75.5311 183.69 75.4466 183.522C75.3637 183.351 75.2116 183.166 74.9903 182.967L74.3064 182.351Z" fill="#2563EB"/>
<path d="M81.2559 186.337L78.4278 189.479L77.9028 189.007L78.1927 188.502L78.1558 188.469C77.9925 188.517 77.8274 188.531 77.6605 188.511C77.4954 188.489 77.335 188.439 77.1795 188.36C77.0223 188.284 76.8746 188.184 76.7365 188.059C76.5 187.846 76.3333 187.624 76.2365 187.393C76.1432 187.162 76.128 186.922 76.1906 186.673C76.2533 186.425 76.4047 186.167 76.6448 185.901L78.4919 183.848L79.1616 184.451L77.4269 186.379C77.2072 186.623 77.0921 186.85 77.0815 187.059C77.0727 187.271 77.1734 187.471 77.3834 187.66C77.5858 187.842 77.7841 187.946 77.9782 187.97C78.1723 187.994 78.3672 187.946 78.5629 187.828C78.7604 187.711 78.9656 187.535 79.1785 187.298L80.5862 185.734L81.2559 186.337Z" fill="#2563EB"/>
<path d="M82.8791 187.799L80.0511 190.941L79.3842 190.34L82.2122 187.198L82.8791 187.799ZM83.6331 186.299C83.7353 186.391 83.7986 186.498 83.823 186.619C83.8492 186.742 83.8019 186.871 83.681 187.005C83.5618 187.137 83.4388 187.198 83.312 187.187C83.1888 187.175 83.0762 187.123 82.974 187.031C82.8681 186.936 82.8029 186.828 82.7785 186.706C82.7577 186.585 82.8069 186.458 82.9261 186.325C83.0471 186.191 83.1682 186.129 83.2895 186.139C83.4126 186.15 83.5272 186.204 83.6331 186.299Z" fill="#2563EB"/>
<path d="M81.6771 192.405L81.0074 191.802L84.9825 187.386L85.6523 187.989L81.6771 192.405Z" fill="#2563EB"/>
<path d="M83.6352 194.271C83.2606 193.934 83.0824 193.527 83.1007 193.05C83.1225 192.573 83.3735 192.067 83.8538 191.534C84.3392 190.994 84.8207 190.69 85.2983 190.619C85.7777 190.551 86.2057 190.686 86.5822 191.025C86.7411 191.168 86.8606 191.315 86.9406 191.466C87.0223 191.615 87.0734 191.764 87.0938 191.912C87.1161 192.063 87.1175 192.21 87.098 192.353L87.1292 192.381C87.1726 192.314 87.237 192.22 87.3225 192.098C87.4117 191.976 87.4988 191.868 87.584 191.773L88.6007 190.644L89.2705 191.247L85.2954 195.663L84.7732 195.193L85.0398 194.657L85.0114 194.631C84.8729 194.671 84.7269 194.689 84.5735 194.684C84.4236 194.679 84.2695 194.645 84.1111 194.581C83.9547 194.519 83.796 194.416 83.6352 194.271ZM84.3105 193.898C84.5961 194.155 84.8717 194.254 85.1372 194.195C85.4026 194.136 85.6854 193.943 85.9856 193.618L86.0648 193.53C86.3816 193.178 86.5675 192.857 86.6226 192.567C86.6794 192.276 86.5574 191.995 86.2566 191.724C86.0163 191.508 85.7451 191.44 85.4429 191.521C85.1443 191.601 84.8392 191.815 84.5275 192.161C84.2158 192.507 84.0398 192.828 83.9995 193.124C83.9628 193.42 84.0664 193.678 84.3105 193.898Z" fill="#2563EB"/>
<path d="M396.032 181.662L396.664 180.144L395.077 178.715L393.634 179.502L392.916 178.856L398.21 176.079L398.965 176.759L396.756 182.313L396.032 181.662ZM397.014 179.401L397.641 177.91C397.671 177.847 397.711 177.759 397.763 177.644C397.816 177.528 397.87 177.411 397.925 177.292C397.982 177.172 398.03 177.071 398.069 176.99C397.98 177.05 397.878 177.116 397.763 177.187C397.651 177.258 397.545 177.323 397.443 177.382C397.344 177.444 397.267 177.491 397.213 177.524L395.794 178.302L397.014 179.401Z" fill="white"/>
<path d="M401.755 181.018C402.108 181.336 402.301 181.676 402.333 182.037C402.368 182.397 402.204 182.779 401.841 183.182L399.997 185.231L399.33 184.631L401.062 182.706C401.282 182.462 401.396 182.235 401.405 182.023C401.415 181.81 401.315 181.609 401.105 181.42C400.801 181.145 400.504 181.048 400.217 181.128C399.931 181.21 399.628 181.429 399.308 181.784L397.902 183.346L397.236 182.745L400.064 179.603L400.583 180.071L400.293 180.581L400.33 180.614C400.497 180.565 400.662 180.551 400.826 180.572C400.992 180.592 401.154 180.64 401.312 180.717C401.471 180.795 401.618 180.895 401.755 181.018Z" fill="white"/>
<path d="M405.044 183.979C405.441 184.337 405.662 184.695 405.706 185.053C405.752 185.413 405.607 185.78 405.271 186.152L403.368 188.267L402.894 187.84L403.168 187.28L403.145 187.259C402.954 187.293 402.778 187.304 402.617 187.292C402.456 187.281 402.297 187.237 402.139 187.161C401.982 187.088 401.815 186.971 401.637 186.811C401.45 186.642 401.313 186.458 401.227 186.257C401.142 186.054 401.121 185.843 401.164 185.624C401.206 185.406 401.326 185.188 401.521 184.97C401.813 184.647 402.152 184.512 402.538 184.565C402.927 184.62 403.373 184.859 403.876 185.282L404.439 185.753L404.587 185.588C404.783 185.37 404.872 185.169 404.853 184.984C404.836 184.801 404.736 184.627 404.553 184.462C404.396 184.321 404.223 184.206 404.034 184.119C403.846 184.031 403.652 183.958 403.452 183.898L403.661 183.233C403.887 183.289 404.121 183.38 404.362 183.504C404.604 183.63 404.832 183.789 405.044 183.979ZM404.058 186.17L403.64 185.819C403.297 185.53 403.012 185.377 402.785 185.358C402.559 185.339 402.366 185.419 402.206 185.597C402.066 185.752 402.01 185.907 402.038 186.062C402.068 186.216 402.159 186.361 402.31 186.497C402.541 186.705 402.791 186.812 403.059 186.817C403.332 186.823 403.583 186.698 403.813 186.443L404.058 186.17Z" fill="white"/>
<path d="M404.971 189.711L404.302 189.108L408.277 184.691L408.947 185.294L404.971 189.711Z" fill="white"/>
<path d="M408.279 187L409.006 187.655L408.035 190.028C407.99 190.135 407.943 190.239 407.895 190.339C407.849 190.438 407.801 190.534 407.75 190.625C407.701 190.718 407.648 190.807 407.591 190.893L407.608 190.908C407.716 190.827 407.841 190.741 407.984 190.65C408.131 190.56 408.281 190.473 408.435 190.389L410.669 189.152L411.387 189.798L406.822 192.158C406.561 192.293 406.308 192.381 406.065 192.422C405.823 192.468 405.592 192.458 405.372 192.394C405.15 192.332 404.941 192.212 404.745 192.035C404.65 191.95 404.573 191.87 404.513 191.795C404.452 191.723 404.401 191.659 404.362 191.603L404.843 191.07C404.874 191.115 404.916 191.168 404.97 191.231C405.024 191.293 405.083 191.353 405.147 191.411C405.266 191.518 405.391 191.587 405.52 191.618C405.65 191.649 405.784 191.648 405.923 191.616C406.06 191.585 406.198 191.533 406.337 191.459L406.713 191.263L408.279 187Z" fill="white"/>
<path d="M411.138 195.263L408.751 193.114L409.122 192.703L412.703 191.914L411.214 190.573L411.676 190.059L413.921 192.08L413.512 192.534L410 193.308L411.6 194.75L411.138 195.263Z" fill="white"/>
<path d="M415.949 193.799C416.229 194.051 416.418 194.325 416.514 194.621C416.611 194.917 416.618 195.22 416.535 195.529C416.452 195.838 416.278 196.14 416.012 196.435L415.69 196.793L413.593 194.905C413.326 195.216 413.197 195.524 413.204 195.828C413.212 196.134 413.358 196.414 413.64 196.668C413.84 196.848 414.037 196.991 414.23 197.097C414.427 197.202 414.644 197.293 414.882 197.371L414.394 197.913C414.171 197.845 413.963 197.755 413.769 197.643C413.576 197.53 413.366 197.372 413.139 197.167C412.83 196.89 412.612 196.586 412.485 196.255C412.361 195.925 412.341 195.581 412.423 195.223C412.507 194.867 412.708 194.512 413.027 194.158C413.343 193.806 413.672 193.561 414.013 193.422C414.353 193.284 414.689 193.247 415.021 193.312C415.352 193.378 415.662 193.54 415.949 193.799ZM415.497 194.302C415.287 194.112 415.056 194.027 414.803 194.046C414.551 194.066 414.296 194.198 414.036 194.44L415.467 195.728C415.606 195.57 415.705 195.407 415.763 195.239C415.823 195.074 415.832 194.911 415.791 194.751C415.752 194.593 415.654 194.443 415.497 194.302Z" fill="white"/>
<path d="M72.1556 105.833C71.9666 106.023 71.8316 106.226 71.7506 106.444C71.6714 106.66 71.6453 106.884 71.6723 107.116C71.6975 107.347 71.7749 107.581 71.9045 107.818C72.0323 108.054 72.2105 108.286 72.4391 108.515C72.7451 108.821 73.052 109.042 73.3598 109.177C73.6658 109.31 73.9664 109.348 74.2616 109.29C74.555 109.231 74.8367 109.066 75.1067 108.796C75.2741 108.629 75.4208 108.449 75.5468 108.259C75.6728 108.068 75.7925 107.86 75.9059 107.635L76.4567 108.186C76.3595 108.409 76.2434 108.617 76.1084 108.809C75.9734 109.002 75.7988 109.206 75.5846 109.42C75.1814 109.823 74.7629 110.074 74.3291 110.173C73.8971 110.27 73.4633 110.233 73.0277 110.06C72.5939 109.885 72.1727 109.594 71.7641 109.185C71.4653 108.886 71.2331 108.571 71.0675 108.24C70.9019 107.908 70.8083 107.574 70.7867 107.235C70.7633 106.895 70.8191 106.56 70.9541 106.23C71.0891 105.897 71.3069 105.581 71.6075 105.28C71.8055 105.082 72.0224 104.91 72.2582 104.764C72.494 104.615 72.7343 104.499 72.9791 104.416L73.2869 105.177C73.0853 105.249 72.8864 105.337 72.6902 105.439C72.494 105.542 72.3158 105.673 72.1556 105.833Z" fill="white"/>
<path d="M78.5114 103.381C78.7598 103.63 78.9478 103.883 79.0756 104.14C79.2034 104.398 79.2718 104.655 79.2808 104.913C79.288 105.168 79.2394 105.419 79.135 105.663C79.0288 105.906 78.8659 106.138 78.6464 106.357C78.4412 106.563 78.2189 106.717 77.9795 106.819C77.7383 106.92 77.489 106.968 77.2316 106.962C76.9742 106.953 76.715 106.887 76.454 106.762C76.193 106.638 75.9383 106.452 75.6899 106.203C75.3605 105.874 75.1382 105.538 75.023 105.196C74.9078 104.851 74.8961 104.511 74.9879 104.178C75.0797 103.845 75.2723 103.532 75.5657 103.238C75.8411 102.963 76.1444 102.78 76.4756 102.69C76.8068 102.6 77.147 102.611 77.4962 102.722C77.8454 102.834 78.1838 103.054 78.5114 103.381ZM76.3433 105.55C76.5611 105.768 76.7735 105.928 76.9805 106.031C77.1893 106.131 77.3909 106.167 77.5853 106.139C77.7779 106.108 77.9624 106.005 78.1388 105.828C78.3152 105.652 78.4187 105.467 78.4493 105.274C78.4781 105.08 78.4412 104.879 78.3386 104.672C78.236 104.465 78.0758 104.253 77.858 104.035C77.6402 103.817 77.4296 103.659 77.2262 103.56C77.021 103.459 76.823 103.425 76.6322 103.457C76.4396 103.488 76.2542 103.592 76.076 103.77C75.8132 104.033 75.7097 104.313 75.7655 104.61C75.8213 104.907 76.0139 105.22 76.3433 105.55Z" fill="white"/>
<path d="M81.7999 103.203C81.4435 103.56 81.0277 103.716 80.5525 103.673C80.0773 103.626 79.5859 103.349 79.0783 102.841C78.5654 102.328 78.2864 101.831 78.2414 101.351C78.1982 100.868 78.3557 100.448 78.7139 100.089C78.865 99.9383 79.018 99.8266 79.1728 99.7546C79.3258 99.6808 79.477 99.6376 79.6264 99.625C79.7776 99.6106 79.9243 99.6169 80.0665 99.6439L80.0962 99.6142C80.0314 99.5674 79.9405 99.4981 79.8235 99.4063C79.7065 99.3108 79.603 99.2181 79.513 99.1281L78.4385 98.0533L79.0756 97.416L83.2768 101.618L82.78 102.115L82.2589 101.821L82.2319 101.848C82.2643 101.988 82.2742 102.135 82.2616 102.288C82.249 102.437 82.2067 102.589 82.1347 102.744C82.0645 102.897 81.9529 103.05 81.7999 103.203ZM81.4624 102.509C81.7342 102.237 81.8476 101.967 81.8026 101.699C81.7576 101.431 81.5803 101.138 81.2707 100.821L81.187 100.738C80.8522 100.403 80.5417 100.2 80.2555 100.13C79.9675 100.058 79.6804 100.165 79.3942 100.451C79.1656 100.68 79.0837 100.947 79.1485 101.253C79.2133 101.556 79.4104 101.872 79.7398 102.201C80.0692 102.531 80.3806 102.723 80.674 102.779C80.9674 102.831 81.2302 102.741 81.4624 102.509Z" fill="white"/>
<path d="M82.3318 96.4708C82.5982 96.2043 82.8817 96.0306 83.1823 95.9496C83.4829 95.8686 83.7853 95.8776 84.0895 95.9766C84.3937 96.0756 84.6862 96.2655 84.967 96.5464L85.3072 96.8867L83.3119 98.8824C83.6089 99.165 83.9095 99.3108 84.2137 99.3198C84.5197 99.327 84.8068 99.1965 85.075 98.9283C85.2658 98.7374 85.4188 98.5484 85.534 98.3612C85.6492 98.1703 85.7518 97.9579 85.8418 97.7238L86.3575 98.2396C86.2783 98.4593 86.1775 98.6627 86.0551 98.8499C85.9327 99.0372 85.7635 99.2388 85.5475 99.4549C85.2541 99.7483 84.9391 99.95 84.6025 100.06C84.2659 100.166 83.9212 100.169 83.5684 100.068C83.2174 99.9653 82.8736 99.7456 82.537 99.409C82.2022 99.0741 81.9745 98.7329 81.8539 98.3855C81.7333 98.038 81.7144 97.7004 81.7972 97.3728C81.88 97.0451 82.0582 96.7444 82.3318 96.4708ZM82.8097 96.9488C82.6099 97.1486 82.5127 97.3755 82.5181 97.6293C82.5253 97.8814 82.6432 98.1433 82.8718 98.4152L84.2326 97.0541C84.0814 96.9065 83.9239 96.7994 83.7601 96.7327C83.5981 96.6643 83.4361 96.6463 83.2741 96.6787C83.1139 96.7093 82.9591 96.7994 82.8097 96.9488Z" fill="white"/>
<path d="M170.62 184.804L169.97 185.455L166.573 182.058L165.417 183.214L164.867 182.663L167.826 179.703L168.377 180.254L167.224 181.407L170.62 184.804Z" fill="white"/>
<path d="M170.458 178.874C170.725 178.607 171.008 178.434 171.309 178.353C171.609 178.272 171.912 178.281 172.216 178.38C172.52 178.479 172.813 178.669 173.093 178.949L173.434 179.29L171.438 181.285C171.735 181.568 172.036 181.714 172.34 181.723C172.646 181.73 172.933 181.599 173.201 181.331C173.392 181.14 173.545 180.951 173.66 180.764C173.776 180.573 173.878 180.361 173.968 180.127L174.484 180.643C174.405 180.862 174.304 181.066 174.182 181.253C174.059 181.44 173.89 181.642 173.674 181.858C173.381 182.151 173.066 182.353 172.729 182.463C172.392 182.569 172.048 182.572 171.695 182.471C171.344 182.368 171 182.149 170.663 181.812C170.329 181.477 170.101 181.136 169.98 180.788C169.86 180.441 169.841 180.103 169.924 179.776C170.006 179.448 170.185 179.147 170.458 178.874ZM170.936 179.352C170.736 179.552 170.639 179.778 170.645 180.032C170.652 180.284 170.77 180.546 170.998 180.818L172.359 179.457C172.208 179.309 172.05 179.202 171.887 179.136C171.725 179.067 171.563 179.049 171.401 179.082C171.24 179.112 171.086 179.202 170.936 179.352Z" fill="white"/>
<path d="M176.655 177.062C176.851 177.258 176.969 177.471 177.008 177.702C177.048 177.932 177.011 178.174 176.898 178.428C176.784 178.678 176.595 178.936 176.331 179.201C176.122 179.409 175.927 179.574 175.745 179.695C175.567 179.815 175.38 179.912 175.186 179.984L174.638 179.435C174.847 179.36 175.064 179.258 175.289 179.13C175.515 179.001 175.708 178.857 175.866 178.698C176.075 178.489 176.193 178.307 176.22 178.15C176.245 177.992 176.203 177.857 176.093 177.748C176.028 177.683 175.952 177.644 175.864 177.632C175.775 177.615 175.654 177.631 175.499 177.677C175.344 177.721 175.132 177.8 174.862 177.915C174.597 178.029 174.362 178.112 174.157 178.166C173.952 178.22 173.763 178.227 173.59 178.188C173.416 178.146 173.245 178.042 173.077 177.875C172.813 177.61 172.716 177.305 172.788 176.959C172.86 176.61 173.069 176.262 173.415 175.917C173.598 175.733 173.79 175.579 173.99 175.455C174.19 175.327 174.403 175.22 174.63 175.134L174.908 175.811C174.713 175.887 174.529 175.974 174.354 176.073C174.18 176.169 174.022 176.287 173.882 176.427C173.718 176.591 173.618 176.741 173.582 176.878C173.548 177.013 173.578 177.127 173.671 177.221C173.741 177.291 173.822 177.33 173.912 177.337C174.002 177.344 174.121 177.322 174.271 177.27C174.422 177.216 174.624 177.134 174.878 177.024C175.125 176.914 175.351 176.832 175.556 176.778C175.761 176.721 175.953 176.711 176.131 176.748C176.309 176.786 176.484 176.891 176.655 177.062Z" fill="white"/>
<path d="M178.847 175.657C178.93 175.575 179.005 175.486 179.071 175.39C179.136 175.293 179.191 175.2 179.236 175.112L179.716 175.593C179.677 175.693 179.612 175.81 179.522 175.944C179.432 176.077 179.327 176.204 179.206 176.324C179.037 176.494 178.857 176.618 178.666 176.697C178.474 176.775 178.268 176.784 178.051 176.724C177.833 176.665 177.601 176.513 177.357 176.268L175.75 174.661L175.343 175.069L175.059 174.785L175.272 174.124L174.84 173.276L175.24 172.876L175.904 173.54L176.76 172.684L177.243 173.168L176.387 174.024L177.986 175.622C178.137 175.774 178.287 175.848 178.437 175.846C178.586 175.845 178.723 175.782 178.847 175.657Z" fill="white"/>
<path d="M483.886 189.829C484.19 190.134 484.428 190.45 484.601 190.777C484.774 191.101 484.874 191.43 484.901 191.763C484.926 192.094 484.872 192.424 484.739 192.751C484.606 193.079 484.384 193.398 484.075 193.707C483.76 194.022 483.437 194.247 483.108 194.382C482.78 194.516 482.45 194.569 482.117 194.542C481.786 194.513 481.457 194.411 481.132 194.237C480.806 194.062 480.491 193.823 480.187 193.518C479.78 193.111 479.492 192.69 479.323 192.254C479.153 191.815 479.122 191.375 479.228 190.934C479.334 190.489 479.597 190.057 480.017 189.638C480.427 189.227 480.852 188.97 481.291 188.865C481.73 188.761 482.169 188.793 482.609 188.962C483.048 189.128 483.473 189.417 483.886 189.829ZM480.872 192.843C481.177 193.147 481.482 193.37 481.788 193.51C482.092 193.649 482.39 193.693 482.681 193.642C482.973 193.588 483.254 193.426 483.524 193.156C483.796 192.885 483.958 192.604 484.01 192.314C484.06 192.022 484.015 191.725 483.875 191.423C483.733 191.118 483.509 190.814 483.205 190.51C482.743 190.047 482.288 189.778 481.842 189.702C481.395 189.623 480.971 189.785 480.567 190.189C480.297 190.459 480.134 190.74 480.079 191.034C480.025 191.325 480.067 191.623 480.206 191.928C480.342 192.23 480.565 192.535 480.872 192.843Z" fill="#2563EB"/>
<path d="M485.136 186.446C485.49 186.091 485.904 185.936 486.378 185.981C486.853 186.024 487.346 186.302 487.857 186.813C488.196 187.151 488.431 187.487 488.562 187.82C488.693 188.15 488.728 188.464 488.667 188.763C488.606 189.058 488.457 189.324 488.219 189.562C488.068 189.713 487.917 189.825 487.765 189.897C487.614 189.969 487.468 190.013 487.325 190.029C487.181 190.044 487.045 190.04 486.915 190.018L486.877 190.056C486.958 190.119 487.046 190.191 487.142 190.272C487.237 190.35 487.321 190.424 487.393 190.496L488.611 191.714L487.973 192.352L483.659 188.036L484.177 187.518L484.679 187.842L484.709 187.812C484.68 187.672 484.67 187.526 484.677 187.375C484.686 187.222 484.726 187.068 484.798 186.913C484.87 186.754 484.983 186.599 485.136 186.446ZM485.484 187.134C485.309 187.309 485.204 187.484 485.168 187.661C485.132 187.834 485.159 188.014 485.249 188.201C485.341 188.386 485.489 188.585 485.695 188.798L485.784 188.887C486.005 189.108 486.216 189.274 486.415 189.384C486.615 189.49 486.809 189.53 486.996 189.505C487.183 189.476 487.369 189.37 487.552 189.187C487.707 189.032 487.792 188.862 487.809 188.676C487.827 188.489 487.783 188.292 487.676 188.085C487.57 187.878 487.411 187.668 487.198 187.456C486.876 187.133 486.568 186.941 486.275 186.878C485.983 186.813 485.72 186.898 485.484 187.134Z" fill="#2563EB"/>
<path d="M490.746 186.008C490.829 185.925 490.904 185.836 490.97 185.741C491.035 185.644 491.09 185.551 491.135 185.463L491.616 185.943C491.576 186.044 491.511 186.161 491.421 186.294C491.331 186.428 491.226 186.555 491.105 186.675C490.936 186.844 490.756 186.969 490.565 187.048C490.373 187.125 490.168 187.134 489.95 187.075C489.732 187.015 489.501 186.863 489.256 186.618L487.649 185.012L487.242 185.419L486.958 185.136L487.171 184.474L486.739 183.626L487.139 183.227L487.803 183.891L488.659 183.035L489.142 183.518L488.287 184.374L489.885 185.973C490.036 186.124 490.186 186.199 490.336 186.197C490.485 186.195 490.622 186.132 490.746 186.008Z" fill="#2563EB"/>
<path d="M489.925 181.768L492.914 184.758L492.28 185.392L489.291 182.403L489.925 181.768ZM488.467 180.937C488.565 180.839 488.674 180.782 488.797 180.764C488.921 180.744 489.047 180.798 489.175 180.926C489.301 181.052 489.355 181.178 489.337 181.304C489.319 181.426 489.261 181.536 489.164 181.633C489.063 181.734 488.952 181.794 488.829 181.812C488.707 181.826 488.583 181.77 488.457 181.644C488.329 181.516 488.273 181.392 488.289 181.271C488.307 181.149 488.367 181.037 488.467 180.937Z" fill="#2563EB"/>
<path d="M494.156 177.423C494.491 177.088 494.829 176.923 495.171 176.926C495.515 176.928 495.878 177.12 496.26 177.501L498.214 179.457L497.58 180.091L495.738 178.25C495.512 178.023 495.297 177.896 495.093 177.869C494.89 177.842 494.698 177.918 494.518 178.098C494.266 178.35 494.165 178.613 494.216 178.887C494.266 179.157 494.444 179.445 494.75 179.751L496.335 181.336L495.701 181.971L493.859 180.129C493.708 179.978 493.562 179.872 493.422 179.81C493.282 179.746 493.147 179.728 493.017 179.756C492.886 179.783 492.76 179.857 492.639 179.978C492.464 180.152 492.364 180.332 492.339 180.515C492.316 180.697 492.359 180.888 492.469 181.088C492.577 181.286 492.742 181.496 492.966 181.72L494.459 183.213L493.824 183.848L490.835 180.858L491.329 180.364L491.821 180.677L491.856 180.642C491.813 180.477 491.803 180.315 491.826 180.159C491.85 179.999 491.901 179.846 491.98 179.702C492.058 179.557 492.157 179.423 492.277 179.303C492.5 179.079 492.728 178.931 492.96 178.857C493.191 178.782 493.424 178.786 493.66 178.871L493.708 178.822C493.64 178.566 493.651 178.316 493.741 178.071C493.831 177.826 493.969 177.61 494.156 177.423Z" fill="#2563EB"/>
<path d="M496.746 174.947L499.734 177.936L499.1 178.571L496.111 175.581L496.746 174.947ZM495.288 174.115C495.385 174.018 495.495 173.96 495.617 173.942C495.741 173.922 495.867 173.976 495.995 174.104C496.121 174.23 496.175 174.356 496.157 174.482C496.139 174.605 496.081 174.715 495.984 174.812C495.883 174.913 495.772 174.972 495.649 174.99C495.527 175.004 495.403 174.949 495.277 174.823C495.149 174.695 495.093 174.571 495.109 174.45C495.127 174.327 495.187 174.216 495.288 174.115Z" fill="#2563EB"/>
<path d="M502.645 175.025L500.374 177.296L499.983 176.905L499.383 173.286L497.966 174.704L497.477 174.215L499.613 172.079L500.045 172.511L500.634 176.059L502.156 174.536L502.645 175.025Z" fill="#2563EB"/>
<path d="M501.435 170.143C501.702 169.876 501.985 169.702 502.286 169.621C502.587 169.54 502.889 169.549 503.193 169.648C503.497 169.747 503.79 169.937 504.071 170.218L504.411 170.558L502.416 172.554C502.713 172.837 503.013 172.983 503.317 172.992C503.623 172.999 503.91 172.868 504.179 172.6C504.369 172.409 504.522 172.22 504.638 172.033C504.753 171.842 504.855 171.63 504.945 171.396L505.461 171.911C505.382 172.131 505.281 172.334 505.159 172.522C505.036 172.709 504.867 172.911 504.651 173.127C504.358 173.42 504.043 173.622 503.706 173.732C503.369 173.838 503.025 173.84 502.672 173.74C502.321 173.637 501.977 173.417 501.641 173.081C501.306 172.746 501.078 172.405 500.958 172.057C500.837 171.71 500.818 171.372 500.901 171.045C500.984 170.717 501.162 170.416 501.435 170.143ZM501.913 170.621C501.714 170.82 501.616 171.047 501.622 171.301C501.629 171.553 501.747 171.815 501.975 172.087L503.336 170.726C503.185 170.578 503.028 170.471 502.864 170.405C502.702 170.336 502.54 170.318 502.378 170.351C502.218 170.381 502.063 170.471 501.913 170.621Z" fill="#2563EB"/>
<path d="M230.155 108.483C230.495 108.143 230.817 107.904 231.122 107.765C231.428 107.625 231.719 107.585 231.996 107.646C232.275 107.706 232.545 107.866 232.806 108.127C233.001 108.321 233.13 108.523 233.195 108.732C233.26 108.941 233.279 109.149 233.252 109.356C233.225 109.563 233.172 109.76 233.093 109.947L235.96 110.573L235.228 111.305L232.693 110.676L232.058 111.311L233.641 112.893L232.993 113.541L229.045 109.593L230.155 108.483ZM230.652 109.067L230.233 109.485L231.524 110.776L231.972 110.328C232.273 110.027 232.435 109.753 232.458 109.507C232.483 109.258 232.387 109.025 232.169 108.807C231.941 108.579 231.706 108.49 231.464 108.54C231.225 108.589 230.954 108.764 230.652 109.067Z" fill="#2563EB"/>
<path d="M234.605 105.837C234.871 105.57 235.154 105.397 235.455 105.316C235.756 105.235 236.058 105.244 236.362 105.343C236.666 105.442 236.959 105.632 237.24 105.912L237.58 106.253L235.585 108.248C235.882 108.531 236.182 108.677 236.486 108.686C236.792 108.693 237.08 108.563 237.348 108.294C237.539 108.103 237.692 107.914 237.807 107.727C237.922 107.536 238.025 107.324 238.115 107.09L238.63 107.606C238.551 107.825 238.45 108.029 238.328 108.216C238.205 108.403 238.036 108.605 237.82 108.821C237.527 109.114 237.212 109.316 236.875 109.426C236.539 109.532 236.194 109.535 235.841 109.434C235.49 109.331 235.146 109.112 234.81 108.775C234.475 108.44 234.247 108.099 234.127 107.751C234.006 107.404 233.987 107.066 234.07 106.739C234.153 106.411 234.331 106.11 234.605 105.837ZM235.082 106.315C234.883 106.515 234.785 106.741 234.791 106.995C234.798 107.247 234.916 107.509 235.145 107.781L236.505 106.42C236.354 106.272 236.197 106.165 236.033 106.099C235.871 106.03 235.709 106.012 235.547 106.045C235.387 106.075 235.232 106.165 235.082 106.315Z" fill="#2563EB"/>
<path d="M240.283 106.25L239.645 106.887L235.444 102.685L236.081 102.048L240.283 106.25Z" fill="#2563EB"/>
<path d="M239.335 101.105C239.601 100.839 239.885 100.665 240.185 100.584C240.486 100.503 240.788 100.512 241.093 100.611C241.397 100.71 241.689 100.9 241.97 101.181L242.31 101.521L240.315 103.517C240.612 103.8 240.913 103.946 241.217 103.955C241.523 103.962 241.81 103.831 242.078 103.563C242.269 103.372 242.422 103.183 242.537 102.996C242.652 102.805 242.755 102.593 242.845 102.359L243.361 102.874C243.281 103.094 243.181 103.297 243.058 103.485C242.936 103.672 242.767 103.874 242.551 104.09C242.257 104.383 241.942 104.585 241.606 104.694C241.269 104.801 240.924 104.803 240.571 104.703C240.22 104.6 239.877 104.38 239.54 104.044C239.205 103.709 238.978 103.368 238.857 103.02C238.736 102.673 238.717 102.335 238.8 102.007C238.883 101.68 239.061 101.379 239.335 101.105ZM239.813 101.583C239.613 101.783 239.516 102.01 239.521 102.264C239.528 102.516 239.646 102.778 239.875 103.05L241.236 101.689C241.084 101.541 240.927 101.434 240.763 101.367C240.601 101.299 240.439 101.281 240.277 101.313C240.117 101.344 239.962 101.434 239.813 101.583Z" fill="#2563EB"/>
<path d="M242.502 97.9378C242.88 97.5597 243.249 97.358 243.609 97.3328C243.971 97.3058 244.329 97.4697 244.684 97.8243L246.695 99.8362L246.244 100.287L245.699 99.9848L245.677 100.006C245.701 100.199 245.702 100.375 245.683 100.536C245.663 100.696 245.611 100.853 245.526 101.006C245.445 101.159 245.32 101.32 245.151 101.489C244.972 101.667 244.781 101.794 244.576 101.87C244.369 101.944 244.157 101.953 243.941 101.899C243.725 101.845 243.514 101.715 243.307 101.508C242.999 101.2 242.882 100.854 242.956 100.471C243.031 100.086 243.293 99.6526 243.741 99.1719L244.241 98.6345L244.084 98.4779C243.877 98.2708 243.681 98.1718 243.496 98.1808C243.312 98.188 243.133 98.2789 242.958 98.4536C242.809 98.603 242.686 98.7695 242.588 98.9532C242.491 99.1368 242.407 99.3267 242.337 99.523L241.684 99.2799C241.752 99.0567 241.855 98.828 241.992 98.594C242.13 98.3581 242.3 98.1394 242.502 97.9378ZM244.638 99.0369L244.265 99.4365C243.959 99.7642 243.791 100.041 243.76 100.266C243.73 100.491 243.799 100.688 243.968 100.857C244.116 101.005 244.268 101.069 244.424 101.049C244.579 101.027 244.729 100.944 244.873 100.8C245.092 100.581 245.212 100.337 245.232 100.068C245.251 99.7966 245.14 99.5392 244.897 99.2961L244.638 99.0369Z" fill="#2563EB"/>
<path d="M248.739 96.0852C248.935 96.2814 249.053 96.4948 249.093 96.7252C249.132 96.9557 249.095 97.1978 248.982 97.4517C248.868 97.7019 248.679 97.9594 248.415 98.224C248.206 98.4329 248.011 98.5976 247.829 98.7182C247.651 98.8388 247.464 98.9351 247.27 99.0072L246.722 98.459C246.931 98.3833 247.148 98.2816 247.373 98.1538C247.599 98.0242 247.792 97.8801 247.95 97.7217C248.159 97.5129 248.277 97.3301 248.304 97.1735C248.329 97.0151 248.287 96.881 248.177 96.7711C248.112 96.7063 248.036 96.6676 247.948 96.655C247.86 96.6388 247.738 96.6541 247.583 96.7009C247.428 96.7441 247.216 96.8233 246.946 96.9386C246.682 97.052 246.447 97.1357 246.241 97.1897C246.036 97.2437 245.847 97.2509 245.674 97.2113C245.5 97.1699 245.329 97.0655 245.161 96.8981C244.897 96.6334 244.801 96.3282 244.873 95.9826C244.945 95.6333 245.153 95.2858 245.499 94.9402C245.683 94.7565 245.874 94.6026 246.074 94.4784C246.274 94.3506 246.487 94.2434 246.714 94.157L246.992 94.8349C246.798 94.9105 246.613 94.9978 246.439 95.0968C246.264 95.1922 246.106 95.3102 245.966 95.4506C245.802 95.6144 245.702 95.7647 245.666 95.9016C245.632 96.0366 245.662 96.1509 245.755 96.2445C245.826 96.3147 245.906 96.3535 245.996 96.3607C246.086 96.3679 246.205 96.3454 246.355 96.2931C246.506 96.2391 246.709 96.1572 246.962 96.0474C247.209 95.9376 247.435 95.8557 247.64 95.8016C247.845 95.744 248.037 95.7341 248.215 95.7719C248.393 95.8097 248.568 95.9142 248.739 96.0852Z" fill="#2563EB"/>
<path d="M248.423 92.0155C248.689 91.7491 248.973 91.5753 249.273 91.4943C249.574 91.4133 249.876 91.4223 250.181 91.5213C250.485 91.6203 250.777 91.8103 251.058 92.0911L251.398 92.4314L249.403 94.4271C249.7 94.7097 250.001 94.8556 250.305 94.8646C250.611 94.8718 250.898 94.7412 251.166 94.473C251.357 94.2822 251.51 94.0931 251.625 93.9059C251.74 93.715 251.843 93.5026 251.933 93.2686L252.449 93.7844C252.369 94.004 252.269 94.2074 252.146 94.3947C252.024 94.5819 251.855 94.7835 251.639 94.9996C251.345 95.293 251.03 95.4947 250.694 95.6045C250.357 95.7107 250.012 95.7134 249.66 95.6126C249.309 95.51 248.965 95.2903 248.628 94.9537C248.293 94.6188 248.066 94.2777 247.945 93.9302C247.824 93.5827 247.806 93.2452 247.888 92.9175C247.971 92.5898 248.149 92.2892 248.423 92.0155ZM248.901 92.4935C248.701 92.6933 248.604 92.9202 248.609 93.174C248.616 93.4261 248.734 93.688 248.963 93.9599L250.324 92.5988C250.173 92.4512 250.015 92.3441 249.851 92.2775C249.689 92.2091 249.527 92.191 249.365 92.2235C249.205 92.2541 249.05 92.3441 248.901 92.4935Z" fill="#2563EB"/>
<path d="M389.202 115.257C389.507 115.562 389.745 115.878 389.918 116.205C390.091 116.529 390.191 116.858 390.218 117.191C390.243 117.522 390.189 117.852 390.056 118.179C389.922 118.507 389.701 118.826 389.391 119.135C389.076 119.45 388.754 119.675 388.425 119.81C388.097 119.944 387.767 119.997 387.434 119.97C387.103 119.941 386.774 119.839 386.448 119.665C386.123 119.49 385.808 119.251 385.503 118.946C385.097 118.539 384.809 118.118 384.64 117.682C384.47 117.243 384.439 116.803 384.545 116.362C384.651 115.917 384.914 115.485 385.333 115.066C385.744 114.655 386.169 114.398 386.608 114.293C387.047 114.189 387.486 114.221 387.925 114.391C388.365 114.556 388.79 114.845 389.202 115.257ZM386.189 118.271C386.493 118.575 386.799 118.798 387.105 118.938C387.409 119.077 387.707 119.121 387.998 119.071C388.29 119.017 388.571 118.854 388.841 118.584C389.112 118.313 389.274 118.032 389.327 117.742C389.377 117.45 389.332 117.153 389.192 116.851C389.049 116.546 388.826 116.242 388.522 115.938C388.059 115.475 387.605 115.206 387.159 115.13C386.712 115.051 386.287 115.213 385.884 115.617C385.614 115.887 385.451 116.168 385.395 116.462C385.341 116.753 385.384 117.051 385.522 117.356C385.659 117.658 385.881 117.963 386.189 118.271Z" fill="#2563EB"/>
<path d="M390.453 111.874C390.807 111.519 391.221 111.364 391.695 111.409C392.17 111.452 392.663 111.73 393.174 112.241C393.513 112.579 393.747 112.915 393.879 113.248C394.01 113.578 394.045 113.892 393.984 114.191C393.923 114.486 393.774 114.752 393.536 114.99C393.385 115.141 393.234 115.253 393.082 115.325C392.931 115.397 392.784 115.441 392.642 115.457C392.498 115.472 392.361 115.468 392.232 115.446L392.194 115.484C392.275 115.547 392.363 115.619 392.459 115.7C392.554 115.778 392.638 115.852 392.71 115.924L393.927 117.142L393.29 117.78L388.976 113.464L389.494 112.946L389.996 113.27L390.026 113.24C389.997 113.1 389.986 112.954 389.994 112.803C390.003 112.65 390.043 112.496 390.115 112.341C390.187 112.182 390.3 112.027 390.453 111.874ZM390.801 112.562C390.626 112.737 390.521 112.912 390.485 113.089C390.449 113.262 390.476 113.442 390.566 113.629C390.658 113.814 390.806 114.013 391.011 114.226L391.101 114.315C391.322 114.536 391.533 114.702 391.732 114.812C391.932 114.918 392.126 114.959 392.313 114.933C392.5 114.905 392.685 114.798 392.869 114.615C393.024 114.46 393.109 114.29 393.126 114.104C393.144 113.917 393.099 113.72 392.993 113.513C392.887 113.306 392.728 113.096 392.515 112.884C392.193 112.561 391.885 112.369 391.592 112.306C391.3 112.241 391.037 112.326 390.801 112.562Z" fill="#2563EB"/>
<path d="M393.555 108.771C393.821 108.504 394.105 108.331 394.405 108.25C394.706 108.169 395.008 108.178 395.312 108.277C395.617 108.376 395.909 108.565 396.19 108.846L396.53 109.187L394.535 111.182C394.832 111.465 395.132 111.611 395.437 111.62C395.743 111.627 396.03 111.496 396.298 111.228C396.489 111.037 396.642 110.848 396.757 110.661C396.872 110.47 396.975 110.258 397.065 110.024L397.58 110.54C397.501 110.759 397.4 110.963 397.278 111.15C397.156 111.337 396.986 111.539 396.77 111.755C396.477 112.048 396.162 112.25 395.825 112.36C395.489 112.466 395.144 112.469 394.791 112.368C394.44 112.265 394.097 112.046 393.76 111.709C393.425 111.374 393.198 111.033 393.077 110.685C392.956 110.338 392.937 110 393.02 109.673C393.103 109.345 393.281 109.044 393.555 108.771ZM394.033 109.249C393.833 109.449 393.736 109.675 393.741 109.929C393.748 110.181 393.866 110.443 394.095 110.715L395.456 109.354C395.304 109.206 395.147 109.099 394.983 109.033C394.821 108.964 394.659 108.946 394.497 108.979C394.337 109.009 394.182 109.099 394.033 109.249Z" fill="#2563EB"/>
<path d="M397.065 105.26C397.115 105.21 397.173 105.157 397.238 105.103C397.302 105.049 397.361 105.005 397.413 104.971L397.948 105.625C397.899 105.652 397.844 105.69 397.783 105.741C397.724 105.789 397.672 105.835 397.629 105.878C397.516 105.992 397.427 106.119 397.362 106.259C397.295 106.398 397.26 106.545 397.256 106.699C397.251 106.852 397.282 107.007 397.348 107.164C397.415 107.321 397.522 107.473 397.67 107.62L399.233 109.184L398.596 109.821L395.607 106.832L396.104 106.335L396.716 106.775L396.746 106.745C396.699 106.58 396.676 106.409 396.676 106.232C396.676 106.056 396.707 105.885 396.768 105.719C396.829 105.55 396.928 105.397 397.065 105.26Z" fill="#2563EB"/>
<path d="M399.109 103.216C399.487 102.838 399.856 102.636 400.216 102.611C400.577 102.584 400.936 102.748 401.29 103.102L403.302 105.114L402.851 105.565L402.305 105.263L402.284 105.284C402.307 105.477 402.309 105.653 402.289 105.814C402.269 105.974 402.217 106.131 402.133 106.284C402.052 106.437 401.927 106.598 401.757 106.767C401.579 106.945 401.387 107.072 401.182 107.148C400.975 107.222 400.764 107.231 400.548 107.177C400.332 107.123 400.12 106.993 399.913 106.786C399.605 106.478 399.488 106.132 399.562 105.749C399.638 105.364 399.9 104.931 400.348 104.45L400.847 103.912L400.691 103.756C400.484 103.549 400.288 103.45 400.102 103.459C399.919 103.466 399.74 103.557 399.565 103.732C399.416 103.881 399.292 104.048 399.195 104.231C399.098 104.415 399.014 104.605 398.944 104.801L398.291 104.558C398.359 104.335 398.462 104.106 398.598 103.872C398.737 103.636 398.907 103.417 399.109 103.216ZM401.244 104.315L400.872 104.715C400.566 105.042 400.397 105.319 400.367 105.544C400.336 105.769 400.406 105.966 400.575 106.135C400.722 106.283 400.874 106.347 401.031 106.327C401.186 106.305 401.335 106.222 401.479 106.078C401.699 105.859 401.819 105.615 401.838 105.346C401.858 105.075 401.747 104.817 401.504 104.574L401.244 104.315Z" fill="#2563EB"/>
<path d="M404.843 102.654C404.926 102.571 405.001 102.482 405.067 102.387C405.132 102.289 405.187 102.197 405.232 102.109L405.713 102.589C405.673 102.69 405.608 102.807 405.518 102.94C405.428 103.074 405.323 103.2 405.202 103.321C405.033 103.49 404.853 103.615 404.662 103.694C404.47 103.771 404.265 103.78 404.047 103.721C403.829 103.661 403.598 103.509 403.353 103.264L401.747 101.658L401.339 102.065L401.055 101.782L401.269 101.12L400.837 100.272L401.236 99.8725L401.9 100.537L402.756 99.6808L403.24 100.164L402.384 101.02L403.982 102.619C404.133 102.77 404.284 102.845 404.433 102.843C404.582 102.841 404.719 102.778 404.843 102.654Z" fill="#2563EB"/>
<path d="M404.522 97.8012C404.788 97.5348 405.072 97.361 405.373 97.28C405.673 97.199 405.976 97.208 406.28 97.307C406.584 97.406 406.876 97.596 407.157 97.8768L407.497 98.2171L405.502 100.213C405.799 100.495 406.1 100.641 406.404 100.65C406.71 100.657 406.997 100.527 407.265 100.259C407.456 100.068 407.609 99.8788 407.724 99.6916C407.839 99.5008 407.942 99.2883 408.032 99.0543L408.548 99.5701C408.469 99.7897 408.368 99.9931 408.245 100.18C408.123 100.368 407.954 100.569 407.738 100.785C407.444 101.079 407.129 101.28 406.793 101.39C406.456 101.496 406.111 101.499 405.759 101.398C405.408 101.296 405.064 101.076 404.727 100.739C404.392 100.405 404.165 100.063 404.044 99.7159C403.924 99.3684 403.905 99.0309 403.987 98.7032C404.07 98.3755 404.248 98.0749 404.522 97.8012ZM405 98.2792C404.8 98.4791 404.703 98.7059 404.708 98.9597C404.716 99.2118 404.833 99.4737 405.062 99.7456L406.423 98.3845C406.272 98.2369 406.114 98.1298 405.95 98.0632C405.788 97.9948 405.626 97.9768 405.464 98.0092C405.304 98.0398 405.149 98.1298 405 98.2792Z" fill="#2563EB"/>
<path d="M321.576 193.886L317.143 191.726L317.119 191.75C317.198 191.819 317.305 191.913 317.44 192.034C317.575 192.154 317.718 192.285 317.869 192.425C318.021 192.566 318.163 192.703 318.296 192.836L320.461 195.002L319.873 195.59L315.925 191.642L316.835 190.732L321.08 192.79L321.096 192.774L319.076 188.491L319.983 187.583L323.931 191.532L323.312 192.15L321.115 189.952C320.994 189.831 320.865 189.699 320.729 189.555C320.594 189.409 320.466 189.27 320.345 189.139C320.226 189.006 320.131 188.899 320.059 188.82L320.037 188.842L322.149 193.314L321.576 193.886Z" fill="white"/>
<path d="M326.05 186.409C326.299 186.657 326.487 186.91 326.615 187.168C326.742 187.425 326.811 187.682 326.82 187.94C326.827 188.196 326.778 188.446 326.674 188.691C326.568 188.934 326.405 189.165 326.185 189.385C325.98 189.59 325.758 189.744 325.518 189.846C325.277 189.947 325.028 189.995 324.77 189.99C324.513 189.981 324.254 189.914 323.993 189.79C323.732 189.665 323.477 189.479 323.229 189.231C322.899 188.901 322.677 188.565 322.562 188.223C322.447 187.878 322.435 187.538 322.527 187.205C322.619 186.872 322.811 186.559 323.105 186.266C323.38 185.99 323.683 185.807 324.014 185.717C324.346 185.627 324.686 185.638 325.035 185.75C325.384 185.861 325.723 186.081 326.05 186.409ZM323.882 188.577C324.1 188.795 324.312 188.955 324.519 189.058C324.728 189.159 324.93 189.195 325.124 189.166C325.317 189.135 325.501 189.032 325.678 188.855C325.854 188.679 325.958 188.494 325.988 188.302C326.017 188.107 325.98 187.907 325.877 187.7C325.775 187.492 325.615 187.28 325.397 187.062C325.179 186.844 324.968 186.686 324.765 186.587C324.56 186.486 324.362 186.452 324.171 186.484C323.978 186.515 323.793 186.619 323.615 186.798C323.352 187.06 323.249 187.34 323.304 187.637C323.36 187.934 323.553 188.248 323.882 188.577Z" fill="white"/>
<path d="M326.793 182.577C327.129 182.24 327.479 182.065 327.84 182.053C328.202 182.037 328.575 182.22 328.958 182.604L330.908 184.553L330.273 185.188L328.442 183.357C328.21 183.125 327.989 182.999 327.778 182.979C327.566 182.957 327.36 183.047 327.16 183.246C326.87 183.536 326.758 183.827 326.822 184.119C326.889 184.408 327.092 184.723 327.43 185.061L328.915 186.546L328.28 187.181L325.292 184.192L325.786 183.697L326.28 184.013L326.315 183.978C326.275 183.809 326.27 183.643 326.299 183.481C326.327 183.316 326.384 183.156 326.469 183.003C326.555 182.848 326.663 182.706 326.793 182.577Z" fill="white"/>
<path d="M329.441 180.041L332.43 183.03L331.796 183.665L328.807 180.675L329.441 180.041ZM327.983 179.209C328.081 179.112 328.19 179.054 328.313 179.036C328.437 179.016 328.563 179.07 328.691 179.198C328.817 179.324 328.871 179.45 328.853 179.576C328.835 179.699 328.777 179.809 328.68 179.906C328.579 180.007 328.468 180.066 328.345 180.084C328.223 180.098 328.099 180.043 327.973 179.917C327.845 179.789 327.789 179.665 327.805 179.544C327.823 179.422 327.883 179.31 327.983 179.209Z" fill="white"/>
<path d="M333.994 180.549C334.076 180.466 334.151 180.377 334.218 180.281C334.282 180.184 334.337 180.091 334.382 180.003L334.863 180.484C334.823 180.585 334.759 180.702 334.669 180.835C334.579 180.968 334.473 181.095 334.353 181.216C334.183 181.385 334.003 181.509 333.813 181.588C333.62 181.666 333.415 181.675 333.197 181.615C332.979 181.556 332.748 181.404 332.503 181.159L330.897 179.552L330.489 179.96L330.206 179.676L330.419 179.015L329.987 178.167L330.386 177.767L331.051 178.431L331.906 177.575L332.39 178.059L331.534 178.915L333.132 180.513C333.283 180.665 333.434 180.739 333.583 180.738C333.733 180.736 333.869 180.673 333.994 180.549Z" fill="white"/>
<path d="M336.672 175.785C336.92 176.033 337.108 176.286 337.236 176.544C337.364 176.801 337.432 177.059 337.441 177.316C337.449 177.572 337.4 177.822 337.296 178.067C337.189 178.31 337.027 178.541 336.807 178.761C336.602 178.966 336.379 179.12 336.14 179.223C335.899 179.323 335.65 179.371 335.392 179.366C335.135 179.357 334.876 179.29 334.615 179.166C334.354 179.042 334.099 178.855 333.85 178.607C333.521 178.277 333.299 177.942 333.184 177.6C333.068 177.254 333.057 176.915 333.148 176.581C333.24 176.248 333.433 175.935 333.726 175.642C334.002 175.366 334.305 175.184 334.636 175.093C334.967 175.003 335.308 175.014 335.657 175.126C336.006 175.238 336.344 175.457 336.672 175.785ZM334.504 177.953C334.722 178.171 334.934 178.331 335.141 178.434C335.35 178.535 335.551 178.571 335.746 178.542C335.938 178.511 336.123 178.408 336.299 178.231C336.476 178.055 336.579 177.871 336.61 177.678C336.639 177.483 336.602 177.283 336.499 177.076C336.397 176.869 336.236 176.656 336.019 176.438C335.801 176.221 335.59 176.062 335.387 175.963C335.182 175.862 334.984 175.828 334.793 175.86C334.6 175.891 334.415 175.995 334.237 176.174C333.974 176.437 333.87 176.717 333.926 177.014C333.982 177.311 334.174 177.624 334.504 177.953Z" fill="white"/>
<path d="M337.371 171.996C337.422 171.946 337.479 171.893 337.544 171.839C337.609 171.785 337.667 171.741 337.72 171.707L338.254 172.361C338.206 172.388 338.151 172.426 338.089 172.477C338.03 172.525 337.979 172.571 337.936 172.614C337.822 172.728 337.733 172.855 337.668 172.995C337.602 173.134 337.567 173.281 337.563 173.435C337.558 173.588 337.588 173.743 337.655 173.9C337.721 174.056 337.828 174.209 337.976 174.356L339.539 175.92L338.902 176.557L335.913 173.568L336.41 173.071L337.023 173.511L337.053 173.481C337.006 173.316 336.982 173.145 336.982 172.968C336.982 172.792 337.013 172.621 337.074 172.455C337.135 172.286 337.234 172.133 337.371 171.996Z" fill="white"/>
<path d="M479.782 96.6477C479.56 96.8936 479.309 97.0511 479.028 97.1199C478.748 97.1905 478.454 97.1717 478.143 97.0636C477.835 96.9572 477.526 96.7643 477.215 96.4849C477.064 96.3486 476.927 96.2098 476.804 96.0684C476.681 95.927 476.573 95.7849 476.479 95.642C476.389 95.4989 476.314 95.3586 476.257 95.221L476.834 94.5795C476.936 94.8049 477.064 95.0416 477.218 95.2895C477.373 95.5356 477.558 95.7557 477.774 95.9499C477.95 96.1083 478.116 96.2168 478.272 96.2753C478.432 96.3336 478.579 96.3457 478.712 96.3117C478.847 96.2757 478.967 96.2001 479.071 96.0846C479.181 95.9616 479.242 95.8278 479.252 95.683C479.263 95.5382 479.232 95.3703 479.161 95.1794C479.093 94.9882 478.996 94.7617 478.869 94.4997C478.782 94.3222 478.707 94.1422 478.646 93.9598C478.586 93.779 478.55 93.5979 478.539 93.4164C478.527 93.235 478.551 93.0543 478.61 92.8745C478.673 92.6946 478.783 92.5166 478.942 92.3406C479.153 92.106 479.389 91.9557 479.651 91.8897C479.914 91.8253 480.188 91.8407 480.472 91.9358C480.759 92.0325 481.039 92.2044 481.313 92.4514C481.531 92.6473 481.715 92.854 481.865 93.0714C482.017 93.2906 482.148 93.5253 482.259 93.7755L481.55 94.1291C481.443 93.9058 481.328 93.7009 481.204 93.5145C481.083 93.3298 480.939 93.1624 480.772 93.0125C480.629 92.8831 480.487 92.7949 480.347 92.7482C480.208 92.7014 480.076 92.6939 479.952 92.7257C479.831 92.7573 479.722 92.827 479.625 92.9349C479.516 93.056 479.453 93.1846 479.437 93.3206C479.424 93.4565 479.449 93.6147 479.513 93.7953C479.578 93.9775 479.673 94.1997 479.797 94.4618C479.94 94.7626 480.045 95.0365 480.11 95.2837C480.177 95.5326 480.188 95.7682 480.142 95.9905C480.098 96.211 479.977 96.43 479.782 96.6477Z" fill="white"/>
<path d="M480.712 99.633C480.415 99.3655 480.209 99.0761 480.096 98.7648C479.982 98.4535 479.974 98.1258 480.071 97.7818C480.168 97.4377 480.382 97.0822 480.712 96.7151C481.057 96.3328 481.402 96.0785 481.749 95.9522C482.095 95.8258 482.434 95.8071 482.765 95.8961C483.098 95.9868 483.412 96.165 483.707 96.4308C483.894 96.5994 484.046 96.7708 484.164 96.9449C484.285 97.1189 484.374 97.28 484.432 97.4284L483.753 97.7831C483.681 97.6319 483.598 97.4857 483.506 97.3445C483.414 97.2033 483.312 97.0825 483.2 96.982C483.017 96.8167 482.827 96.7194 482.631 96.6901C482.436 96.6624 482.237 96.7017 482.031 96.8081C481.828 96.9161 481.619 97.0893 481.404 97.3278C481.197 97.5586 481.051 97.7808 480.969 97.9942C480.888 98.2058 480.871 98.4059 480.917 98.5946C480.964 98.7814 481.075 98.9532 481.249 99.1099C481.421 99.2649 481.594 99.3829 481.768 99.4639C481.942 99.545 482.119 99.6069 482.299 99.6497L481.778 100.229C481.598 100.19 481.425 100.125 481.26 100.034C481.093 99.9456 480.91 99.8119 480.712 99.633Z" fill="white"/>
<path d="M486.499 98.9451C486.896 99.3029 487.117 99.6609 487.161 100.019C487.207 100.379 487.062 100.745 486.727 101.118L484.824 103.233L484.35 102.806L484.623 102.245L484.6 102.225C484.409 102.258 484.233 102.27 484.072 102.258C483.911 102.247 483.752 102.203 483.595 102.126C483.438 102.053 483.27 101.937 483.092 101.777C482.905 101.608 482.768 101.423 482.682 101.222C482.598 101.019 482.577 100.809 482.619 100.59C482.662 100.372 482.781 100.154 482.977 99.9359C483.268 99.6123 483.607 99.4774 483.994 99.531C484.383 99.5863 484.829 99.8252 485.332 100.248L485.895 100.718L486.043 100.554C486.239 100.336 486.327 100.135 486.309 99.9503C486.292 99.7673 486.192 99.5932 486.008 99.4279C485.851 99.2865 485.678 99.1721 485.49 99.0847C485.301 98.9972 485.107 98.9236 484.908 98.8637L485.116 98.1984C485.343 98.255 485.576 98.3455 485.817 98.4698C486.06 98.5959 486.287 98.7543 486.499 98.9451ZM485.514 101.136L485.095 100.785C484.752 100.496 484.467 100.343 484.241 100.324C484.015 100.305 483.821 100.385 483.661 100.563C483.522 100.718 483.466 100.873 483.494 101.028C483.524 101.182 483.614 101.327 483.765 101.463C483.996 101.671 484.246 101.778 484.515 101.783C484.787 101.789 485.039 101.664 485.269 101.408L485.514 101.136Z" fill="white"/>
<path d="M486.427 104.677L485.757 104.073L489.732 99.657L490.402 100.26L486.427 104.677Z" fill="white"/>
<path d="M491.514 103.46C491.794 103.712 491.982 103.986 492.079 104.282C492.175 104.578 492.182 104.881 492.099 105.19C492.016 105.499 491.842 105.801 491.576 106.096L491.254 106.454L489.157 104.566C488.891 104.877 488.761 105.185 488.768 105.489C488.777 105.795 488.922 106.075 489.204 106.329C489.404 106.51 489.601 106.653 489.794 106.758C489.991 106.863 490.208 106.954 490.447 107.032L489.959 107.574C489.735 107.506 489.527 107.416 489.333 107.304C489.14 107.191 488.93 107.033 488.703 106.829C488.394 106.551 488.177 106.247 488.049 105.916C487.926 105.586 487.905 105.242 487.987 104.884C488.071 104.528 488.272 104.173 488.591 103.819C488.908 103.467 489.236 103.222 489.577 103.083C489.917 102.945 490.254 102.908 490.585 102.974C490.917 103.039 491.226 103.201 491.514 103.46ZM491.061 103.963C490.851 103.774 490.62 103.688 490.367 103.707C490.115 103.727 489.86 103.859 489.601 104.102L491.031 105.389C491.17 105.231 491.269 105.068 491.327 104.901C491.387 104.735 491.396 104.572 491.355 104.412C491.316 104.254 491.218 104.104 491.061 103.963Z" fill="white"/>
</g>
</g>
<defs>
<clipPath id="clip0_1340_22630">
<rect width="479" height="153" fill="white" transform="translate(45 66)"/>
</clipPath>
</defs>
</svg>
